<?xml version="1.0" standalone="no"?>
<!DOCTYPE svg PUBLIC "-//W3C//DTD SVG 1.1//EN" "http://www.w3.org/Graphics/SVG/1.1/DTD/svg11.dtd" >
<svg xmlns="http://www.w3.org/2000/svg" xmlns:xlink="http://www.w3.org/1999/xlink" version="1.1">
<metadata>
Created by FontForge 20200427 at Mon Aug 29 10:12:21 2016
 By www
Copyright (c) 2013 by Lucas Sharp. All rights reserved.
</metadata>
<defs>
<font id="Ogg-Roman" horiz-adv-x="558" >
  <font-face 
    font-family="Ogg"
    font-weight="400"
    font-stretch="normal"
    units-per-em="1000"
    panose-1="0 0 0 0 0 0 0 0 0 0"
    ascent="750"
    descent="-250"
    x-height="500"
    cap-height="693"
    bbox="-170.036 -352 1350 1024"
    underline-thickness="50"
    underline-position="-100"
    unicode-range="U+0020-FA48"
  />
<missing-glyph horiz-adv-x="850" 
d="M80 0v690h690v-690h-690zM94 14h662v662h-662v-662zM674 584l-239 -239l239 -239l-10 -10l-239 239l-239 -239l-10 10l239 239l-239 239l10 10l239 -239l239 239z" />
    <glyph glyph-name="f_b" unicode="fb" horiz-adv-x="905" 
d="M380 8v679q0 6 -18 14.5t-48 15t-58 6.5q-106 0 -106 -226h99q35 0 35 -1q0 -3 -6.5 -10t-20 -21.5t-20.5 -21.5q-14 0 -42 0.5t-45 0.5l1 -334q0 -71 10.5 -86t56.5 -15q6 0 6 -4.5t-6 -4.5q-16 0 -56.5 1t-46.5 1t-45 -1t-55 -1q-6 0 -6 4.5t6 4.5q43 0 52 16t9 85v26
v59t-0.5 81.5t-0.5 77v62.5t0 22v7h-41q-14 0 -14 5l35 47h25q16 91 72 162.5t128 100.5q32 13 64 13q12 0 32 -6t21 -6q28 12 48 48q1 2 5.5 1.5t4.5 -4.5v-404q35 50 88.5 79t111.5 29q87 0 149 -66.5t62 -168.5q0 -120 -87 -202.5t-199 -82.5q-88 0 -152 60
q-37 -51 -43 -51q-5 0 -5 9zM622 12q81 0 125.5 58.5t44.5 168.5q0 61 -20 114t-63.5 88.5t-102.5 35.5q-43 0 -84.5 -23.5t-66.5 -62.5v-285q87 -94 167 -94z" />
    <glyph glyph-name="f_h" unicode="fh" horiz-adv-x="868" 
d="M455 391v-382h61q6 0 6 -4.5t-6 -4.5q-3 0 -43.5 1t-49.5 1t-48 -1t-55 -1q-6 0 -6 4.5t6 4.5q24 0 33.5 1.5t17 14t8.5 32t1 62.5v568q0 6 -18 14.5t-48 15t-58 6.5q-106 0 -106 -226h99q35 0 35 -1q0 -3 -6.5 -10t-20 -21.5t-20.5 -21.5q-14 0 -42 0.5t-45 0.5l1 -334
q0 -71 10.5 -86t56.5 -15q6 0 6 -4.5t-6 -4.5q-16 0 -56.5 1t-46.5 1t-45 -1t-55 -1q-6 0 -6 4.5t6 4.5q43 0 52 16t9 85v26v59t-0.5 81.5t-0.5 77v62.5t0 22v7h-41q-14 0 -14 5l35 47h25q16 91 72 162.5t128 100.5q32 13 64 13q12 0 32 -6t21 -6q28 12 48 48q1 2 5.5 1.5
t4.5 -4.5v-403q80 107 183 107q163 0 163 -203v-257q0 -27 11.5 -34.5t39.5 -6.5q6 0 6 -4.5t-6 -4.5q-3 0 -43 1t-49 1q-6 0 -39 -1t-49 -1q-6 0 -6 4.5t6 4.5q25 0 34.5 5t14 27t4.5 76v200q0 86 -34 124.5t-86 38.5q-46 0 -80.5 -21t-69.5 -68z" />
    <glyph glyph-name="f_j" unicode="fj" horiz-adv-x="533" 
d="M150 497h99q35 0 35 -1q0 -3 -6.5 -10t-20 -21.5t-20.5 -21.5q-14 0 -42 0.5t-45 0.5l1 -334q0 -71 10.5 -86t56.5 -15q6 0 6 -4.5t-6 -4.5q-16 0 -56.5 1t-46.5 1t-45 -1t-55 -1q-6 0 -6 4.5t6 4.5q43 0 52 16t9 85q-1 321 -1 325v10h-41q-14 0 -14 5l35 47h27
q24 106 115 179t178 73q39 0 70.5 -8t31.5 -18q0 -15 -16 -33t-38 -18q-13 0 -62 9.5t-82 9.5q-59 0 -93.5 -42.5t-35.5 -151.5zM458 503l1 -454q-2 -60 -28 -111t-78 -115q-68 -84 -107 -84q-8 0 -18 2q-22 5 -22 18q0 14 12.5 31t28.5 21q6 2 16 2q12 0 29 -0.5t19 -0.5
q22 0 32 12q12 14 17 21t14.5 55t9.5 122v355q0 54 -13 65.5t-53 2.5q-6 -1 -7.5 3t4.5 5q63 14 125 57q2 2 10 -1t8 -6z" />
    <glyph glyph-name="f_k" unicode="fk" horiz-adv-x="862" 
d="M870 0h-94q-23 0 -38 10q-33 21 -98 133l-82 137l-103 -105v-166h61q6 0 6 -4.5t-6 -4.5q-3 0 -43.5 1t-49.5 1t-48 -1t-55 -1q-6 0 -6 4.5t6 4.5q24 0 33.5 1.5t17 14t8.5 32t1 62.5v568q0 6 -18 14.5t-48 15t-58 6.5q-106 0 -106 -226h99q35 0 35 -1q0 -3 -6.5 -10
t-20 -21.5t-20.5 -21.5q-14 0 -42 0.5t-45 0.5l1 -334q0 -71 10.5 -86t56.5 -15q6 0 6 -4.5t-6 -4.5q-16 0 -56.5 1t-46.5 1t-45 -1t-55 -1q-6 0 -6 4.5t6 4.5q43 0 52 16t9 85v26v59t-0.5 81.5t-0.5 77v62.5t0 22v7h-41q-14 0 -14 5l35 47h25q16 91 72 162.5t128 100.5
q32 13 64 13q12 0 32 -6t21 -6q28 12 48 48q1 2 5.5 1.5t4.5 -4.5v-619l157 162q85 88 63 125q-9 16 -38 16q-3 0 -4.5 2t0 4.5t4.5 2.5q15 0 55 -1t45 -1q8 0 57 1t52 1t4.5 -2.5t0 -4.5t-4.5 -2q-46 0 -100 -35.5t-127 -111.5l-13 -13l97 -154q57 -92 96.5 -129.5
t70.5 -37.5q5 0 6 -4q-1 -4 -6 -5z" />
    <glyph glyph-name="fi" unicode="fi" horiz-adv-x="536" 
d="M150 497h99q35 0 35 -1q0 -3 -6.5 -10t-20 -21.5t-20.5 -21.5q-14 0 -42 0.5t-45 0.5l1 -334q0 -71 10.5 -86t56.5 -15q6 0 6 -4.5t-6 -4.5q-16 0 -56.5 1t-46.5 1t-45 -1t-55 -1q-6 0 -6 4.5t6 4.5q43 0 52 16t9 85q-1 321 -1 325v10h-41q-14 0 -14 5l35 47h27
q24 106 115 179t178 73q39 0 70.5 -8t31.5 -18q0 -15 -16 -33t-38 -18q-13 0 -62 9.5t-82 9.5q-59 0 -93.5 -42.5t-35.5 -151.5zM382 110v267q0 55 -12 66t-52 2q-6 -1 -7.5 3t4.5 5q63 14 125 57q2 2 10 -1t8 -6v-393q0 -67 10 -84t53 -17q6 0 6 -4.5t-6 -4.5
q-16 0 -54.5 1t-44.5 1t-47 -1t-57 -1q-6 0 -6 4.5t6 4.5q43 0 53.5 17.5t10.5 83.5z" />
    <glyph glyph-name="fl" unicode="fl" horiz-adv-x="527" 
d="M150 497h99q35 0 35 -1q0 -3 -6.5 -10t-20 -21.5t-20.5 -21.5q-14 0 -42 0.5t-45 0.5l1 -334q0 -71 10.5 -86t56.5 -15q6 0 6 -4.5t-6 -4.5q-16 0 -56.5 1t-46.5 1t-45 -1t-55 -1q-6 0 -6 4.5t6 4.5q43 0 52 16t9 85v26v59t-0.5 81.5t-0.5 77v62.5t0 22v7h-41
q-14 0 -14 5l35 47h25q16 91 72 162.5t128 100.5q32 13 64 13q12 0 32 -6t21 -6q28 12 48 48q1 2 5.5 1.5t4.5 -4.5v-687q0 -69 10.5 -89.5t52.5 -20.5q6 0 6 -4.5t-6 -4.5q-15 0 -50 1t-45 1q-9 0 -48 -1t-55 -1q-6 0 -6 4.5t6 4.5q24 0 33.5 1.5t17 14t8.5 32t1 62.5v568
q0 6 -18 14.5t-48 15t-58 6.5q-106 0 -106 -226z" />
    <glyph glyph-name="g_g" unicode="gg" horiz-adv-x="985" 
d="M465 484q-10 0 -82 9t-113 9v-2q76 -10 119 -56.5t43 -114.5q0 -78 -59.5 -125t-151.5 -47h-18q-50 -3 -84 -17t-34 -37q0 -27 30.5 -35t102.5 -8h89q78 0 119.5 -33.5t41.5 -81.5q0 -59 -47 -117t-119.5 -93t-145.5 -35q-164 -1 -164 123q0 54 50.5 102t116.5 71
q-64 2 -95.5 17.5t-31.5 50.5q0 33 40.5 60.5t101.5 36.5q-66 12 -103.5 54.5t-37.5 111.5q0 76 60.5 128.5t148.5 52.5q58 0 147 19t92 19q29 0 29 -15t-13 -31t-32 -16zM948 484q-10 0 -82 9t-113 9v-2q76 -10 119 -56.5t43 -114.5q0 -78 -59.5 -125t-151.5 -47h-18
q-50 -3 -84 -17t-34 -37q0 -27 30.5 -35t102.5 -8h106q91 0 133 -33t42 -81q0 -64 -49.5 -122t-122.5 -91t-144 -32q-72 -1 -112.5 32t-40.5 91q0 54 50.5 101.5t117.5 70.5h-5q-161 0 -161 68q0 33 40.5 60.5t101.5 36.5q-66 12 -103.5 54.5t-37.5 111.5q0 76 60.5 128.5
t148.5 52.5q58 0 147 19t92 19q29 0 29 -15t-13 -31t-32 -16zM216 -245h4q100 0 159.5 43t59.5 104q0 48 -40 71t-127 23h-91q-65 -20 -105 -56t-40 -78q0 -52 47.5 -79.5t132.5 -27.5zM725 -244h5q93 0 158 40.5t65 106.5q0 49 -43 71t-144 22h-63q-66 -19 -106 -55
t-40 -78q0 -53 44 -80t124 -27zM232 167q61 0 93.5 41.5t32.5 120.5q0 68 -33 118.5t-89 50.5q-128 0 -128 -160q0 -76 32 -123.5t92 -47.5zM715 167q61 0 93.5 41.5t32.5 120.5q0 68 -33 118.5t-89 50.5q-128 0 -128 -160q0 -76 32 -123.5t92 -47.5z" />
    <glyph glyph-name=".notdef" horiz-adv-x="850" 
d="M80 0v690h690v-690h-690zM94 14h662v662h-662v-662zM674 584l-239 -239l239 -239l-10 -10l-239 239l-239 -239l-10 10l239 239l-239 239l10 10l239 -239l239 239z" />
    <glyph glyph-name=".null" horiz-adv-x="0" 
 />
    <glyph glyph-name="nonmarkingreturn" horiz-adv-x="333" 
 />
    <glyph glyph-name="space" unicode=" " horiz-adv-x="309" 
 />
    <glyph glyph-name="exclam" unicode="!" horiz-adv-x="252" 
d="M68 54q0 24 17 41t41 17q23 0 40.5 -17.5t17.5 -40.5q0 -24 -17 -41t-41 -17q-25 0 -41.5 16.5t-16.5 41.5zM94 608v5q0 16 22.5 46.5t31.5 30.5q24 0 24 -35v-4q0 -43 -20.5 -219.5t-20.5 -268.5q0 -6 -4 -3q-2 1 -2 3q0 95 -15.5 256t-15.5 189z" />
    <glyph glyph-name="quotedbl" unicode="&#x22;" horiz-adv-x="281" 
d="M82 709q11 0 20 -8.5t9 -20.5q0 -6 -6.5 -48.5t-12.5 -102.5t-6 -106q0 -4 -2.5 -6t-5 0t-2.5 6q0 46 -5.5 106t-11 102.5t-5.5 48.5q0 12 8.5 20.5t19.5 8.5zM198 709q11 0 20 -8.5t9 -20.5q0 -6 -6.5 -48.5t-12.5 -102.5t-6 -106q0 -4 -2.5 -6t-5 0t-2.5 6
q0 46 -5.5 106t-11 102.5t-5.5 48.5q0 12 8.5 20.5t19.5 8.5z" />
    <glyph glyph-name="numbersign" unicode="#" horiz-adv-x="809" 
d="M537 351v-124q68 1 203 5q6 -8 7 -12.5t-1 -14.5q-116 10 -209 12q0 -68 4 -203q-3 -2 -5.5 -4.5t-4 -3.5l-3 -2t-3 -1h-4t-5.5 1q2 57 5.5 121t4.5 93q-35 1 -121 1q-29 0 -72 -0.5t-59 -0.5q0 -69 4 -204q-3 -2 -5.5 -4.5t-4 -3.5l-3 -2t-3 -1h-4t-5.5 1
q2 56 5.5 120.5t4.5 92.5q-37 -1 -100.5 -3t-94.5 -3q-2 3 -4.5 5.5t-3.5 4l-2 3t-1 3v4t1 5.5q128 -8 205 -9q2 66 2 123q0 93 -1 128q-38 -1 -101 -3t-95 -3q-2 3 -4.5 5.5t-3.5 4l-2 3t-1 3v4t1 5.5q130 -8 206 -9l-3 193q8 6 12.5 7t14.5 -1q-11 -169 -12 -199
q36 -1 128 -1h123l-3 194q8 6 12.5 7t14.5 -1q-11 -168 -12 -200q65 1 201 5q6 -8 7 -12.5t-1 -14.5q-116 10 -208 12q-1 -33 -1 -126zM405 479q-29 0 -71.5 -0.5t-58.5 -0.5q-1 -34 -1 -127v-124h252q2 66 2 123q0 93 -1 128q-35 1 -122 1z" />
    <glyph glyph-name="dollar" unicode="$" horiz-adv-x="561" 
d="M53 513q0 86 62 137t156 53q-1 26 -1 78q9 7 11.5 7.5t12.5 -1.5q-2 -28 -4 -84q22 0 43 -1.5t34 -2.5t33.5 -5t26.5 -5t29 -6t26 -6q10 -3 11 -11t-0.5 -46.5t-3.5 -87t-2 -71.5q0 -9 -5 -9t-5 9q0 218 -187 232q-5 -162 -5 -297q111 -50 148 -77q78 -56 78 -137
q0 -88 -61 -145.5t-163 -57.5h-1q0 -27 2 -85q-8 -14 -24 -10l3 95q-28 1 -49.5 2.5t-43.5 5t-31.5 5.5t-35.5 8.5t-33 8.5q-12 4 -13 13q-1 10 0.5 50.5t3.5 93.5t2 80q0 5 2.5 7t5 0t2.5 -7q0 -113 47 -180.5t144 -75.5q5 193 5 333q-7 3 -34.5 15.5t-36.5 16.5
t-32.5 15.5t-32.5 18.5t-26.5 19t-24.5 22t-16.5 23.5t-13 28.5t-3.5 31zM286 -11h9q73 0 114.5 41t41.5 105q0 65 -43.5 105.5t-123.5 77.5q0 -217 2 -329zM116 560q0 -54 40 -88.5t117 -69.5q0 108 -2 292h-2q-73 0 -113 -37.5t-40 -96.5z" />
    <glyph glyph-name="percent" unicode="%" horiz-adv-x="777" 
d="M384 340q-48 -57 -274 -341q-29 -6 -41 0q117 129 303 343q103 125 283 350q20 4 35 -2q-133 -142 -306 -350zM473 297q18 13 54 28.5t61 15.5q75 0 110.5 -39t35.5 -119q0 -47 -23 -84.5t-52 -56.5q-68 -49 -116 -49q-143 0 -143 154q0 50 22 89t51 61zM478 290
q-20 -30 -20 -119q0 -140 119 -140q44 0 76 16q21 23 21 120q0 72 -27 105.5t-89 33.5q-54 0 -80 -16zM113 655q18 13 54 28.5t61 15.5q75 0 110.5 -39t35.5 -119q0 -47 -23 -84.5t-52 -56.5q-68 -49 -116 -49q-143 0 -143 154q0 50 22 89t51 61zM118 648q-20 -30 -20 -119
q0 -140 119 -140q44 0 76 16q21 23 21 120q0 72 -27 105.5t-89 33.5q-54 0 -80 -16z" />
    <glyph glyph-name="ampersand" unicode="&#x26;" horiz-adv-x="839" 
d="M598 -2q-57 0 -194 137q-24 -42 -84 -91t-112 -49t-98.5 50t-46.5 104q0 55 54.5 109t116.5 62l3 -2q-104 128 -104 183q0 88 52.5 140t134.5 54q37 1 97 -13t75 -25q-10 -90 -10 -172q0 -12 -5.5 -12t-5.5 12q-7 91 -44.5 146.5t-107.5 55.5q-62 0 -96.5 -32t-34.5 -89
q0 -37 31 -90t65 -94t97 -111q104 -115 180 -174.5t115 -59.5q26 0 38 44t12 107q0 105 -32 149l-112 1q-86 0 -108 -3q-4 -1 -5.5 0t1.5 5q6 7 18 23.5t19.5 25.5t11.5 9h138q54 0 90 6q6 1 7.5 -0.5t-3.5 -5.5q-13 -10 -27.5 -32t-19.5 -28q91 -69 91 -156
q0 -60 -66.5 -122t-130.5 -62zM313 231q-45 48 -72 83q-63 -16 -89 -41t-29 -75q3 -58 50.5 -104.5t89.5 -46.5q39 0 73.5 25.5t59.5 69.5q-23 23 -83 89z" />
    <glyph glyph-name="quotesingle" unicode="'" horiz-adv-x="164" 
d="M82 709q11 0 20 -8.5t9 -20.5q0 -6 -6.5 -48.5t-12.5 -102.5t-6 -106q0 -4 -2.5 -6t-5 0t-2.5 6q0 46 -5.5 106t-11 102.5t-5.5 48.5q0 12 8.5 20.5t19.5 8.5z" />
    <glyph glyph-name="parenleft" unicode="(" horiz-adv-x="400" 
d="M102 262q0 157 72.5 302.5t187.5 224.5q9 6 13 -1q2 -4 -3 -8q-108 -77 -173.5 -220t-65.5 -298q0 -157 63 -302.5t170 -221.5q7 -6 1 -10q-5 -2 -10 1q-114 78 -184.5 226t-70.5 307z" />
    <glyph glyph-name="parenright" unicode=")" horiz-adv-x="400" 
d="M298 262q0 -159 -70.5 -307t-184.5 -226q-7 -5 -12 1q-3 4 3 8q107 76 170 221.5t63 302.5q0 155 -65.5 298t-173.5 220q-8 7 0 10q5 2 10 -1q115 -79 187.5 -224.5t72.5 -302.5z" />
    <glyph glyph-name="asterisk" unicode="*" horiz-adv-x="351" 
d="M145 430q0 1 6 21.5t12.5 48t7.5 42.5q-13 -8 -33.5 -27t-35.5 -35l-16 -16q-19 -9 -33.5 -7.5t-19.5 8.5q-4 8 2.5 23t23.5 24q1 0 22 5.5t47 13t40 15.5q-14 8 -40 15.5t-47 13t-22 5.5q-17 9 -23.5 24t-2.5 22q5 8 19.5 9.5t33.5 -7.5q1 -1 16 -16.5t35.5 -35
t33.5 -27.5q-1 16 -7.5 43t-12.5 48t-6 22q0 19 9.5 32t18.5 13t18.5 -13t9.5 -32q0 -1 -6.5 -22t-13 -48t-6.5 -43q13 8 33.5 27.5t35.5 35.5t16 16q19 9 33.5 7.5t19.5 -9.5q4 -7 -2.5 -22t-23.5 -24q-1 0 -21.5 -5t-47.5 -13.5t-41 -15.5q14 -7 41 -15.5t47.5 -13.5
t21.5 -5q17 -9 23.5 -24t2.5 -23q-5 -7 -19.5 -8.5t-33.5 7.5q-1 0 -16 15.5t-35.5 35t-33.5 27.5q0 -15 6.5 -42.5t12.5 -48.5l7 -21q0 -19 -9.5 -32t-18.5 -13t-18.5 13t-9.5 32z" />
    <glyph glyph-name="plus" unicode="+" 
d="M268 416q4 5 12.5 5t11.5 -5q-7 -93 -7 -165q67 0 163 6q5 -4 5 -12.5t-5 -11.5q-93 7 -163 7q0 -73 7 -164q-3 -5 -11.5 -5t-12.5 5q3 48 3 164q-72 0 -163 -7q-5 3 -5 11.5t5 12.5q94 -6 163 -6q0 117 -3 165z" />
    <glyph glyph-name="comma" unicode="," horiz-adv-x="269" 
d="M116 -123q-4 -2 -5.5 -0.5t2.5 4.5q61 35 61 110q0 18 -6 33q-13 -24 -43 -24q-22 0 -37 15t-15 37q0 24 16.5 41t43.5 17q33 0 52 -27.5t19 -74.5q0 -41 -29.5 -77.5t-58.5 -53.5z" />
    <glyph glyph-name="hyphen" unicode="-" horiz-adv-x="538" 
d="M272 251q102 0 198 6q6 -4 6 -12.5t-5 -11.5q-96 7 -199 7q-108 0 -201 -7q-6 3 -5.5 11.5t4.5 12.5q100 -6 202 -6z" />
    <glyph glyph-name="period" unicode="." horiz-adv-x="252" 
d="M68 54q0 24 17 41t41 17q23 0 40.5 -17.5t17.5 -40.5q0 -24 -17 -41t-41 -17q-25 0 -41.5 16.5t-16.5 41.5z" />
    <glyph glyph-name="slash" unicode="/" horiz-adv-x="356" 
d="M188 247q-143 -349 -208 -518q-3 -1 -6.5 -2t-4.5 -1.5t-3 -1t-3 0t-3 1t-3.5 1.5l-4.5 3q64 139 223 521q153 382 212 531q14 4 28 -4q-77 -160 -227 -531z" />
    <glyph glyph-name="zero" unicode="0" horiz-adv-x="706" 
d="M344 -10q-289 0 -289 351q0 201 128 296q32 24 86.5 45t96.5 21q150 0 219 -88t69 -262q0 -102 -42.5 -184.5t-96.5 -120.5q-82 -58 -171 -58zM381 29q82 0 130 24q40 42 55.5 113t15.5 181q0 319 -245 319q-88 0 -149 -33q-60 -66 -60 -283q0 -151 63.5 -236t189.5 -85z
" />
    <glyph glyph-name="one" unicode="1" horiz-adv-x="257" 
d="M30 9q42 0 52 28.5t10 123.5v395q0 32 -4.5 44.5t-21 17t-49.5 -9.5q-4 -1 -6.5 0.5t-2 5t4.5 4.5q61 20 135 80q2 2 10 -0.5t8 -6.5v-530q0 -95 10.5 -123.5t54.5 -28.5h17q4 0 4 -4.5t-4 -4.5q-16 0 -61.5 2t-51.5 2t-55 -2t-65 -2q-5 0 -5 4.5t5 4.5h15z" />
    <glyph glyph-name="two" unicode="2" horiz-adv-x="602" 
d="M219 -1q-29 0 -69.5 -0.5t-70.5 -1.5t-34 -1q-3 34 2 38q107 89 217 190q106 99 149.5 166t43.5 148q0 74 -39.5 117.5t-117.5 43.5q-117 0 -164 -68t-47 -249q0 -4 -2.5 -6t-4.5 0t-2 6q0 68 -10 161t-10 94q0 21 11 22q9 3 37.5 11.5t40 12t37 9.5t42.5 8.5t41 5
t47 2.5q105 0 164.5 -44.5t59.5 -123.5q0 -16 -4 -32t-14 -33.5t-19 -32.5t-28 -35t-32 -34t-38.5 -37t-41 -37t-46.5 -41t-47 -41q-88 -78 -165 -155q226 0 303 2q61 1 95.5 29.5t43.5 93.5l10 68q0 3 3 4t5.5 -0.5t2.5 -4.5l-10 -69q-24 -175 -31 -184q-4 -4 -44 -4
q-10 0 -124 1t-140 1z" />
    <glyph glyph-name="three" unicode="3" horiz-adv-x="565" 
d="M75 2q-9 2 -10 5q0 3 3 4h5q63 -10 119 -10q249 0 249 215q0 62 -41.5 105.5t-96.5 43.5q-28 0 -58 -19.5t-51.5 -39t-30.5 -19.5q-11 0 -13.5 10t-0.5 18.5t3 11.5q113 36 180.5 97t67.5 134q0 64 -34.5 102t-106.5 38q-84 0 -134.5 -64.5t-50.5 -195.5q0 -4 -2 -6
t-4.5 0t-2.5 6q0 52 -2 98.5t-4 73t-2 29.5q0 21 11 22q139 48 223 48q85 0 138 -37.5t54 -97.5q0 -28 -16.5 -55t-51.5 -54.5t-67.5 -48.5t-86.5 -52q54 18 85 18q79 0 128 -47.5t49 -127.5q0 -94 -67.5 -158t-199.5 -64q-99 0 -181 17z" />
    <glyph glyph-name="four" unicode="4" horiz-adv-x="603" 
d="M362 274h78q118 2 135 115l6 38q0 3 3 4t5 -0.5t2 -4.5l-6 -39q-24 -153 -28 -162q-3 -5 -57 -5h-138v-89q0 -88 12.5 -104t85.5 -17q4 0 4 -4.5t-4 -4.5q-16 0 -70.5 1t-60.5 1t-70 -1t-80 -1q-5 0 -5 4.5t5 4.5q84 2 99.5 18t15.5 103v89h-214q-24 0 -57 -3
q-14 -1 -13 6q1 10 32 48q89 109 140 183.5t151 232.5q12 20 27 23q28 8 39 1.5t2 -25.5q-4 -8 -15 -24.5t-17.5 -32t-6.5 -34.5v-321zM58 274h236v286q-37 -45 -109.5 -132.5t-126.5 -153.5z" />
    <glyph glyph-name="five" unicode="5" horiz-adv-x="559" 
d="M509 206q0 -97 -68.5 -159t-193.5 -62q-77 0 -159 17q-9 2 -10 5q0 3 3 4h5q63 -10 127 -10q109 0 162.5 59.5t53.5 148.5q0 73 -50.5 124t-131.5 51q-47 0 -85.5 -20t-89.5 -62q-4 -2 -9.5 1t-5.5 8l3 328q0 6 33 29t39 23q7 0 72 -1t91 -1h156q43 0 43 -4t-8.5 -62.5
t-10.5 -92.5l-5 -71q0 -3 -2 -4.5t-4.5 -0.5t-2.5 4l5 72q4 61 -18.5 81t-97.5 21h-222l-18 -292q92 73 174 73q107 0 166 -57.5t59 -149.5z" />
    <glyph glyph-name="six" unicode="6" horiz-adv-x="571" 
d="M40 268q0 72 36.5 153.5t115.5 159.5t184 117q5 2 7 -1t-3 -5q-71 -28 -124 -78t-81 -108.5t-41 -114.5t-13 -111q0 -107 58.5 -188t129.5 -81q61 0 98 22q26 38 37 75t11 92q0 89 -53.5 139t-123.5 50q-25 0 -60 -13t-58 -34q-5 -3 -6 0q-1 2 1 4q31 31 78.5 55t83.5 24
q93 0 152.5 -52t59.5 -156q0 -90 -81 -171q-105 -59 -169 -59q-97 0 -168 73t-71 208z" />
    <glyph glyph-name="seven" unicode="7" horiz-adv-x="542" 
d="M224 1q-6 0 -60.5 -1t-68.5 -1q-5 0 -6 4q0 5 7 5h28q36 0 73.5 44t88.5 155l70 153q92 205 110 249h-273q-83 -1 -105.5 -16.5t-26.5 -81.5l-6 -100q0 -8 -5.5 -7.5t-4.5 8.5l7 99q2 34 4 102t2 69q0 4 41 4h134q25 0 139 1t120 1q4 0 7 -33.5t0 -37.5
q-76 -141 -133 -261l-70 -154q-34 -76 -34 -138q0 -57 65 -57q9 0 20 1l11 2q6 0 6 -6q0 -5 -12 -5q-9 0 -65 1t-63 1z" />
    <glyph glyph-name="eight" unicode="8" horiz-adv-x="574" 
d="M82 527q0 89 82 140q25 14 66 28t68 14q88 0 134.5 -42t46.5 -105q0 -28 -12.5 -54.5t-39 -52t-42.5 -38.5t-47 -35q80 -44 123.5 -85t43.5 -96q0 -103 -94 -161q-25 -14 -73 -32t-79 -18q-104 0 -159.5 51.5t-55.5 122.5q0 63 48.5 115.5t111.5 87.5q-58 34 -90 71
t-32 89zM304 27q64 0 104 17q25 29 33 48t8 49q0 28 -11 53t-26.5 42.5t-43 37t-48.5 31t-56.5 30t-53.5 28.5q-97 -62 -97 -168q0 -75 52 -121.5t139 -46.5zM410 552q0 127 -151 127q-64 0 -92 -16q-31 -48 -31 -97q0 -35 29.5 -68.5t55.5 -50t89 -50.5q15 -9 23 -13
q77 75 77 168z" />
    <glyph glyph-name="nine" unicode="9" horiz-adv-x="578" 
d="M529 414q0 -48 -21 -107t-60.5 -121t-107.5 -117.5t-151 -87.5q-5 -2 -7 1t3 5q76 30 130 83t80 116t37 117t12 109q2 111 -52 187.5t-136 76.5q-58 0 -95 -22q-28 -40 -40.5 -77t-12.5 -90q0 -90 50 -140t118 -50q28 0 61.5 13t56.5 34q5 3 6 0q1 -2 -1 -4
q-32 -32 -79.5 -56.5t-84.5 -24.5q-91 0 -145.5 51.5t-54.5 156.5q0 94 80 174q105 59 171 59q102 0 172.5 -75t70.5 -211z" />
    <glyph glyph-name="colon" unicode=":" horiz-adv-x="252" 
d="M68 54q0 24 17 41t41 17q23 0 40.5 -17.5t17.5 -40.5q0 -24 -17 -41t-41 -17q-25 0 -41.5 16.5t-16.5 41.5zM68 360q0 24 17 41t41 17q23 0 40.5 -17.5t17.5 -40.5q0 -24 -17 -41t-41 -17q-25 0 -41.5 16.5t-16.5 41.5z" />
    <glyph glyph-name="semicolon" unicode=";" horiz-adv-x="269" 
d="M116 -123q-4 -2 -5.5 -0.5t2.5 4.5q61 35 61 110q0 18 -6 33q-13 -24 -43 -24q-22 0 -37 15t-15 37q0 24 16.5 41t43.5 17q33 0 52 -27.5t19 -74.5q0 -41 -29.5 -77.5t-58.5 -53.5zM68 360q0 24 17 41t41 17q23 0 40.5 -17.5t17.5 -40.5q0 -24 -17 -41t-41 -17
q-25 0 -41.5 16.5t-16.5 41.5z" />
    <glyph glyph-name="less" unicode="&#x3c;" 
d="M278 181q96 -41 150 -59q4 -15 -7 -20q-29 15 -150 68l-148 67q-1 0 -1 6t1 6q11 5 59.5 27t90.5 41q93 41 143 68q11 -7 8 -20q-20 -7 -146 -60q-43 -19 -136 -62q25 -12 66.5 -30.5t69.5 -31.5z" />
    <glyph glyph-name="equal" unicode="=" 
d="M280 317q-156 0 -172 -1q-9 8 -5 22q64 -7 176 -7q106 0 171 4q8 -10 3 -24q-19 3 -40.5 4.5t-34 2t-47 0t-51.5 -0.5zM280 162q-156 0 -172 -1q-5 1 -6.5 8.5t1.5 13.5q64 -7 176 -7q106 0 171 4q11 -8 3 -24q-19 3 -40.5 4.5t-34 2t-47 0t-51.5 -0.5z" />
    <glyph glyph-name="greater" unicode="&#x3e;" 
d="M284 307q-109 47 -146 59q-4 15 7 20q49 -26 146 -68l148 -67q1 0 1 -6t-1 -6q-11 -5 -59.5 -27t-90.5 -41q-90 -39 -146 -70q-11 7 -8 20q13 4 149 62q91 40 135 61q-19 10 -37.5 18.5t-45.5 20.5t-52 24z" />
    <glyph glyph-name="question" unicode="?" horiz-adv-x="395" 
d="M120 54q0 24 17 41t42 17q23 0 40 -17.5t17 -40.5q0 -24 -17 -41t-41 -17q-25 0 -41.5 16.5t-16.5 41.5zM131 341q0 8 8 11q81 40 116.5 77.5t34.5 90.5q-1 57 -53 88.5t-151 31.5q-6 0 -6 6q0 5 7 28.5t15 52.5t11 42q2 5 5 3q1 -2 1 -4q-9 -56 -9 -57q1 -4 18 -4
q98 0 153 -43.5t55 -102.5q0 -58 -43 -111t-97 -79q0 -8 5 -73.5t4 -71.5q0 -2 -18 -13.5t-36.5 -20.5t-18.5 -7q-1 6 -1 156z" />
    <glyph glyph-name="at" unicode="@" horiz-adv-x="977" 
d="M790 -83l3 -2q-58 -57 -140.5 -96t-172.5 -39q-185 0 -306.5 104t-121.5 286q0 108 46.5 203t120.5 157.5t163 98t176 35.5q78 0 142 -22t105 -56t69.5 -77.5t41 -84t12.5 -77.5q0 -144 -93 -245t-225 -101q-8 0 -33 7t-29 11q-24 27 -27 71q-3 46 70 173
q-117 -137 -244 -245q-6 -5 -22 -4t-19 4q-32 23 -35 88t24 128q39 95 128 158.5t153 63.5q31 0 51 -12t59 -55q30 28 60 61q5 4 7.5 4t2.5 -2l1 -3q-48 -60 -110 -184.5t-59 -173.5q1 -12 19.5 -39.5t30.5 -31.5q106 0 187 89t81 226q0 47 -20.5 98.5t-61 101t-113.5 82
t-165 32.5q-84 0 -168 -34t-151.5 -92t-110 -144t-42.5 -183q0 -98 32.5 -174.5t90.5 -124t134 -72t166 -24.5q76 0 157.5 35.5t135.5 80.5zM360 60q31 9 124 104.5t156 182.5q-45 53 -65.5 69t-44.5 16q-46 0 -96.5 -54.5t-75.5 -132.5q-19 -64 -18 -113.5t20 -71.5z" />
    <glyph glyph-name="A" unicode="A" horiz-adv-x="711" 
d="M465 248l-117 -3q-89 0 -179 3l-17 -42q-36 -89 -36 -149q0 -49 56 -49q4 0 15 1.5t13 1.5q7 0 7 -5q0 -6 -12 -6q-9 0 -57.5 1t-56.5 1q-5 0 -37 -1t-46 -1q-6 0 -6 5q0 4 6 4h4q40 0 72 60q35 59 66 142l193 482q1 3 7 3h10q8 0 10 -3l182 -434q51 -120 77 -170.5
t42.5 -65t42.5 -14.5h8q7 0 7 -4q0 -5 -6 -5q-16 0 -55.5 1.5t-45.5 1.5t-55.5 -1.5t-65.5 -1.5q-7 0 -8 5q2 3 5 4h21q28 0 30 19q5 35 -74 220zM460 259l-149 349l-139 -351l170 1h118v1z" />
    <glyph glyph-name="B" unicode="B" horiz-adv-x="605" 
d="M19 0q-6 0 -6 4.5t6 4.5h18q21 0 29.5 3.5t15.5 30.5t8 72t1 144v175q0 99 -1 144t-8 72t-15.5 30.5t-29.5 3.5h-18q-6 0 -6 4.5t6 4.5q16 0 60.5 -1.5t50.5 -1.5t81 1.5t85 1.5q132 0 197.5 -37t65.5 -126q0 -72 -55 -113t-149 -53q102 -9 164.5 -53.5t62.5 -121.5
q0 -189 -260 -189q-9 0 -97.5 1.5t-94.5 1.5t-50.5 -1.5t-60.5 -1.5zM222 9h85q99 0 144.5 44t45.5 136q0 85 -47 126t-153 41h-127v-97q0 -182 7.5 -216t44.5 -34zM170 434v-67h114q96 0 143 38t47 126q0 86 -46 118t-147 32h-72q-30 0 -35.5 -18.5t-4.5 -123.5
q1 -63 1 -105z" />
    <glyph glyph-name="C" unicode="C" horiz-adv-x="756" 
d="M133 346q0 -156 76.5 -251t210.5 -95q234 0 261 267h8l-12 -233q-99 -44 -255 -44q-162 0 -270.5 101.5t-108.5 254.5q0 154 112.5 255.5t270.5 101.5q63 0 135.5 -13t113.5 -31l12 -218h-9q-25 252 -250 252q-134 0 -214.5 -95.5t-80.5 -251.5z" />
    <glyph glyph-name="D" unicode="D" horiz-adv-x="733" 
d="M601 346q0 154 -80.5 246t-214.5 92h-66q-51 0 -60 -33t-9 -217v-273q0 -113 -8 -147q9 0 67.5 -2t83.5 -2q135 0 211 90.5t76 245.5zM690 346q0 -152 -107.5 -249t-270.5 -97l-155 3l-141 -3q-6 0 -7 3q3 3 7 4q32 0 44.5 7.5t19.5 34t11 91.5q2 31 2.5 81t-0.5 107
t-1 65q0 22 -1.5 96.5t-1.5 103.5q0 67 -9 79t-57 12q-6 0 -6 4.5t6 4.5q3 0 58.5 -1t63.5 -1q6 0 76.5 1t86.5 1q159 0 270.5 -97t111.5 -250z" />
    <glyph glyph-name="E" unicode="E" horiz-adv-x="622" 
d="M171 434v-69h83q88 0 120 29t32 86v21q0 6 5 6t5 -6q0 -16 -2.5 -76t-2.5 -66q0 -7 2.5 -68t2.5 -69q0 -6 -5 -6t-5 6v15q0 57 -32 86.5t-120 29.5h-83v-192q0 -113 -8 -147q14 0 93.5 -1.5t95.5 -1.5q83 0 142 60.5t69 141.5l6 53q0 3 3 4t5.5 -0.5t2.5 -4.5l-6 -54
q-22 -199 -31 -207q-4 -4 -133 -4l-253 3l-141 -3q-6 0 -7 3q3 3 7 4q32 0 44.5 7.5t19.5 34t11 91.5q4 55 4 294q0 64 -0.5 104t-3.5 70t-6 44t-11.5 22t-15 9t-21.5 1h-18q-6 0 -6 4.5t6 4.5q16 0 60.5 -1.5t50.5 -1.5q4 0 167.5 1.5t184.5 1.5q39 0 47 -4q4 -2 29 -184
l4 -36q1 -5 -3.5 -5t-6.5 5l-5 36q-14 84 -69.5 129.5t-141.5 46.5h-127q-29 0 -34 -18.5t-4 -134.5v-94z" />
    <glyph glyph-name="F" unicode="F" horiz-adv-x="622" 
d="M134 3q-6 0 -48 -1.5t-58 -1.5q-6 0 -6 4.5t6 4.5h13q21 0 29.5 3.5t15.5 30.5t8 72t1 144v175q0 64 -0.5 104t-3.5 70t-6 44t-11.5 22t-15 9t-21.5 1h-18q-6 0 -6 4.5t6 4.5q9 0 52.5 -0.5t84.5 -0.5q109 0 188 1t114.5 1.5t41.5 0.5q36 0 53 -3q2 -2 4 -21.5t8 -79
t14 -127.5l8 -66q0 -3 -2.5 -4.5t-5.5 -0.5t-3 4l-8 65q-14 101 -67 160.5t-136 58.5h-156q-29 0 -34 -18.5t-4 -134.5v-94v-88h80q88 0 120 33t32 98v14q0 6 5 6t5 -6q0 -16 -2.5 -81t-2.5 -70q0 -8 2.5 -76t2.5 -76q0 -6 -5 -6t-5 6v16q0 65 -32 97.5t-120 32.5h-80v-75
q0 -99 1 -144t8 -72t15 -30.5t29 -3.5h37q6 0 6 -4.5t-6 -4.5q-16 0 -69 1.5t-58 1.5z" />
    <glyph glyph-name="G" unicode="G" horiz-adv-x="770" 
d="M428 693q-136 0 -215.5 -94.5t-79.5 -252.5q0 -156 76.5 -251t210.5 -95q103 0 201 56q3 6 3 130q0 92 -2 112q-23 6 -78 8q-90 4 -217 4q-4 0 -5 3q2 3 6 4q220 0 366 11q6 0 6 -8q-1 -95 -1 -322q0 -7 -8 -1q-37 30 -62 30q-14 0 -84.5 -18.5t-122.5 -18.5
q-162 0 -270.5 101.5t-108.5 254.5q0 154 112.5 255.5t270.5 101.5q63 0 135.5 -13t113.5 -31l12 -213q0 -4 -2 -6t-4.5 -0.5t-2.5 5.5q-24 248 -250 248z" />
    <glyph glyph-name="H" unicode="H" horiz-adv-x="696" 
d="M91 259v175q0 99 -1 144t-8 72t-15.5 30.5t-29.5 3.5h-13q-6 0 -6 4.5t6 4.5q16 0 58 -1.5t48 -1.5q5 0 50 1.5t61 1.5q6 0 6 -4.5t-6 -4.5h-20q-21 0 -29.5 -3.5t-15.5 -30.5t-8 -72t-1 -144v-80l184 2l178 -3v81q0 99 -1 144t-8 72t-15.5 30.5t-29.5 3.5h-21
q-6 0 -6 4.5t6 4.5q16 0 61 -1.5t51 -1.5t49 1.5t59 1.5q6 0 6 -4.5t-6 -4.5h-16q-21 0 -29 -3.5t-15 -30.5t-8 -72t-1 -144v-175q0 -99 1 -144t8 -72t15 -30.5t29 -3.5h16q6 0 6 -4.5t-6 -4.5q-16 0 -59 1.5t-49 1.5t-51 -1.5t-61 -1.5q-6 0 -6 4.5t6 4.5h21q21 0 29.5 3.5
t15.5 30.5t8 72t1 144v84l-177 -1q-109 0 -185 2v-85q0 -99 1 -144t8 -72t15.5 -30.5t29.5 -3.5h20q6 0 6 -4.5t-6 -4.5q-16 0 -61 1.5t-50 1.5q-6 0 -48 -1.5t-58 -1.5q-6 0 -6 4.5t6 4.5h13q21 0 29.5 3.5t15.5 30.5t8 72t1 144z" />
    <glyph glyph-name="I" unicode="I" horiz-adv-x="281" 
d="M102 259v175q0 99 -1 144t-8 72t-15.5 30.5t-29.5 3.5h-21q-6 0 -6 4.5t6 4.5q16 0 62.5 -1.5t51.5 -1.5q6 0 51.5 1.5t61.5 1.5q6 0 6 -4.5t-6 -4.5h-21q-21 0 -29.5 -3.5t-15.5 -30.5t-8 -72t-1 -144v-175q0 -99 1 -144t8 -72t15.5 -30.5t29.5 -3.5h21q6 0 6 -4.5
t-6 -4.5q-16 0 -61.5 1.5t-51.5 1.5q-5 0 -51.5 -1.5t-62.5 -1.5q-6 0 -6 4.5t6 4.5h21q21 0 29.5 3.5t15.5 30.5t8 72t1 144z" />
    <glyph glyph-name="J" unicode="J" horiz-adv-x="285" 
d="M188 434v-115q0 -13 0.5 -52.5t0.5 -53.5q0 -76 -7.5 -126t-31.5 -93t-47.5 -70t-76.5 -78q-19 -18 -47 -38t-38 -20q-11 0 -23 2q-27 7 -27 23q0 18 10 34.5t29 22.5q8 2 20 2q14 0 36.5 -0.5t25.5 -0.5q27 0 40 15q33 35 45.5 109.5t12.5 263.5v175q0 185 -7 217.5
t-46 32.5h-1h-26q-6 0 -6 4.5t6 4.5q16 0 65.5 -1.5t54.5 -1.5q6 0 52 1.5t62 1.5q6 0 6 -4.5t-6 -4.5h-20q-41 0 -48.5 -32t-7.5 -218z" />
    <glyph glyph-name="K" unicode="K" horiz-adv-x="668" 
d="M243 0q-3 0 -51 1t-56 1t-59.5 -1t-54.5 -1q-6 0 -6 4.5t6 4.5q34 0 46 2q17 17 20 90q3 83 3 200v133q0 99 -1 144t-8 72t-15.5 30.5t-29.5 3.5h-18q-6 0 -6 4.5t6 4.5q16 0 61.5 -1.5t51.5 -1.5q5 0 48.5 1.5t59.5 1.5q6 0 6 -4.5t-6 -4.5h-18q-21 0 -29.5 -3.5
t-16 -30t-8.5 -72.5t-1 -144v-140l180 194q116 125 116 172q-2 25 -39 25q-4 0 -13 -2t-10 -2q-9 0 -9 6t11 6q9 0 55 -1t54 -1q5 0 48.5 1t57.5 1q3 0 4.5 -2.5t0 -4.5t-4.5 -2h-2q-50 0 -91.5 -34t-168.5 -168l-96 -103q33 21 70 21t62 -13q18 -9 31.5 -21.5t25 -33
t18 -34t19.5 -46.5t20 -49q48 -120 75 -157t66 -37h12q8 0 9 -4q1 -5 -11 -5h-34q-20 0 -43.5 -2t-28.5 -2q-30 0 -50 24q-25 32 -69 151q-44 124 -70 163q-30 46 -64 46q-32 0 -63 -27l-68 -73v-21q0 -99 1 -144t8 -72t15.5 -30.5t29.5 -3.5h22q6 0 6 -4.5t-6 -4.5z" />
    <glyph glyph-name="L" unicode="L" horiz-adv-x="609" 
d="M171 434v-273q0 -113 -8 -147q14 0 94.5 -1.5t96.5 -1.5q81 0 138.5 72t68.5 157l10 91q0 3 3 4t5.5 -0.5t2.5 -4.5l-10 -92q-24 -224 -33 -232q-6 -6 -133 -6l-249 3l-141 -3q-6 0 -7 3q3 3 7 4q32 0 44.5 7.5t19.5 34t11 91.5q2 31 2.5 81t-0.5 107t-1 65
q0 22 -1.5 96.5t-1.5 103.5q0 67 -9 79t-57 12q-6 0 -6 4.5t6 4.5q3 0 58.5 -1t63.5 -1q6 0 56.5 1t66.5 1q6 0 6 -4.5t-6 -4.5h-28q-51 0 -60 -33t-9 -217z" />
    <glyph glyph-name="M" unicode="M" horiz-adv-x="855" 
d="M403 211h-9q-4 0 -8 7l-275 401l-1 -360q0 -71 6.5 -120.5t15.5 -74t25 -38t27.5 -15.5t30.5 -2h14q3 0 4.5 -2.5t0 -4.5t-4.5 -2q-17 -1 -73.5 1t-58.5 2q-6 0 -35.5 -1.5t-45.5 -1.5q-5 0 -5 4q1 4 6 5h6q27 1 40 12.5t23.5 68t10.5 169.5q0 64 0.5 194t0.5 151
q0 28 -13 43q-34 38 -65 38h-5q-3 0 -4.5 2t0 4t4.5 2q46 0 76 1.5t41 3.5l11 2q7 0 10 -6q11 -21 40 -62l241 -355l203 316q11 17 24 38.5t19 31.5t13 20t12 13.5t11 3.5q7 0 57 -3.5t59 -3.5q6 0 6 -4.5t-6 -4.5h-15q-21 0 -29.5 -3.5t-15.5 -30.5t-8 -72t-1 -144v-175
q0 -99 1 -144t8 -72t15.5 -30.5t29.5 -3.5h15q6 0 6 -4.5t-6 -4.5q-16 0 -59 1.5t-48 1.5q-6 0 -51 -1.5t-61 -1.5q-6 0 -6 4.5t6 4.5h20q21 0 29.5 3.5t15.5 30.5t8 72t1 144v354q0 21 -5 20q-5 -2 -34 -46l-236 -369q-4 -7 -9 -7z" />
    <glyph glyph-name="N" unicode="N" horiz-adv-x="716" 
d="M3 685h-4q-3 0 -4.5 2t0 4t4.5 2q46 0 81 1t52 2l16 1q7 0 10 -6q10 -19 39 -53l416 -517v313q0 71 -8 120.5t-18 74t-27.5 38t-29.5 15.5t-31 2h-14q-6 0 -6 4.5t6 4.5q16 0 72 -1.5t62 -1.5q5 0 33.5 1.5t44.5 1.5q6 0 6 -4.5t-6 -4.5h-7q-22 0 -31.5 -4.5t-18.5 -28.5
t-11.5 -74t-2.5 -143v-427q0 -10 -8 -10q-9 0 -25 22l-482 601l-1 -361q0 -71 6.5 -120.5t15.5 -74t25.5 -38t27.5 -15.5t30 -2h14q3 0 4.5 -2.5t0 -4.5t-4.5 -2q-17 -1 -73.5 1t-58.5 2q-6 0 -35.5 -1.5t-45.5 -1.5q-5 0 -5 4q1 4 6 5h6q27 1 40 12.5t23.5 68t10.5 169.5
l1 359q0 15 -16 31q-36 36 -79 36z" />
    <glyph glyph-name="O" unicode="O" horiz-adv-x="794" 
d="M43 346q0 153 105 255t250 102q144 0 248 -102.5t104 -254.5q0 -151 -107 -253.5t-251 -102.5q-143 0 -246 102.5t-103 253.5zM133 346q0 -157 67.5 -251.5t187.5 -94.5q122 0 197.5 96t75.5 250q0 157 -69 252t-190 95q-122 0 -195.5 -96t-73.5 -251z" />
    <glyph glyph-name="P" unicode="P" horiz-adv-x="613" 
d="M144 2q-8 0 -63.5 -1t-58.5 -1q-6 0 -6 4.5t6 4.5q16 0 46 2q17 17 20 90q3 83 3 200v133q0 99 -1 144t-8 72t-15.5 30.5t-29.5 3.5h-18q-6 0 -6 4.5t6 4.5q16 0 60.5 -1.5t50.5 -1.5t88 1.5t91 1.5q123 0 193.5 -50t70.5 -142t-72 -149t-186 -57q-50 1 -148 1v-36
q0 -121 5 -175t13.5 -65t28.5 -11h51q6 0 6 -4.5t-6 -4.5q-16 0 -65.5 1t-55.5 1zM167 533v-227h126q92 0 143 52.5t51 143.5q0 181 -193 181h-88q-28 0 -33.5 -20.5t-5.5 -129.5z" />
    <glyph glyph-name="Q" unicode="Q" horiz-adv-x="794" 
d="M43 351q0 151 105 251.5t249 100.5t248 -101t104 -251q0 -137 -93 -235.5t-224 -113.5q0 -87 19.5 -128t77.5 -41q41 0 82 81q2 4 6 4t6 -3t0 -7q-25 -44 -64.5 -73.5t-85.5 -29.5q-65 0 -95 47t-30 151q-129 16 -217 113.5t-88 234.5zM133 351q0 -155 67.5 -249
t187.5 -94q121 0 196.5 95.5t75.5 247.5q0 154 -69 248t-190 94q-122 0 -195 -94.5t-73 -247.5z" />
    <glyph glyph-name="R" unicode="R" horiz-adv-x="642" 
d="M132 2q-8 0 -57.5 -1t-52.5 -1q-6 0 -6 4.5t6 4.5q34 0 46 2q17 17 20 90q3 83 3 200v133q0 99 -1 144t-8 72t-15.5 30.5t-29.5 3.5h-18q-6 0 -6 4.5t6 4.5q16 0 60.5 -1.5t50.5 -1.5q7 0 60.5 1.5t62.5 1.5q256 0 256 -164q0 -60 -62.5 -103.5t-150.5 -58.5
q64 -2 100 -34t85 -130q61 -130 88.5 -162t74.5 -32h7q4 0 6 -2.5t0.5 -4.5t-6.5 -2h-36q-20 0 -42 -2t-27 -2q-30 0 -51 24q-37 42 -83 151q-23 53 -41 86t-34 54.5t-36 31t-40 13t-53 4.5h-41v-101q0 -99 1 -144t8 -72t15.5 -30.5t29.5 -3.5h20q6 0 6 -4.5t-6 -4.5
q-16 0 -60 1t-49 1zM167 533v-163q19 1 84 1q66 0 117.5 40t51.5 118q0 79 -41.5 117t-133.5 38h-39q-28 0 -33.5 -21t-5.5 -130z" />
    <glyph glyph-name="S" unicode="S" horiz-adv-x="561" 
d="M277 703q104 0 218 -26q10 -3 11 -11q1 -7 -0.5 -33.5t-3.5 -84.5t-2 -126q0 -6 -2.5 -8.5t-5 0t-2.5 8.5q1 64 -6.5 108.5t-29 84t-65.5 59t-112 19.5q-87 0 -129 -36t-42 -97q0 -20 7 -38.5t15 -31.5t28 -28t31 -23t40.5 -22t40 -18.5t44.5 -19.5q40 -16 63 -27
t54.5 -29.5t48.5 -37t30 -45.5t13 -58q0 -85 -63 -138.5t-155 -53.5q-121 0 -233 30q-10 2 -10 10q0 23 -0.5 127t-0.5 129q0 7 2.5 9.5t5.5 0t3 -9.5q0 -143 55.5 -214.5t177.5 -71.5q79 0 118.5 36.5t39.5 98.5q0 24 -7 44t-24 37.5t-30.5 29t-44 26.5t-45 22t-51.5 22
q-41 17 -64.5 27.5t-56.5 30t-50.5 37.5t-31 44.5t-13.5 57.5q0 87 67.5 138.5t166.5 51.5z" />
    <glyph glyph-name="T" unicode="T" horiz-adv-x="658" 
d="M368 694v-435q0 -99 1 -144t8 -72t15.5 -30.5t29.5 -3.5h18q6 0 6 -4.5t-6 -4.5q-16 0 -60.5 1.5t-49.5 1.5q-6 0 -50.5 -1.5t-60.5 -1.5q-6 0 -6 4.5t6 4.5h18q21 0 29.5 3.5t15.5 30.5t8 72t1 144v435q-28 -1 -82 -1q-76 0 -112.5 -50t-52.5 -154l-8 -57q-2 -6 -8 -5
q-3 1 -2 5l8 57q6 46 7.5 98.5t1.5 80t2 28.5q14 7 122 7q10 0 74 -1t88 -1q15 0 59 1t102 1h1q108 0 122 -7q2 -1 2 -28.5t2 -80t8 -98.5l7 -57q1 -4 -2 -5q-5 0 -7 5l-9 57q-16 104 -52.5 154t-113.5 51h-80z" />
    <glyph glyph-name="U" unicode="U" horiz-adv-x="665" 
d="M567 244v190q0 71 -7.5 120.5t-17.5 74t-27 38t-29 15.5t-31 2h-9q-6 0 -6 4.5t6 4.5q16 0 68.5 -1.5t58.5 -1.5t35 1.5t45 1.5q6 0 6 -4.5t-6 -4.5h-7q-28 0 -39 -10.5t-18.5 -64.5t-7.5 -175v-190q0 -105 -69 -179.5t-185 -74.5q-110 0 -174.5 70t-64.5 192v182
q0 99 -1 144t-8 72t-15 30.5t-29 3.5h-14q-6 0 -6 4.5t6 4.5q16 0 58 -1.5t48 -1.5q5 0 49.5 1.5t60.5 1.5q6 0 6 -4.5t-6 -4.5h-18q-21 0 -29.5 -3.5t-15.5 -30.5t-8.5 -72t-1.5 -144l-1 -155q0 -121 57.5 -189t156.5 -68q80 0 135 64.5t55 157.5z" />
    <glyph glyph-name="V" unicode="V" horiz-adv-x="692" 
d="M385 96q3 0 5 5l148 386q36 89 36 149q0 22 -15 35.5t-41 13.5q-4 0 -15 -2t-13 -2q-7 0 -7 6t12 6q9 0 57.5 -1t56.5 -1q5 0 37 1t46 1q7 0 4 -5q-1 -4 -6 -4h-2q-41 0 -72 -60q-31 -54 -67 -142l-184 -482q-1 -3 -7 -3h-10q-6 0 -8 3l-191 483q-28 65 -43 97
t-27.5 57.5t-23.5 33t-20 10.5t-27 3h-8q-7 0 -7 4q0 5 6 5q16 0 54.5 -1.5t44.5 -1.5t55.5 1.5t65.5 1.5q7 0 8 -5q-2 -3 -5 -4h-21q-32 0 -35 -18q-4 -31 67 -190l147 -375q2 -5 5 -5z" />
    <glyph glyph-name="W" unicode="W" horiz-adv-x="982" 
d="M371 96l115 254l-78 183q-35 79 -51 107t-28.5 36t-40.5 8h-8q-7 0 -7 4q0 5 6 5q16 0 54.5 -1.5t44.5 -1.5t50.5 1.5t60.5 1.5q6 0 6 -4.5t-6 -4.5h-8q-34 0 -34 -25q0 -36 41 -137l43 -100l41 100q30 70 30 115q0 48 -35 48q-5 0 -14 -1.5t-10 -1.5q-6 0 -6 5q0 6 11 6
q9 0 47 -1t46 -1q5 0 47 1t55 1q5 0 6 -4q-2 -4 -6 -5h-26q-37 0 -67 -38t-66 -128l-47 -111l136 -316q2 -5 5 -5q2 0 4 5l152 396q35 92 35 148q0 50 -51 50q-5 0 -16 -2t-12 -2q-7 0 -7 6t12 6q9 0 56.5 -1t55.5 -1q5 0 38 1t47 1q5 0 6 -4q-2 -4 -6 -5h-3
q-36 0 -68.5 -47.5t-73.5 -154.5l-187 -483q-2 -3 -7 -3h-10q-5 0 -7 3l-144 335l-150 -334q-2 -3 -6 -3h-8q-6 0 -8 3l-184 485q-39 100 -59 139t-35 49.5t-44 10.5h-2q-6 0 -6 4q0 5 5 5q16 0 51.5 -1.5t41.5 -1.5t65 1.5t75 1.5q7 0 7 -5q-1 -4 -6 -4h-26q-42 0 -44 -28
q0 -34 74 -222l129 -338q2 -5 5 -5q2 0 4 5z" />
    <glyph glyph-name="X" unicode="X" horiz-adv-x="683" 
d="M302 502l65 -103l69 95q80 109 80 161q0 29 -42 29q-5 0 -17.5 -1.5t-13.5 -1.5q-7 0 -5 5q2 6 14 6q8 0 62 -1t63 -1q6 0 38 1t46 1q4 0 5.5 -2t-0.5 -4.5t-5 -2.5h-2q-52 0 -96 -53q-48 -51 -116 -141l-74 -100l114 -181q60 -96 93 -139t49.5 -52t42.5 -9h9q8 0 8 -4
q0 -5 -6 -5q-17 0 -58 1.5t-46 1.5q-6 0 -58 -1.5t-69 -1.5q-8 0 -9 5q1 3 4 4h22q33 0 34 17q1 27 -94 172l-12 18l-76 121l-97 -134q-32 -43 -53.5 -85t-21.5 -62t13.5 -34t33.5 -14q10 0 28 3l18 2q7 0 5 -7q-2 -6 -15 -6q-10 0 -75 1t-73 1q-5 0 -38 -1t-48 -1
q-5 0 -6 4q0 5 7 5h7q40 0 80 41.5t120 149.5l6 9l102 139l-84 135q-50 80 -73.5 115t-44.5 57.5t-32 25.5t-34 3h-8q-9 0 -9 4q0 5 7 5q17 0 57 -1.5t46 -1.5q5 0 57 1.5t70 1.5q7 0 8 -5q-1 -3 -4 -4h-22q-30 0 -32 -15q-2 -28 86 -166z" />
    <glyph glyph-name="Y" unicode="Y" horiz-adv-x="615" 
d="M459 509l-110 -192v-58q0 -99 1 -144t8 -72t15.5 -30.5t29.5 -3.5h18q6 0 6 -4.5t-6 -4.5q-16 0 -59.5 1.5t-49.5 1.5q-5 0 -49.5 -1.5t-60.5 -1.5q-6 0 -6 4.5t6 4.5h18q21 0 29.5 3.5t15.5 30.5t8 72t1 144v55l-108 195q-60 108 -88.5 141.5t-65.5 33.5h-8q-7 0 -7 4
q0 5 6 5q16 0 54.5 -1.5t44.5 -1.5t55.5 1.5t65.5 1.5q7 0 8 -5q-2 -3 -5 -4h-21q-19 0 -25.5 -8t0 -31t21.5 -54t46 -87l95 -175l106 183q11 19 21.5 44t17.5 56t-5 52t-46 21q-5 0 -16 -2t-12 -2q-7 0 -7 6t12 6q9 0 53 -1t52 -1q5 0 50 1t59 1q7 0 4 -5q-1 -4 -6 -4h-2
q-26 0 -63.5 -38.5t-60.5 -73t-40 -63.5z" />
    <glyph glyph-name="Z" unicode="Z" horiz-adv-x="625" 
d="M83 505l-10 -106q0 -3 -3 -4.5t-6 0.5t-3 5l11 105q15 180 22 184q9 4 48 4q21 0 172.5 -1.5t155.5 -1.5q6 0 40.5 1.5t50.5 1.5q5 0 7.5 -0.5t5 -2.5t-1.5 -7l-443 -669q17 0 113.5 -1.5t111.5 -1.5q83 0 139.5 60.5t64.5 141.5l7 99q0 3 3 4.5t5 -0.5t2 -5l-6 -100
q-16 -199 -24 -207q-4 -4 -133 -4l-276 3l-98 -6q-10 0 0 16l441 668h-185q-88 -1 -144.5 -47t-66.5 -129z" />
    <glyph glyph-name="bracketleft" unicode="[" horiz-adv-x="400" 
d="M111 -270l3 516l-3 525q0 8 7 8q22 0 71.5 -0.5t75.5 -0.5q23 0 68.5 0.5t68.5 0.5q3 0 4.5 -2.5t0 -5t-4.5 -2.5q-26 -1 -75.5 0t-64.5 1h-115q-7 0 -7 -3l1 -521l-1 -512q0 -3 7 -3h115q15 0 64.5 1t75.5 0q3 0 4.5 -2.5t0 -5t-4.5 -2.5q-23 0 -68.5 0.5t-68.5 0.5
q-26 0 -75.5 -0.5t-71.5 -0.5q-7 0 -7 8z" />
    <glyph glyph-name="backslash" unicode="\" horiz-adv-x="356" 
d="M179 247q-150 371 -227 531q14 8 28 4q59 -149 212 -531q159 -382 223 -521q-11 -5 -12 -5t-16 4q-65 169 -208 518z" />
    <glyph glyph-name="bracketright" unicode="]" horiz-adv-x="400" 
d="M286 246l3 -516q0 -8 -7 -8q-22 0 -71.5 0.5t-75.5 0.5q-23 0 -68.5 -0.5t-68.5 -0.5q-3 0 -4.5 2.5t0 5t4.5 2.5q26 1 75.5 0t64.5 -1h115q7 0 7 3l-1 512l1 521q0 3 -7 3h-115q-15 0 -64.5 -1t-75.5 0q-3 0 -4.5 2.5t0 5t4.5 2.5q23 0 68.5 -0.5t68.5 -0.5
q26 0 75.5 0.5t71.5 0.5q7 0 7 -8z" />
    <glyph glyph-name="asciicircum" unicode="^" horiz-adv-x="809" 
d="M420 443q-4 4 -7 0l-82 -122q-14 -19 -34 -19q-9 0 -14.5 4.5t-5.5 9.5q0 10 18 29q57 59 117 107q4 4 9 0q72 -55 121 -97q20 -17 20 -29q0 -7 -6.5 -14t-16.5 -7q-20 0 -35 21q-10 15 -42 58.5t-42 58.5z" />
    <glyph glyph-name="underscore" unicode="_" horiz-adv-x="678" 
d="M337 -20q173 0 271 6q5 -4 5 -12.5t-5 -11.5q-94 7 -270 7t-270 -7q-5 3 -5 11.5t5 12.5q98 -6 269 -6z" />
    <glyph glyph-name="grave" unicode="`" horiz-adv-x="809" 
d="M479 537q-22 23 -55.5 50.5t-61.5 48t-31 23.5q-12 10 -12 17q0 16 3 19t18 3q18 0 24 -6q3 -3 22.5 -30.5t47 -62t50.5 -56.5q3 -3 3 -4q0 -4 -4 -4q-2 0 -4 2z" />
    <glyph glyph-name="a" unicode="a" horiz-adv-x="514" 
d="M156 -11q-58 0 -91 32t-33 80q0 108 250 205l83 32q-3 92 -27.5 127.5t-79.5 35.5q-31 0 -54.5 -14t-34 -28.5t-23.5 -39t-17 -29.5q-12 -18 -45 -18q-40 0 -40 23q0 25 35 47q39 25 93 46.5t102 21.5q78 0 123.5 -44t45.5 -138q0 -37 -4 -120t-4 -99q0 -85 28 -85
q12 0 27.5 18t26.5 37q2 4 6.5 3.5t6 -4t-0.5 -7.5q-16 -22 -54 -51.5t-64 -29.5q-57 0 -57 71q0 40 4 82q-26 -44 -90.5 -99t-111.5 -55zM102 130q0 -39 33 -68t71 -29t92 51.5t62 81.5q6 78 6 144v21l-82 -35q-111 -47 -146.5 -79t-35.5 -87z" />
    <glyph glyph-name="b" unicode="b" horiz-adv-x="592" 
d="M67 8v673q0 42 -5.5 57.5t-19.5 16t-39 -5.5q-5 -1 -6 3q-1 5 6 6q18 3 36.5 10.5t29 13t30.5 17t25 14.5q3 2 10.5 -0.5t7.5 -6.5v-404q35 50 88.5 79t111.5 29q87 0 149 -66.5t62 -168.5q0 -120 -87 -202.5t-199 -82.5q-88 0 -152 60q-37 -51 -43 -51q-5 0 -5 9z
M309 12q81 0 125.5 58.5t44.5 168.5q0 61 -20 114t-63.5 88.5t-102.5 35.5q-43 0 -84.5 -23.5t-66.5 -62.5v-285q87 -94 167 -94z" />
    <glyph glyph-name="c" unicode="c" horiz-adv-x="542" 
d="M102 275q0 -100 64 -164.5t165 -64.5q134 0 209 137q3 6 7 4t1 -7q-44 -82 -117.5 -136t-153.5 -54q-106 0 -173 67t-67 173q0 108 87.5 194t197.5 86q70 0 118.5 -23.5t48.5 -51.5q0 -15 -13.5 -28t-35.5 -13q-13 0 -29 14.5t-30 32.5t-41 32.5t-60 14.5
q-77 0 -127.5 -57t-50.5 -156z" />
    <glyph glyph-name="d" unicode="d" horiz-adv-x="599" 
d="M451 463v218q0 61 -12.5 72.5t-53.5 4.5q-5 -1 -6 3q-1 5 6 6q57 10 121 46q3 2 11.5 -1t8.5 -6v-687q0 -76 7.5 -93t43.5 -17q6 0 6 -4.5t-6 -4.5q-74 0 -121 -10q-12 -3 -12 9q0 1 1.5 15t3.5 38.5t2 49.5q-36 -52 -91 -82t-114 -30q-87 0 -148.5 66.5t-61.5 168.5
q0 120 87.5 202.5t199.5 82.5q67 0 128 -47zM281 488q-82 0 -128.5 -57t-46.5 -166q0 -95 51.5 -168.5t139.5 -73.5q45 0 86.5 26t67.5 69v271q-94 99 -170 99z" />
    <glyph glyph-name="e" unicode="e" horiz-adv-x="516" 
d="M285 -10q-113 0 -182 67.5t-69 172.5q0 111 86.5 195.5t191.5 84.5q51 0 88.5 -14.5t55.5 -36t25 -43.5t5 -41q-4 -31 -42 -31h-342q-8 -37 -8 -77q0 -92 70.5 -155.5t171.5 -63.5q87 0 147 49.5t104 144.5q4 11 8 7q2 -2 -1 -9q-45 -105 -124.5 -177.5t-184.5 -72.5z
M350 356q31 0 40 9q9 11 9 32q0 33 -31 62t-84 29q-66 0 -113.5 -35t-66.5 -101q62 0 141 2t105 2z" />
    <glyph glyph-name="f" unicode="f" horiz-adv-x="296" 
d="M249 500h10q35 0 35 -2q0 -3 -47 -54q-13 0 -46 0.5t-51 0.5l1 -335q1 -73 10 -87t54 -14q6 0 6 -4.5t-6 -4.5q-16 0 -55 1t-45 1t-43.5 -1t-53.5 -1q-6 0 -6 4.5t6 4.5q41 0 49.5 16t8.5 85q-1 321 -1 325v10h-41q-14 0 -14 6l35 48h26q23 113 107 197.5t167 84.5
q39 0 70.5 -8t31.5 -18q0 -15 -16 -33t-38 -18q-13 0 -62 9.5t-82 9.5q-108 0 -109 -224q15 0 47.5 0.5t51.5 0.5z" />
    <glyph glyph-name="g" unicode="g" horiz-adv-x="502" 
d="M465 484q-10 0 -82 9t-113 9v-2q76 -10 119 -56.5t43 -114.5q0 -78 -59.5 -125t-151.5 -47h-18q-50 -3 -84 -17t-34 -37q0 -27 30.5 -35t102.5 -8h134q80 0 118.5 -31t38.5 -77q0 -62 -53.5 -122.5t-134.5 -97t-158 -36.5q-76 -1 -120.5 35.5t-44.5 91.5q0 54 50 102
t117 72q-133 5 -133 67q0 33 40.5 60.5t101.5 36.5q-66 12 -103.5 54.5t-37.5 111.5q0 76 60.5 128.5t148.5 52.5q58 0 147 19t92 19q29 0 29 -15t-13 -31t-32 -16zM223 -249h4q98 0 175.5 46t77.5 112q0 47 -38.5 67t-124.5 20h-130q-65 -20 -105 -56t-40 -78
q0 -53 47.5 -82t133.5 -29zM232 167q61 0 93.5 41.5t32.5 120.5q0 68 -33 118.5t-89 50.5q-128 0 -128 -160q0 -76 32 -123.5t92 -47.5z" />
    <glyph glyph-name="h" unicode="h" 
d="M121 2q-6 0 -43 -1t-53 -1q-6 0 -6 4.5t6 4.5q32 0 38.5 17.5t6.5 92.5v562q0 43 -5.5 60.5t-19.5 20.5t-39 -3q-5 -1 -6 3q-1 5 6 6q60 11 121 45q3 2 10.5 -0.5t7.5 -6.5v-403q80 107 183 107q163 0 163 -203v-257q0 -27 10 -34.5t38 -6.5q6 0 6 -4.5t-6 -4.5
q-3 0 -41.5 1t-47.5 1q-6 0 -39 -1t-49 -1q-6 0 -6 4.5t6 4.5q25 0 34.5 5t14 27t4.5 76v200q0 86 -34 124.5t-86 38.5q-46 0 -80.5 -21t-69.5 -68v-382h61q6 0 6 -4.5t-6 -4.5q-3 0 -39.5 1t-45.5 1z" />
    <glyph glyph-name="i" unicode="i" horiz-adv-x="226" 
d="M75 110v267q0 55 -12 66t-52 2q-6 -1 -7.5 3t4.5 5q63 14 125 57q3 2 10.5 -1t7.5 -6v-393q0 -66 9.5 -83.5t50.5 -17.5q6 0 6 -4.5t-6 -4.5q-16 0 -53 1t-43 1t-45.5 -1t-55.5 -1q-6 0 -6 4.5t6 4.5q42 0 51.5 17.5t9.5 83.5zM57 648q0 22 15 37.5t37 15.5t37.5 -15.5
t15.5 -37.5t-15.5 -37t-37.5 -15t-37 15t-15 37z" />
    <glyph glyph-name="j" unicode="j" horiz-adv-x="223" 
d="M148 503l1 -454q-2 -60 -28 -111t-78 -115q-68 -84 -107 -84q-8 0 -18 2q-22 5 -22 18q0 14 12.5 31t28.5 21q6 2 16 2q12 0 29 -0.5t19 -0.5q22 0 32 12q12 14 17 21t14.5 55t9.5 122v355q0 54 -13 65.5t-53 2.5q-6 -1 -7.5 3t4.5 5q63 14 125 57q3 2 10.5 -1t7.5 -6z
M54 648q0 22 15 37.5t37 15.5t37.5 -15.5t15.5 -37.5t-15.5 -37t-37.5 -15t-37 15t-15 37z" />
    <glyph glyph-name="k" unicode="k" horiz-adv-x="552" 
d="M560 0h-94q-23 0 -38 10q-33 21 -98 133l-82 137l-103 -105v-166h61q6 0 6 -4.5t-6 -4.5q-3 0 -39.5 1t-45.5 1q-6 0 -43 -1t-53 -1q-6 0 -6 4.5t6 4.5q32 0 38.5 17.5t6.5 92.5v562q0 43 -5.5 60.5t-19.5 20.5t-39 -3q-5 -1 -6 3q-1 5 6 6q60 11 121 45q3 2 10.5 -0.5
t7.5 -6.5v-619l157 162q85 88 63 125q-9 16 -38 16q-3 0 -4.5 2t0 4.5t4.5 2.5q15 0 55 -1t45 -1q8 0 57 1t52 1t4.5 -2.5t0 -4.5t-4.5 -2q-46 0 -100 -35.5t-127 -111.5l-13 -13l97 -154q57 -92 96.5 -129.5t70.5 -37.5q5 0 6 -4q-1 -4 -6 -5z" />
    <glyph glyph-name="l" unicode="l" horiz-adv-x="217" 
d="M121 2q-6 0 -43 -1t-53 -1q-6 0 -6 4.5t6 4.5q32 0 38.5 17.5t6.5 92.5v562q0 43 -5.5 60.5t-19.5 20.5t-39 -3q-5 -1 -6 3q-1 5 6 6q60 11 121 45q3 2 10.5 -0.5t7.5 -6.5v-687q0 -78 9 -94t50 -16q6 0 6 -4.5t-6 -4.5q-16 0 -46.5 1t-36.5 1z" />
    <glyph glyph-name="m" unicode="m" horiz-adv-x="891" 
d="M26 0q-6 0 -6 4.5t6 4.5q34 0 40.5 15t6.5 95v258q0 34 -46 76q-4 4 0 6q51 20 73 42q2 3 6 -1q15 -15 27 -43t13 -57q39 55 81 82.5t97 27.5q117 0 152 -113q41 56 83.5 84.5t97.5 28.5q74 0 120.5 -47t46.5 -156v-257q0 -29 7.5 -35.5t43.5 -5.5q6 0 6 -4.5t-6 -4.5
q-3 0 -43 1t-49 1q-6 0 -46.5 -1t-56.5 -1q-6 0 -6 4.5t6 4.5q51 0 60 14t9 94v200q0 86 -36 124.5t-89 38.5q-35 0 -63 -14t-43 -30.5t-38 -48.5v-337q0 -28 11 -35t49 -6q6 0 6 -4.5t-6 -4.5q-3 0 -45 1t-51 1q-6 0 -45 -1t-55 -1q-6 0 -6 4.5t6 4.5q46 0 53.5 14t7.5 94
v200q0 87 -31.5 125t-82.5 38q-46 0 -77.5 -21t-66.5 -70v-380h59q6 0 6 -4.5t-6 -4.5q-3 0 -38 1t-44 1q-6 0 -44 -1t-54 -1z" />
    <glyph glyph-name="n" unicode="n" horiz-adv-x="562" 
d="M495 307v-209q0 -61 9.5 -75.5t38.5 -13.5q6 0 6 -4.5t-6 -4.5q-3 0 -41.5 1t-47.5 1q-6 0 -37.5 -1t-47.5 -1q-6 0 -6 4.5t6 4.5q32 0 42 16t10 79l-1 213q-1 86 -35 124.5t-86 38.5q-46 0 -80.5 -21.5t-70.5 -69.5v-380h52q6 0 6 -4.5t-6 -4.5q-3 0 -35 1t-41 1
q-6 0 -43 -1t-53 -1q-6 0 -6 4.5t6 4.5q32 0 38.5 17.5t6.5 92.5v258q0 34 -46 76q-4 4 0 6q51 20 73 42q2 3 6 -1q15 -15 27.5 -42.5t13.5 -56.5q82 109 185 109q163 0 163 -203z" />
    <glyph glyph-name="o" unicode="o" horiz-adv-x="581" 
d="M284 -10q-107 0 -177.5 69t-70.5 181q0 110 75.5 190t188.5 80q107 0 176.5 -69.5t69.5 -183.5q0 -101 -76.5 -184t-185.5 -83zM301 1q79 0 121.5 64t42.5 176q0 100 -49.5 179.5t-127.5 79.5q-85 0 -127 -64.5t-42 -178.5q0 -100 50 -178t132 -78z" />
    <glyph glyph-name="p" unicode="p" horiz-adv-x="596" 
d="M148 507v-102q35 49 88 77t110 28q87 0 149 -66.5t62 -168.5q0 -120 -87 -202.5t-199 -82.5q-67 0 -124 37v-290h71q6 0 6 -4.5t-6 -4.5q-3 0 -48.5 1t-54.5 1q-6 0 -52.5 -1t-62.5 -1q-6 0 -6 4.5t6 4.5q51 0 62.5 18t11.5 99v528q0 59 -16 69.5t-54 -1.5q-5 -1 -6 3
q-1 5 6 6q18 2 37.5 9t30.5 12.5t32.5 18.5t25.5 15q3 2 10.5 -1t7.5 -6zM147 104q90 -92 166 -92q81 0 125.5 58.5t44.5 168.5q0 61 -20 114t-63.5 88.5t-102.5 35.5q-42 0 -83 -23t-66 -61q0 -37 -0.5 -132t-0.5 -157z" />
    <glyph glyph-name="q" unicode="q" horiz-adv-x="589" 
d="M520 497v-625q0 -59 13 -69t51 2q5 1 6 -3q1 -5 -6 -6q-18 -3 -36 -10t-29 -13t-30 -17.5t-25 -14.5q-3 -2 -11 1t-8 6v347q-36 -49 -89.5 -77t-110.5 -28q-93 0 -151.5 65t-58.5 170q0 120 86.5 202.5t198.5 82.5q84 0 150 -59q38 53 44 53t6 -7zM278 488
q-82 0 -127.5 -57t-45.5 -166q0 -92 53 -167t137 -75q42 0 83.5 23.5t66.5 62.5v285q-89 94 -167 94z" />
    <glyph glyph-name="r" unicode="r" horiz-adv-x="327" 
d="M215 493q26 17 57 17q45 0 45 -18q0 -16 -13.5 -34t-36.5 -18h-37q-54 0 -66.5 -15.5t-12.5 -80.5v-335h61q6 0 6 -4.5t-6 -4.5q-3 0 -41.5 1t-47.5 1q-6 0 -46 -1t-56 -1q-6 0 -6 4.5t6 4.5q38 0 47 17t9 93v258q0 34 -46 76q-4 4 0 6q44 17 69 42q2 3 6 -1
q37 -35 43 -92q14 50 66 85z" />
    <glyph glyph-name="s" unicode="s" horiz-adv-x="444" 
d="M39 361q0 71 57 110t128 39q29 0 54.5 -1.5t36.5 -3t39 -6.5t37 -6q7 -1 7 -8q0 -16 -2.5 -86.5t-2.5 -88.5q0 -6 -4 -6t-4 6q0 95 -37.5 143.5t-122.5 48.5q-62 0 -100 -24t-38 -63q0 -20 10 -36.5t21.5 -27.5t37.5 -23t40.5 -17.5t48.5 -17.5q41 -14 63.5 -23.5
t51.5 -27.5t42.5 -42t13.5 -56q0 -66 -51.5 -110t-127.5 -44q-36 0 -69 4.5t-50.5 9t-42 12.5t-31.5 10q-7 1 -7 14q0 3 1.5 19t3 56.5t1.5 102.5q0 4 2 6t4 0t2 -6q0 -112 41.5 -165.5t144.5 -53.5q130 0 130 100q0 20 -9.5 37t-22 28t-37.5 22.5t-41.5 17.5t-48.5 17
q-39 13 -63 23t-51.5 27t-41 39t-13.5 51z" />
    <glyph glyph-name="t" unicode="t" horiz-adv-x="326" 
d="M144 596v-97q102 0 135 1q35 1 35 -2q0 -10 -49 -54q-1 0 -52 0.5t-71 0.5v-314q0 -110 65 -110q31 0 58 27.5t44 76.5q1 4 5.5 4t7 -3t0.5 -7q-27 -54 -69 -91.5t-90 -37.5q-50 0 -73 33t-23 105v317h-55q-2 1 0 5l128 147q4 4 4 -1z" />
    <glyph glyph-name="u" unicode="u" horiz-adv-x="559" 
d="M67 193v184q0 43 -5.5 60t-19.5 19t-39 -4q-5 -1 -6 3q-1 5 6 6q61 11 122 45q3 2 10.5 -1t7.5 -6v-316q0 -86 33 -124.5t85 -38.5q46 0 80.5 21t71.5 70v266q0 43 -5.5 60t-19.5 19t-39 -4q-5 -1 -6 3q-1 5 6 6q60 11 121 45q2 2 10 -1t8 -6v-380q0 -76 8 -93t45 -17
q5 0 5 -4.5t-5 -4.5q-37 0 -130 -10h-4.5t-2.5 2t-1 3v4q0 1 2.5 14.5t5 37t2.5 48.5q-82 -109 -185 -109q-161 0 -161 203z" />
    <glyph glyph-name="v" unicode="v" horiz-adv-x="531" 
d="M424 344l-146 -346q-1 -2 -4 -2h-16q-3 0 -4 2l-160 367q-35 81 -56.5 104t-54.5 22q-3 0 -4.5 2.5t0 4.5t4.5 2t47.5 -1t52.5 -1q6 0 47 0.5t55 0.5q6 0 6 -4t-6 -4q-44 0 -48.5 -16.5t23.5 -81.5l139 -320l116 277q29 74 17.5 107.5t-60.5 32.5q-6 0 -6 4.5t6 4.5
q15 0 49.5 -0.5t39.5 -0.5q8 0 45 1t40 1t4.5 -2t0 -4.5t-4.5 -2.5q-34 1 -62 -35t-60 -112z" />
    <glyph glyph-name="w" unicode="w" horiz-adv-x="829" 
d="M561 -2l-153 388l-163 -388q-1 -2 -3 -2h-11q-3 0 -4 2l-134 365q-30 84 -49.5 106t-59.5 22q-4 0 -4 4.5t4 4.5q2 0 42.5 -1t47.5 -1q5 0 54.5 1t62.5 1q3 0 4.5 -2t0 -4.5t-4.5 -2.5q-31 0 -41 -5t-8.5 -25t18.5 -68l111 -302l125 291q3 10 1 33q-2 20 -10 36
q-20 40 -64 40q-6 0 -6 5q0 4 5 4q14 0 52 -1t42 -1q5 0 42 1t49 1q7 0 7 -5q-1 -4 -6 -4q-42 0 -47 -13.5t22 -84.5l121 -308l107 266q22 51 16.5 82t-24.5 44.5t-50 13.5q-6 0 -6 5q0 4 5 4q13 0 55.5 -1t47.5 -1q7 0 47.5 1t43.5 1t4.5 -2t0.5 -4.5t-4 -2.5
q-42 0 -67 -30.5t-60 -116.5l-139 -346q-1 -2 -6 -2h-10q-3 0 -4 2z" />
    <glyph glyph-name="x" unicode="x" horiz-adv-x="531" 
d="M296 281l97 -144q62 -92 82.5 -110.5t55.5 -17.5q6 0 6 -5q1 -4 -4 -4q-3 0 -44.5 1t-48.5 1q-6 0 -55.5 -1t-63.5 -1q-7 0 -7 5q0 4 5 4q34 0 44.5 4.5t4 25.5t-38.5 68l-87 128l-67 -85q-48 -63 -48 -99q0 -42 51 -42q6 0 6 -4.5t-6 -4.5q-14 0 -52.5 1t-42.5 1
q-8 0 -41.5 -1t-36.5 -1t-4.5 2t0 4.5t4.5 2.5q49 -1 164 148l68 87l-80 119q-60 90 -82 109.5t-58 18.5q-5 0 -6 5q0 4 4 4q2 0 46 -1t52 -1q6 0 49 1t57 1q7 0 7 -5q0 -4 -5 -4q-43 0 -46 -11q-4 -14 45 -87l70 -104l45 60q56 74 54 110q-1 31 -54 31q-3 0 -4.5 2t0 4.5
t4.5 2.5q15 0 51 -1t41 -1q8 0 46 1t41 1t4.5 -2.5t0 -4.5t-4.5 -2q-34 1 -73.5 -34.5t-97.5 -112.5z" />
    <glyph glyph-name="y" unicode="y" horiz-adv-x="537" 
d="M117 -136q42 0 72.5 23.5t62.5 95.5l11 25l-159 352q-41 89 -60.5 110.5t-56.5 20.5q-3 0 -4.5 2.5t0 4.5t4.5 2t47 -1t52 -1q5 0 48.5 1t58.5 1q6 0 6 -4.5t-6 -4.5q-45 0 -50 -17t25 -84l133 -295l112 252q30 72 17 108t-63 36q-6 0 -6 4.5t6 4.5q16 0 52.5 -1t41.5 -1
q8 0 47.5 1t42.5 1t4.5 -2t0 -4.5t-4.5 -2.5q-34 1 -65 -37t-64 -113l-160 -360q-39 -89 -88.5 -131t-120.5 -42q-38 0 -60.5 12t-22.5 27q0 14 16.5 30t38.5 16q18 0 45.5 -14.5t46.5 -14.5z" />
    <glyph glyph-name="z" unicode="z" horiz-adv-x="505" 
d="M54 307l-3 -62q0 -3 -2.5 -4.5t-4.5 0t-2 4.5l3 62q8 188 11 189q8 4 47 4q21 0 147 -1t131 -1q8 0 38 1.5t37 1.5t6.5 -6.5t-6.5 -14.5l-348 -468q88 -2 146 -2q94 0 143.5 50.5t56.5 142.5l5 69q0 3 2.5 4t4.5 -0.5t2 -4.5l-5 -69q-18 -196 -20 -198q-4 -4 -87 -4
l-239 2l-84 -2q-7 0 -12 2.5t-3 6.5l358 480h-130q-98 -1 -142.5 -45t-49.5 -137z" />
    <glyph glyph-name="braceleft" unicode="{" horiz-adv-x="445" 
d="M238 374q0 -45 -25.5 -76.5t-64.5 -47.5q39 -16 64.5 -47t25.5 -76q0 -40 -33 -133t-33 -145q0 -127 182 -127q8 0 12 -5t1 -9.5t-14 -4.5q-102 0 -153.5 46t-51.5 121q0 58 35 145.5t35 124.5q0 47 -28.5 75t-67.5 28q-8 0 -8 7q0 8 8 8q39 0 67.5 28t28.5 75
q0 37 -35 125t-35 145q0 69 60.5 117t154.5 48q10 0 13 -4t-1 -8.5t-11 -4.5q-94 0 -143 -35t-49 -92q0 -52 33 -145t33 -133z" />
    <glyph glyph-name="bar" unicode="|" horiz-adv-x="267" 
d="M142 247q0 -270 6 -513q-17 -13 -29 -10q10 239 10 522q0 120 -6 528q12 9 31 6q-12 -195 -12 -533z" />
    <glyph glyph-name="braceright" unicode="}" horiz-adv-x="445" 
d="M207 127q0 45 25.5 76t64.5 47q-39 16 -64.5 47.5t-25.5 76.5q0 40 33 133t33 145q0 57 -49 92t-143 35q-7 0 -11 4.5t-1 8.5t13 4q99 0 157 -45t58 -120q0 -57 -35 -145t-35 -125q0 -47 28.5 -75t67.5 -28q8 0 8 -8q0 -7 -8 -7q-39 0 -67.5 -28t-28.5 -75
q0 -37 35 -124.5t35 -145.5q0 -76 -52 -121.5t-153 -45.5q-11 0 -14 4.5t1 9.5t12 5q182 0 182 127q0 52 -33 145t-33 133z" />
    <glyph glyph-name="asciitilde" unicode="~" horiz-adv-x="833" 
d="M264 322q44 57 61.5 75t34.5 18q22 0 77.5 -29.5t72.5 -29.5q14 0 22.5 8t36.5 47q5 5 8 3.5t-1 -8.5q-36 -53 -59 -76.5t-45 -23.5q-21 0 -75 31.5t-73 31.5q-8 0 -15.5 -7.5t-37.5 -44.5q-6 -7 -8.5 -4.5t1.5 9.5z" />
    <glyph glyph-name="nbspace" unicode="&#xa0;" horiz-adv-x="309" 
 />
    <glyph glyph-name="exclamdown" unicode="&#xa1;" horiz-adv-x="252" 
d="M184 458q0 -24 -17 -41t-41 -17q-23 0 -40.5 17.5t-17.5 40.5q0 24 17 41t41 17q25 0 41.5 -16.5t16.5 -41.5zM158 -96v-5q0 -16 -22.5 -46.5t-31.5 -30.5q-24 0 -24 35v4q0 43 20.5 219.5t20.5 268.5q0 6 4 3q2 -1 2 -3q0 -95 15.5 -255.5t15.5 -189.5z" />
    <glyph glyph-name="cent" unicode="&#xa2;" horiz-adv-x="523" 
d="M294 250q-1 -70 -1 -200q24 -2 38 -2q134 0 209 136q3 6 7 4t1 -7q-41 -78 -110 -131t-145 -59q2 -128 4 -198q-16 -13 -28 -10q6 154 8 207q-106 0 -173 67t-67 173q0 100 72.5 180t171.5 96q0 58 -2 174q11 8 28 6q-6 -129 -8 -177q4 0 11.5 0.5t11.5 0.5
q70 0 118.5 -23.5t48.5 -51.5q0 -15 -13.5 -28t-35.5 -13q-13 0 -27.5 13t-27 29.5t-36 31.5t-51.5 19q-4 -152 -4 -237zM97 267q0 -80 50.5 -139t131.5 -75q4 134 4 196q0 164 -1 239h-2q-79 0 -131 -57.5t-52 -163.5z" />
    <glyph glyph-name="sterling" unicode="&#xa3;" horiz-adv-x="663" 
d="M246 244q113 0 211 6q5 -4 5 -12.5t-5 -11.5q-94 7 -210 7h-33q-40 -198 -86 -291q13 -2 57.5 -9.5t71.5 -11t67.5 -9t76 -8.5t66.5 -3q47 0 76 44q34 48 51 122l10 44q2 7 9 4q3 -1 2 -5l-10 -45q-28 -122 -44 -183q-5 -17 -26 -35t-46 -18q-48 0 -116.5 19.5t-146.5 49
t-102 36.5q-25 -46 -50 -61q-26 -14 -55 -14q-16 0 -30.5 11t-14.5 29q0 25 20 38.5t55 13.5q21 0 71 -8q15 50 33 289q-49 -1 -132 -6q-5 3 -5 9.5t5 10.5q30 -2 133 -2q7 95 15 165q20 199 169 290q53 33 104 33q39 0 65.5 -20t26.5 -49q0 -23 -12.5 -36t-31.5 -13
q-15 0 -24.5 8t-12.5 16.5t-6 23.5q-9 46 -54 46q-28 0 -51 -17q-35 -28 -58.5 -87t-39.5 -184q-9 -72 -28 -176h30z" />
    <glyph glyph-name="yen" unicode="&#xa5;" horiz-adv-x="615" 
d="M459 509l-107 -178q80 1 159 9q7 -8 1 -24q-45 7 -163 7v-140q103 2 160 10q11 -8 3 -24q-47 4 -163 6q1 -82 6 -116t14.5 -42t33.5 -8h18q6 0 6 -4.5t-6 -4.5q-16 0 -59.5 1.5t-49.5 1.5q-5 0 -49.5 -1.5t-60.5 -1.5q-6 0 -6 4.5t6 4.5h18q24 0 33 8t14.5 42.5
t6.5 115.5q-87 -1 -159 -7q-11 6 -3 22q63 -7 162 -7v138l-1 2q-93 -1 -158 -9q-9 8 -3 22q65 -5 156 -5l-102 178q-63 110 -90.5 142.5t-63.5 32.5h-8q-7 0 -7 4q0 5 6 5q16 0 54.5 -1.5t44.5 -1.5t55.5 1.5t65.5 1.5q7 0 8 -5q-2 -3 -5 -4h-21q-36 0 -27 -38t69 -142
l96 -166l105 174q11 19 21.5 44t17.5 56t-5 52t-46 21q-5 0 -16 -2t-12 -2q-7 0 -7 6t12 6q9 0 53 -1t52 -1q5 0 50 1t59 1q5 0 6 -4q1 -5 -5 -5h-7q-9 0 -18.5 -3.5t-19.5 -11t-18.5 -14.5t-19.5 -20.5t-18 -22.5t-18.5 -26t-17 -25.5t-17 -27t-15.5 -24.5z" />
    <glyph glyph-name="brokenbar" unicode="&#xa6;" horiz-adv-x="267" 
d="M126 293q0 18 1.5 122.5t1.5 120.5l-6 238q8 18 25 6q0 -18 -3 -123t-3 -121q0 -17 3 -119t3 -118q-12 -11 -22 -6zM122 -284q0 18 3.5 122.5t3.5 120.5l-3 238q7 15 22 6q0 -18 -3 -123t-3 -121q0 -17 2.5 -119t2.5 -118q-13 -12 -25 -6z" />
    <glyph glyph-name="section" unicode="&#xa7;" horiz-adv-x="585" 
d="M528 86q0 -81 -100 -150q-7 -53 -54.5 -91t-102.5 -38t-93.5 22t-38.5 51q0 23 13.5 36.5t33.5 13.5q24 0 38 -16t20 -36t23 -36t46 -16q33 0 53 22.5t18 50.5q0 39 -33.5 88.5t-81 97.5t-94.5 98t-80.5 105t-33.5 102q0 48 27 83t77 71q11 49 54 81.5t98 32.5
q52 0 88 -21.5t36 -48.5q0 -21 -11.5 -32t-29.5 -11q-22 0 -35.5 15t-19.5 32.5t-23 32.5t-46 15q-32 0 -51.5 -22.5t-17.5 -50.5q0 -39 33 -88.5t80.5 -98.5t94.5 -98t80 -101.5t33 -94.5zM162 514q0 16 2 23q-55 -41 -55 -101q0 -43 33 -95.5t80 -101l94 -97t80 -99
t33 -91.5q0 -6 -1 -9q30 23 40.5 45t10.5 53q0 39 -32.5 89.5t-79.5 99.5t-93.5 97.5t-79 98.5t-32.5 88z" />
    <glyph glyph-name="dieresis" unicode="&#xa8;" horiz-adv-x="809" 
d="M450 648q0 20 14.5 35t34.5 15t35 -15t15 -35t-15 -34.5t-35 -14.5t-34.5 14.5t-14.5 34.5zM252 648q0 20 14.5 35t34.5 15t35 -15t15 -35t-15 -34.5t-35 -14.5t-34.5 14.5t-14.5 34.5z" />
    <glyph glyph-name="copyright" unicode="&#xa9;" horiz-adv-x="816" 
d="M407 1q142 0 240.5 96.5t98.5 242.5t-99 247.5t-236 101.5q-140 0 -241 -97t-101 -243t100.5 -247t237.5 -101zM397 -16q-147 0 -248.5 101.5t-101.5 255.5q0 98 58.5 184t144.5 133t170 47q147 0 247.5 -101.5t100.5 -255.5q0 -99 -57.5 -184.5t-142.5 -132.5t-171 -47z
M600 246q-94 -114 -197 -112q-87 0 -143 55.5t-56 144.5q0 94 67.5 155.5t155.5 61.5q80 0 139 -26l9 -155q0 -2 -2 -3.5t-4 -0.5t-2 3q-6 77 -40 125t-101 48q-79 0 -123 -45t-44 -139q0 -80 51 -134.5t133 -54.5q39 0 72 16.5t44 27.5t35 39q4 4 6 -2q1 -2 0 -4z" />
    <glyph glyph-name="ordfeminine" unicode="&#xaa;" horiz-adv-x="376" 
d="M121 397q-33 0 -52.5 18.5t-19.5 45.5q0 61 144 118l49 19q-2 52 -16.5 72t-45.5 20q-18 0 -30.5 -8t-17 -16.5t-11 -24t-8.5 -20.5q-7 -14 -32 -14q-26 0 -26 16t24 33q57 41 110 41q103 0 103 -97q0 -22 -1.5 -69t-1.5 -56q0 -44 17 -44q12 0 32 31q3 6 9 1q4 -3 0 -7
q-54 -59 -78 -59q-33 0 -33 41q0 34 1 46q-16 -24 -55.5 -55.5t-60.5 -31.5zM100 486q0 -23 16 -40t38 -17q20 0 50 29t34 46q4 28 4 78v8l-47 -19q-60 -25 -77.5 -42t-17.5 -43z" />
    <glyph glyph-name="guillemotleft" unicode="&#xab;" horiz-adv-x="662" 
d="M66 249v-1q25 -22 127 -101.5t113 -89.5q20 -20 19 -36q-3 -22 -21 -22q-14 0 -38 23q-25 22 -106 112.5t-105 113.5q-2 2 -2 5t2 5q18 17 108 112.5t118 120.5q26 23 36 23q23 0 23 -22q0 -18 -21 -37q-8 -7 -64.5 -49t-112.5 -85.5t-76 -63.5q-4 -4 0 -8zM280 249v-1
q26 -21 148 -100t135 -90q20 -18 20 -37q0 -22 -19 -22q-15 0 -41 23q-28 24 -131 116t-124 110q-2 2 -2 5t2 5q29 25 130 118.5t124 114.5q26 23 37 23q23 0 23 -22q0 -19 -20 -38q-8 -7 -131 -89.5t-151 -107.5q-5 -3 0 -8z" />
    <glyph glyph-name="uni00AD" unicode="&#xad;" horiz-adv-x="538" 
d="M271 251q103 0 199 6q6 -4 6 -12.5t-5 -11.5q-96 7 -200 7q-107 0 -200 -7q-6 3 -6 11.5t5 12.5q100 -6 201 -6z" />
    <glyph glyph-name="registered" unicode="&#xae;" horiz-adv-x="804" 
d="M581 44q-89 -60 -196 -60q-146 0 -242 101t-96 256q0 99 56 184.5t139.5 132.5t167.5 47q146 0 246 -98.5t100 -252.5q0 -33 -9.5 -73.5t-26.5 -80t-48 -66t-69 -26.5q-46 0 -72.5 30t-56.5 100q-34 78 -53.5 97t-64.5 20h-25v-61q0 -109 5 -130t28 -21h12q3 0 3 -3.5
t-3 -3.5q-10 0 -36.5 0.5t-29.5 0.5q-5 0 -44.5 -0.5t-40.5 -0.5q-5 0 -4 4q1 3 4 3q28 0 34 4q11 7 12 52q2 33 2 121v80q0 109 -5 130t-27 21h-11q-4 0 -4 4t4 4q10 0 43 -1t36 -1q4 0 38 1t39 1q85 0 123.5 -24t38.5 -76q0 -39 -37.5 -65.5t-95.5 -33.5q37 -2 61.5 -23
t54.5 -76q6 -11 18 -36t19 -37.5t19 -28.5t25.5 -23t29.5 -7q42 0 67.5 75t25.5 144q0 146 -98.5 243.5t-235.5 97.5q-139 0 -235.5 -96.5t-96.5 -243.5t95 -247.5t231 -100.5q112 0 183 47q4 3 5.5 1t-2.5 -5zM331 460v-97q12 1 51 1q40 0 71 23.5t31 70.5t-25 70t-81 23
h-23q-17 0 -20.5 -12.5t-3.5 -78.5z" />
    <glyph glyph-name="macron" unicode="&#xaf;" horiz-adv-x="809" 
d="M400 676h1q57 0 90 1q35 1 35 -1q0 -7 -46 -51q-1 0 -29.5 0.5t-48.5 0.5q-10 0 -76 -2q-35 -1 -35 2q0 7 46 51q1 0 22 -0.5t41 -0.5z" />
    <glyph glyph-name="degree" unicode="&#xb0;" horiz-adv-x="376" 
d="M58 577q0 54 38 92t92 38t92 -38t38 -92t-38 -92t-92 -38t-92 38t-38 92zM73 577q0 -47 34 -81.5t81 -34.5t81 34.5t34 81.5t-34 81.5t-81 34.5t-81 -34.5t-34 -81.5z" />
    <glyph glyph-name="plusminus" unicode="&#xb1;" 
d="M268 526q4 5 12.5 5t11.5 -5q-7 -93 -7 -155q59 0 153 6q5 -4 5 -12.5t-5 -11.5q-93 7 -153 7q0 -63 7 -154q-3 -5 -11.5 -5t-12.5 5q3 47 3 154q-62 0 -153 -7q-5 3 -5 11.5t5 12.5q94 -6 153 -6q0 107 -3 155zM277 126q61 0 159 6q5 -4 5 -12.5t-5 -11.5q-95 7 -158 7
q-64 0 -158 -7q-5 3 -5 11.5t5 12.5q98 -6 157 -6z" />
    <glyph glyph-name="twosuperior" unicode="&#xb2;" horiz-adv-x="371" 
d="M135 348h-36t-36.5 -0.5t-17.5 -0.5q-1 15 1 17q18 14 37 29t31 24.5t25 22.5q60 57 83.5 97.5t23.5 87.5q0 34 -18.5 51.5t-51.5 17.5q-46 0 -74 -53.5t-28 -117.5q0 -4 -4.5 -4t-4.5 4q0 33 -7.5 88t-7.5 56q0 11 5 11q81 25 123 25q140 0 140 -91q0 -23 -15.5 -45.5
t-34.5 -38t-57.5 -45t-62.5 -49.5q-25 -20 -35 -29q94 0 131 1q27 0 37.5 1.5t19.5 9t12 25.5l6 42q1 7 5 8t4 -4v-4l-6 -43q-12 -88 -15 -92q-2 -2 -26 -2q-5 0 -69 0.5t-77 0.5z" />
    <glyph glyph-name="threesuperior" unicode="&#xb3;" horiz-adv-x="350" 
d="M128 355q60 0 90 27.5t30 69.5q0 74 -73 74q-23 0 -45 -19.5t-25 -19.5q-8 1 -7.5 12t2.5 13q57 19 91 51.5t34 75.5q0 54 -61 56q-50 0 -75.5 -44t-25.5 -103q0 -2 -2.5 -3.5t-4.5 -0.5t-2 3q0 33 -4.5 76t-4.5 44q0 11 5 11q5 2 22 7.5t24.5 7.5t22 5t28.5 4.5t30 1.5
q55 0 85 -18t30 -50q0 -17 -6.5 -30t-23 -24t-29.5 -18t-41 -18.5t-42 -18.5q38 11 58 11q105 0 105 -87q0 -51 -37.5 -80.5t-109.5 -29.5q-55 0 -120 21q-8 3 -6 7q2 3 8 2q59 -16 80 -16z" />
    <glyph glyph-name="acute" unicode="&#xb4;" horiz-adv-x="809" 
d="M317 537q-2 -2 -4 -2q-4 0 -4 4q0 1 3 4q23 22 50.5 56.5t47 62t22.5 30.5q6 6 24 6q15 0 18 -3t3 -19q0 -7 -12 -17q-3 -3 -31 -23.5t-61.5 -48t-55.5 -50.5z" />
    <glyph glyph-name="paragraph" unicode="&#xb6;" horiz-adv-x="644" 
d="M334 -149v502h-81q-91 0 -144 43.5t-53 117.5q0 75 48.5 116.5t144.5 41.5q7 0 110.5 -0.5t110.5 -0.5q6 0 50.5 1t60.5 1q6 0 6 -4.5t-6 -4.5h-18q-21 0 -29.5 -3.5t-15.5 -30.5t-8 -72t-1 -144v-563q0 -5 -2.5 -7t-5.5 0t-3 7v563q0 181 -5.5 214t-33.5 33h-113v-810
q0 -5 -3 -7t-6 0t-3 7z" />
    <glyph glyph-name="periodcentered" unicode="&#xb7;" horiz-adv-x="252" 
d="M68 247q0 24 17 41t41 17q23 0 40.5 -17.5t17.5 -40.5q0 -24 -17 -41t-41 -17q-25 0 -41.5 16.5t-16.5 41.5z" />
    <glyph glyph-name="cedilla" unicode="&#xb8;" horiz-adv-x="809" 
d="M499 -163q0 -46 -36 -92.5t-86 -46.5q-34 0 -59 11t-25 27q0 17 11 29.5t27 12.5q17 0 45 -22.5t52 -22.5q20 0 33 17t13 38q0 71 -161 70q-11 0 -4 10q78 104 97 132q5 6 9 2q1 -1 -1 -4q-13 -18 -33.5 -48.5t-25.5 -37.5l-1 -3h6q68 0 103.5 -22t35.5 -50z" />
    <glyph glyph-name="onesuperior" unicode="&#xb9;" horiz-adv-x="213" 
d="M52 358q21 0 26 15t5 62v180q0 27 -8 30.5t-36 -7.5q-3 -1 -4.5 2.5t1.5 4.5q42 15 93 58q1 1 5 0.5t4 -2.5v-266q0 -48 5 -62.5t27 -14.5h19q2 0 2 -4.5t-2 -4.5q-8 0 -40 0.5t-38 0.5t-37.5 -0.5t-39.5 -0.5q-2 0 -2 4.5t2 4.5h18z" />
    <glyph glyph-name="ordmasculine" unicode="&#xba;" horiz-adv-x="376" 
d="M184 397q-62 0 -102.5 40t-40.5 104t43 110t109 46q62 0 102 -40t40 -106q0 -58 -44 -106t-107 -48zM191 406q86 0 86 136q0 60 -22.5 103.5t-66.5 43.5q-88 0 -88 -138q0 -60 22 -102.5t69 -42.5z" />
    <glyph glyph-name="guillemotright" unicode="&#xbb;" horiz-adv-x="662" 
d="M585 263v1q-25 22 -127 101.5t-113 89.5q-20 20 -19 36q3 22 21 22q14 0 38 -23q25 -22 106 -112.5t105 -113.5q2 -2 2 -5t-2 -5q-20 -20 -105.5 -114t-113.5 -118q-26 -23 -36 -23q-23 0 -23 22q0 17 21 37q7 6 62.5 48.5t109.5 85.5t74 63q4 4 0 8zM371 263v1
q-26 21 -146 100t-133 90q-20 18 -20 37q0 22 19 22q15 0 41 -23q28 -23 128 -114.5t123 -111.5q2 -2 2 -5t-2 -5q-29 -26 -131.5 -119t-125.5 -113q-26 -23 -37 -23q-23 0 -23 22q0 19 20 38q8 7 132.5 89t152.5 107q5 3 0 8z" />
    <glyph glyph-name="onequarter" unicode="&#xbc;" horiz-adv-x="636" 
d="M361 47h34q37 0 49.5 8.5t17.5 40.5l4 24q1 6 6 5q4 0 3 -5l-3 -20q-2 -15 -5.5 -40t-5.5 -39.5t-3 -15.5q-2 -2 -33 -2h-64v-21q0 -44 8 -54t44 -11q4 0 4 -4.5t-4 -4.5q-8 0 -42.5 0.5t-37.5 0.5t-37 -0.5t-43 -0.5q-4 0 -4 4.5t4 4.5q39 1 47.5 11t8.5 54v21h-112
q-26 0 -48 -2q-10 -1 -3 11q5 8 30 39q15 18 38.5 47t37 45.5t35.5 45.5t45 62q6 9 18 12q13 4 19 0.5t1 -12.5q-9 -21 -9 -46v-158zM255 438q21 0 26 15t5 62v180q0 27 -8 30.5t-36 -7.5q-3 -1 -4.5 2.5t1.5 4.5q42 15 93 58q1 1 5 0.5t4 -2.5v-266q0 -48 5 -62.5t27 -14.5
h19q2 0 2 -4.5t-2 -4.5q-8 0 -40 0.5t-38 0.5t-37.5 -0.5t-39.5 -0.5q-2 0 -2 4.5t2 4.5h18zM183 47h126v143q-19 -23 -59.5 -67.5t-66.5 -75.5zM317 348q163 0 261 6q5 -4 5 -12.5t-5 -11.5q-94 7 -260 7t-260 -7q-5 3 -5 11.5t5 12.5q98 -6 259 -6z" />
    <glyph glyph-name="onehalf" unicode="&#xbd;" horiz-adv-x="636" 
d="M263 -96h-35.5t-37 -0.5t-17.5 -0.5q-1 15 1 17q18 14 37 29t31 24.5t25 22.5q60 57 83.5 97.5t23.5 87.5q0 34 -18.5 51.5t-51.5 17.5q-46 0 -74 -53.5t-28 -117.5q0 -4 -4.5 -4t-4.5 4q0 33 -7.5 88t-7.5 56q0 11 5 11q81 25 123 25q140 0 140 -91q0 -23 -15.5 -45.5
t-34.5 -38t-57.5 -45t-62.5 -49.5q-25 -20 -35 -29q94 0 131 1q27 0 37.5 1.5t19.5 9t12 25.5l6 42q1 7 5 8t4 -4v-4l-6 -43q-12 -88 -15 -92q-2 -2 -26 -2q-5 0 -69 0.5t-77 0.5zM255 438q21 0 26 15t5 62v180q0 27 -8 30.5t-36 -7.5q-3 -1 -4.5 2.5t1.5 4.5q42 15 93 58
q1 1 5 0.5t4 -2.5v-266q0 -48 5 -62.5t27 -14.5h19q2 0 2 -4.5t-2 -4.5q-8 0 -40 0.5t-38 0.5t-37.5 -0.5t-39.5 -0.5q-2 0 -2 4.5t2 4.5h18zM317 348q163 0 261 6q5 -4 5 -12.5t-5 -11.5q-94 7 -260 7t-260 -7q-5 3 -5 11.5t5 12.5q98 -6 259 -6z" />
    <glyph glyph-name="threequarters" unicode="&#xbe;" horiz-adv-x="636" 
d="M361 47h34q37 0 49.5 8.5t17.5 40.5l4 24q1 6 6 5q4 0 3 -5l-3 -20q-2 -15 -5.5 -40t-5.5 -39.5t-3 -15.5q-2 -2 -33 -2h-64v-21q0 -44 8 -54t44 -11q4 0 4 -4.5t-4 -4.5q-8 0 -42.5 0.5t-37.5 0.5t-37 -0.5t-43 -0.5q-4 0 -4 4.5t4 4.5q39 1 47.5 11t8.5 54v21h-112
q-26 0 -48 -2q-10 -1 -3 11q5 8 30 39q15 18 38.5 47t37 45.5t35.5 45.5t45 62q6 9 18 12q13 4 19 0.5t1 -12.5q-9 -21 -9 -46v-158zM271 435q60 0 90 27.5t30 69.5q0 74 -73 74q-17 0 -32 -10t-24.5 -19.5t-13.5 -9.5q-8 1 -7.5 12t2.5 13q57 19 91 51.5t34 75.5
q0 54 -61 56q-50 0 -75.5 -44t-25.5 -103q0 -2 -2 -3.5t-4.5 -0.5t-2.5 3q0 33 -4.5 76t-4.5 44q0 11 5 11q5 2 22 7.5t24.5 7.5t22 5t28.5 4.5t30 1.5q55 0 85 -18t30 -50q0 -17 -6.5 -30t-23 -24t-29.5 -18t-41 -18.5t-42 -18.5q39 11 58 11q105 0 105 -87
q0 -51 -37.5 -80.5t-109.5 -29.5q-55 0 -120 21q-8 3 -6 7q2 3 8 2q59 -16 80 -16zM183 47h126v143q-19 -23 -59.5 -67.5t-66.5 -75.5zM317 348q163 0 261 6q5 -4 5 -12.5t-5 -11.5q-94 7 -260 7t-260 -7q-5 3 -5 11.5t5 12.5q98 -6 259 -6z" />
    <glyph glyph-name="questiondown" unicode="&#xbf;" horiz-adv-x="395" 
d="M272 458q0 -24 -17 -41t-42 -17q-23 0 -40 17.5t-17 40.5q0 24 17 41t41 17q25 0 41.5 -16.5t16.5 -41.5zM261 171q0 -8 -8 -11q-81 -40 -116.5 -77.5t-34.5 -90.5q1 -57 53 -88.5t151 -31.5q6 0 6 -6q0 -5 -7 -28.5t-15 -52.5t-11 -42q-2 -5 -5 -3q-1 2 -1 4q9 56 9 57
q-1 4 -18 4q-98 0 -153 43.5t-55 102.5q0 58 43 111t97 79q0 8 -5 73.5t-4 71.5q0 2 18 13.5t36.5 20.5t18.5 7q1 -6 1 -156z" />
    <glyph glyph-name="Agrave" unicode="&#xc0;" horiz-adv-x="711" 
d="M465 248l-117 -3q-89 0 -179 3l-17 -42q-36 -89 -36 -149q0 -49 56 -49q4 0 15 1.5t13 1.5q7 0 7 -5q0 -6 -12 -6q-9 0 -57.5 1t-56.5 1q-5 0 -37 -1t-46 -1q-6 0 -6 5q0 4 6 4h4q40 0 72 60q35 59 66 142l193 482q1 3 7 3h10q8 0 10 -3l182 -434q51 -120 77 -170.5
t42.5 -65t42.5 -14.5h8q7 0 7 -4q0 -5 -6 -5q-16 0 -55.5 1.5t-45.5 1.5t-55.5 -1.5t-65.5 -1.5q-7 0 -8 5q2 3 5 4h21q28 0 30 19q5 35 -74 220zM460 259l-149 349l-139 -351l170 1h118v1zM347 768q-22 23 -55.5 50.5t-61.5 48t-31 23.5q-12 10 -12 17q0 16 3 19t18 3
q18 0 24 -6q3 -3 22.5 -30.5t47 -62t50.5 -56.5q3 -3 3 -4q0 -4 -4 -4q-2 0 -4 2z" />
    <glyph glyph-name="Aacute" unicode="&#xc1;" horiz-adv-x="711" 
d="M465 248l-117 -3q-89 0 -179 3l-17 -42q-36 -89 -36 -149q0 -49 56 -49q4 0 15 1.5t13 1.5q7 0 7 -5q0 -6 -12 -6q-9 0 -57.5 1t-56.5 1q-5 0 -37 -1t-46 -1q-6 0 -6 5q0 4 6 4h4q40 0 72 60q35 59 66 142l193 482q1 3 7 3h10q8 0 10 -3l182 -434q51 -120 77 -170.5
t42.5 -65t42.5 -14.5h8q7 0 7 -4q0 -5 -6 -5q-16 0 -55.5 1.5t-45.5 1.5t-55.5 -1.5t-65.5 -1.5q-7 0 -8 5q2 3 5 4h21q28 0 30 19q5 35 -74 220zM460 259l-149 349l-139 -351l170 1h118v1zM347 768q-2 -2 -4 -2q-4 0 -4 4q0 1 3 4q23 22 50.5 56.5t47 62t22.5 30.5
q6 6 24 6q15 0 18 -3t3 -19q0 -7 -12 -17q-3 -3 -31 -23.5t-61.5 -48t-55.5 -50.5z" />
    <glyph glyph-name="Acircumflex" unicode="&#xc2;" horiz-adv-x="711" 
d="M465 248l-117 -3q-89 0 -179 3l-17 -42q-36 -89 -36 -149q0 -49 56 -49q4 0 15 1.5t13 1.5q7 0 7 -5q0 -6 -12 -6q-9 0 -57.5 1t-56.5 1q-5 0 -37 -1t-46 -1q-6 0 -6 5q0 4 6 4h4q40 0 72 60q35 59 66 142l193 482q1 3 7 3h10q8 0 10 -3l182 -434q51 -120 77 -170.5
t42.5 -65t42.5 -14.5h8q7 0 7 -4q0 -5 -6 -5q-16 0 -55.5 1.5t-45.5 1.5t-55.5 -1.5t-65.5 -1.5q-7 0 -8 5q2 3 5 4h21q28 0 30 19q5 35 -74 220zM460 259l-149 349l-139 -351l170 1h118v1zM349 902q-4 4 -7 0l-82 -122q-14 -19 -34 -19q-9 0 -14.5 4.5t-5.5 9.5q0 10 18 29
q57 59 117 107q1 1 4 1t5 -1q72 -55 121 -97q20 -18 20 -29q0 -7 -6.5 -14t-16.5 -7q-20 0 -35 21q-10 15 -42 58.5t-42 58.5z" />
    <glyph glyph-name="Atilde" unicode="&#xc3;" horiz-adv-x="711" 
d="M465 248l-117 -3q-89 0 -179 3l-17 -42q-36 -89 -36 -149q0 -49 56 -49q4 0 15 1.5t13 1.5q7 0 7 -5q0 -6 -12 -6q-9 0 -57.5 1t-56.5 1q-5 0 -37 -1t-46 -1q-6 0 -6 5q0 4 6 4h4q40 0 72 60q35 59 66 142l193 482q1 3 7 3h10q8 0 10 -3l182 -434q51 -120 77 -170.5
t42.5 -65t42.5 -14.5h8q7 0 7 -4q0 -5 -6 -5q-16 0 -55.5 1.5t-45.5 1.5t-55.5 -1.5t-65.5 -1.5q-7 0 -8 5q2 3 5 4h21q28 0 30 19q5 35 -74 220zM460 259l-149 349l-139 -351l170 1h118v1zM193 792q44 57 61.5 75t34.5 18q22 0 77.5 -29.5t72.5 -29.5q14 0 22.5 8t36.5 47
q5 5 8 3.5t-1 -8.5q-36 -53 -59 -76.5t-45 -23.5q-21 0 -75 31.5t-73 31.5q-8 0 -15.5 -7.5t-37.5 -44.5q-6 -7 -8.5 -4.5t1.5 9.5z" />
    <glyph glyph-name="Adieresis" unicode="&#xc4;" horiz-adv-x="711" 
d="M465 248l-117 -3q-89 0 -179 3l-17 -42q-36 -89 -36 -149q0 -49 56 -49q4 0 15 1.5t13 1.5q7 0 7 -5q0 -6 -12 -6q-9 0 -57.5 1t-56.5 1q-5 0 -37 -1t-46 -1q-6 0 -6 5q0 4 6 4h4q40 0 72 60q35 59 66 142l193 482q1 3 7 3h10q8 0 10 -3l182 -434q51 -120 77 -170.5
t42.5 -65t42.5 -14.5h8q7 0 7 -4q0 -5 -6 -5q-16 0 -55.5 1.5t-45.5 1.5t-55.5 -1.5t-65.5 -1.5q-7 0 -8 5q2 3 5 4h21q28 0 30 19q5 35 -74 220zM460 259l-149 349l-139 -351l170 1h118v1zM199 825q0 20 14.5 35t34.5 15t35 -15t15 -35t-15 -34.5t-35 -14.5t-34.5 14.5
t-14.5 34.5zM397 825q0 20 14.5 35t34.5 15t35 -15t15 -35t-15 -34.5t-35 -14.5t-34.5 14.5t-14.5 34.5z" />
    <glyph glyph-name="Aring" unicode="&#xc5;" horiz-adv-x="711" 
d="M465 248l-117 -3q-89 0 -179 3l-17 -42q-36 -89 -36 -149q0 -49 56 -49q4 0 15 1.5t13 1.5q7 0 7 -5q0 -6 -12 -6q-9 0 -57.5 1t-56.5 1q-5 0 -37 -1t-46 -1q-6 0 -6 5q0 4 6 4h4q40 0 72 60q35 59 66 142l191 478q-26 5 -43 25.5t-17 47.5q0 31 21.5 52.5t52.5 21.5
t52.5 -21.5t21.5 -52.5q0 -27 -16.5 -47t-41.5 -26l181 -430q51 -120 77 -170.5t42.5 -65t42.5 -14.5h8q7 0 7 -4q0 -5 -6 -5q-16 0 -55.5 1.5t-45.5 1.5t-55.5 -1.5t-65.5 -1.5q-7 0 -8 5q2 3 5 4h21q28 0 30 19q5 35 -74 220zM460 259l-149 349l-139 -351l170 1h118v1z
M283 762q0 -26 18.5 -44t43.5 -18t43.5 18t18.5 44t-18.5 44t-43.5 18t-43.5 -18t-18.5 -44z" />
    <glyph glyph-name="AE" unicode="&#xc6;" horiz-adv-x="1007" 
d="M353 245q-69 0 -171 3l-19 -42q-41 -91 -44 -149q-1 -24 12 -36.5t40 -12.5q5 0 16 1.5t12 1.5q7 0 7 -5q-2 -6 -12 -6q-9 0 -57.5 1t-56.5 1q-5 0 -36.5 -1t-44.5 -1q-3 0 -5 1.5t-1 3.5q0 4 6 4h4q37 0 74 60q35 56 75 142l201 434q-9 25 -21 32t-41 7q-6 0 -6 4.5
t6 4.5q16 0 62 -1t52 -1h241q46 0 141 1t108 1l8 -1q-4 -2 -1 -3q4 -2 29 -184l4 -36q1 -5 -3.5 -5t-6.5 5l-5 36q-14 83 -69.5 128.5t-141.5 46.5h-275q-6 0 -4 -6l84 -292h104q88 0 119.5 29t31.5 86v21q0 6 5 6t5 -6q0 -16 -2.5 -76t-2.5 -66q0 -7 2.5 -68t2.5 -69
q0 -6 -5 -6t-5 6v15q0 57 -32 86.5t-120 29.5h-99l32 -111q35 -121 54 -170.5t33.5 -63.5t40.5 -14h69q82 0 136 60t65 142l6 53q0 3 3 4t5.5 -0.5t2.5 -4.5l-6 -54q-22 -199 -31 -207q-4 -4 -133 -4h-109q-16 0 -55.5 1.5t-45.5 1.5t-56.5 -1.5t-66.5 -1.5q-6 0 -6 4.5
t6 4.5h21q29 0 33 21q9 37 -45 218zM468 259l-107 361l-3 8l-172 -371l164 1h118v1z" />
    <glyph glyph-name="Ccedilla" unicode="&#xc7;" horiz-adv-x="756" 
d="M133 346q0 -156 76.5 -251t210.5 -95q234 0 261 267h8l-12 -233q-99 -44 -255 -44q-2 0 -6 0.5t-5 0.5l-41 -62q2 -3 5 -3q68 0 103.5 -22t35.5 -50q0 -46 -36 -92.5t-86 -46.5q-34 0 -59 11t-25 27q0 17 11 29.5t27 12.5q17 0 45 -22.5t52 -22.5q20 0 33 17t13 38
q0 71 -161 70q-11 0 -4 10q71 95 79 106q-155 6 -257.5 106t-102.5 249q0 154 112.5 255.5t270.5 101.5q63 0 135.5 -13t113.5 -31l12 -218h-9q-25 252 -250 252q-134 0 -214.5 -95.5t-80.5 -251.5z" />
    <glyph glyph-name="Egrave" unicode="&#xc8;" horiz-adv-x="622" 
d="M171 434v-69h83q88 0 120 29t32 86v21q0 6 5 6t5 -6q0 -16 -2.5 -76t-2.5 -66q0 -7 2.5 -68t2.5 -69q0 -6 -5 -6t-5 6v15q0 57 -32 86.5t-120 29.5h-83v-192q0 -113 -8 -147q14 0 93.5 -1.5t95.5 -1.5q83 0 142 60.5t69 141.5l6 53q0 3 3 4t5.5 -0.5t2.5 -4.5l-6 -54
q-22 -199 -31 -207q-4 -4 -133 -4l-253 3l-141 -3q-6 0 -7 3q3 3 7 4q32 0 44.5 7.5t19.5 34t11 91.5q4 55 4 294q0 64 -0.5 104t-3.5 70t-6 44t-11.5 22t-15 9t-21.5 1h-18q-6 0 -6 4.5t6 4.5q16 0 60.5 -1.5t50.5 -1.5q4 0 167.5 1.5t184.5 1.5q39 0 47 -4q4 -2 29 -184
l4 -36q1 -5 -3.5 -5t-6.5 5l-5 36q-14 84 -69.5 129.5t-141.5 46.5h-127q-29 0 -34 -18.5t-4 -134.5v-94zM347 768q-22 23 -55.5 50.5t-61.5 48t-31 23.5q-12 10 -12 17q0 16 3 19t18 3q18 0 24 -6q3 -3 22.5 -30.5t47 -62t50.5 -56.5q3 -3 3 -4q0 -4 -4 -4q-2 0 -4 2z" />
    <glyph glyph-name="Eacute" unicode="&#xc9;" horiz-adv-x="622" 
d="M171 434v-69h83q88 0 120 29t32 86v21q0 6 5 6t5 -6q0 -16 -2.5 -76t-2.5 -66q0 -7 2.5 -68t2.5 -69q0 -6 -5 -6t-5 6v15q0 57 -32 86.5t-120 29.5h-83v-192q0 -113 -8 -147q14 0 93.5 -1.5t95.5 -1.5q83 0 142 60.5t69 141.5l6 53q0 3 3 4t5.5 -0.5t2.5 -4.5l-6 -54
q-22 -199 -31 -207q-4 -4 -133 -4l-253 3l-141 -3q-6 0 -7 3q3 3 7 4q32 0 44.5 7.5t19.5 34t11 91.5q4 55 4 294q0 64 -0.5 104t-3.5 70t-6 44t-11.5 22t-15 9t-21.5 1h-18q-6 0 -6 4.5t6 4.5q16 0 60.5 -1.5t50.5 -1.5q4 0 167.5 1.5t184.5 1.5q39 0 47 -4q4 -2 29 -184
l4 -36q1 -5 -3.5 -5t-6.5 5l-5 36q-14 84 -69.5 129.5t-141.5 46.5h-127q-29 0 -34 -18.5t-4 -134.5v-94zM288 768q-2 -2 -4 -2q-4 0 -4 4q0 1 3 4q23 22 50.5 56.5t47 62t22.5 30.5q6 6 24 6q15 0 18 -3t3 -19q0 -7 -12 -17q-3 -3 -31 -23.5t-61.5 -48t-55.5 -50.5z" />
    <glyph glyph-name="Ecircumflex" unicode="&#xca;" horiz-adv-x="622" 
d="M171 434v-69h83q88 0 120 29t32 86v21q0 6 5 6t5 -6q0 -16 -2.5 -76t-2.5 -66q0 -7 2.5 -68t2.5 -69q0 -6 -5 -6t-5 6v15q0 57 -32 86.5t-120 29.5h-83v-192q0 -113 -8 -147q14 0 93.5 -1.5t95.5 -1.5q83 0 142 60.5t69 141.5l6 53q0 3 3 4t5.5 -0.5t2.5 -4.5l-6 -54
q-22 -199 -31 -207q-4 -4 -133 -4l-253 3l-141 -3q-6 0 -7 3q3 3 7 4q32 0 44.5 7.5t19.5 34t11 91.5q4 55 4 294q0 64 -0.5 104t-3.5 70t-6 44t-11.5 22t-15 9t-21.5 1h-18q-6 0 -6 4.5t6 4.5q16 0 60.5 -1.5t50.5 -1.5q4 0 167.5 1.5t184.5 1.5q39 0 47 -4q4 -2 29 -184
l4 -36q1 -5 -3.5 -5t-6.5 5l-5 36q-14 84 -69.5 129.5t-141.5 46.5h-127q-29 0 -34 -18.5t-4 -134.5v-94zM310 912q-4 4 -7 0l-82 -122q-14 -19 -34 -19q-9 0 -14.5 4.5t-5.5 9.5q0 10 18 29q57 59 117 107q2 1 5 1t4 -1q72 -55 121 -97q20 -18 20 -29q0 -7 -6.5 -14
t-16.5 -7q-20 0 -35 21q-10 15 -41.5 58.5t-42.5 58.5z" />
    <glyph glyph-name="Edieresis" unicode="&#xcb;" horiz-adv-x="622" 
d="M171 434v-69h83q88 0 120 29t32 86v21q0 6 5 6t5 -6q0 -16 -2.5 -76t-2.5 -66q0 -7 2.5 -68t2.5 -69q0 -6 -5 -6t-5 6v15q0 57 -32 86.5t-120 29.5h-83v-192q0 -113 -8 -147q14 0 93.5 -1.5t95.5 -1.5q83 0 142 60.5t69 141.5l6 53q0 3 3 4t5.5 -0.5t2.5 -4.5l-6 -54
q-22 -199 -31 -207q-4 -4 -133 -4l-253 3l-141 -3q-6 0 -7 3q3 3 7 4q32 0 44.5 7.5t19.5 34t11 91.5q4 55 4 294q0 64 -0.5 104t-3.5 70t-6 44t-11.5 22t-15 9t-21.5 1h-18q-6 0 -6 4.5t6 4.5q16 0 60.5 -1.5t50.5 -1.5q4 0 167.5 1.5t184.5 1.5q39 0 47 -4q4 -2 29 -184
l4 -36q1 -5 -3.5 -5t-6.5 5l-5 36q-14 84 -69.5 129.5t-141.5 46.5h-127q-29 0 -34 -18.5t-4 -134.5v-94zM168 830q0 20 14.5 35t34.5 15t35 -15t15 -35t-15 -34.5t-35 -14.5t-34.5 14.5t-14.5 34.5zM366 830q0 20 14.5 35t34.5 15t35 -15t15 -35t-15 -34.5t-35 -14.5
t-34.5 14.5t-14.5 34.5z" />
    <glyph glyph-name="Igrave" unicode="&#xcc;" horiz-adv-x="281" 
d="M102 259v175q0 99 -1 144t-8 72t-15.5 30.5t-29.5 3.5h-21q-6 0 -6 4.5t6 4.5q16 0 62.5 -1.5t51.5 -1.5q6 0 51.5 1.5t61.5 1.5q6 0 6 -4.5t-6 -4.5h-21q-21 0 -29.5 -3.5t-15.5 -30.5t-8 -72t-1 -144v-175q0 -99 1 -144t8 -72t15.5 -30.5t29.5 -3.5h21q6 0 6 -4.5
t-6 -4.5q-16 0 -61.5 1.5t-51.5 1.5q-5 0 -51.5 -1.5t-62.5 -1.5q-6 0 -6 4.5t6 4.5h21q21 0 29.5 3.5t15.5 30.5t8 72t1 144zM147 768q-22 23 -55.5 50.5t-61.5 48t-31 23.5q-12 10 -12 17q0 16 3 19t18 3q18 0 24 -6q3 -3 22.5 -30.5t47 -62t50.5 -56.5q3 -3 3 -4
q0 -4 -4 -4q-2 0 -4 2z" />
    <glyph glyph-name="Iacute" unicode="&#xcd;" horiz-adv-x="281" 
d="M102 259v175q0 99 -1 144t-8 72t-15.5 30.5t-29.5 3.5h-21q-6 0 -6 4.5t6 4.5q16 0 62.5 -1.5t51.5 -1.5q6 0 51.5 1.5t61.5 1.5q6 0 6 -4.5t-6 -4.5h-21q-21 0 -29.5 -3.5t-15.5 -30.5t-8 -72t-1 -144v-175q0 -99 1 -144t8 -72t15.5 -30.5t29.5 -3.5h21q6 0 6 -4.5
t-6 -4.5q-16 0 -61.5 1.5t-51.5 1.5q-5 0 -51.5 -1.5t-62.5 -1.5q-6 0 -6 4.5t6 4.5h21q21 0 29.5 3.5t15.5 30.5t8 72t1 144zM125 768q-2 -2 -4 -2q-4 0 -4 4q0 1 3 4q23 22 50.5 56.5t47 62t22.5 30.5q6 6 24 6q15 0 18 -3t3 -19q0 -7 -12 -17q-3 -3 -31 -23.5t-61.5 -48
t-55.5 -50.5z" />
    <glyph glyph-name="Icircumflex" unicode="&#xce;" horiz-adv-x="281" 
d="M102 259v175q0 99 -1 144t-8 72t-15.5 30.5t-29.5 3.5h-21q-6 0 -6 4.5t6 4.5q16 0 62.5 -1.5t51.5 -1.5q6 0 51.5 1.5t61.5 1.5q6 0 6 -4.5t-6 -4.5h-21q-21 0 -29.5 -3.5t-15.5 -30.5t-8 -72t-1 -144v-175q0 -99 1 -144t8 -72t15.5 -30.5t29.5 -3.5h21q6 0 6 -4.5
t-6 -4.5q-16 0 -61.5 1.5t-51.5 1.5q-5 0 -51.5 -1.5t-62.5 -1.5q-6 0 -6 4.5t6 4.5h21q21 0 29.5 3.5t15.5 30.5t8 72t1 144zM141 912q-4 4 -7 0l-82 -122q-14 -19 -34 -19q-9 0 -14.5 4.5t-5.5 9.5q0 10 18 29q57 59 117 107q1 1 4 1t5 -1q72 -55 121 -97q20 -18 20 -29
q0 -7 -6.5 -14t-16.5 -7q-20 0 -35 21q-10 15 -41.5 58.5t-42.5 58.5z" />
    <glyph glyph-name="Idieresis" unicode="&#xcf;" horiz-adv-x="281" 
d="M102 259v175q0 99 -1 144t-8 72t-15.5 30.5t-29.5 3.5h-21q-6 0 -6 4.5t6 4.5q16 0 62.5 -1.5t51.5 -1.5q6 0 51.5 1.5t61.5 1.5q6 0 6 -4.5t-6 -4.5h-21q-21 0 -29.5 -3.5t-15.5 -30.5t-8 -72t-1 -144v-175q0 -99 1 -144t8 -72t15.5 -30.5t29.5 -3.5h21q6 0 6 -4.5
t-6 -4.5q-16 0 -61.5 1.5t-51.5 1.5q-5 0 -51.5 -1.5t-62.5 -1.5q-6 0 -6 4.5t6 4.5h21q21 0 29.5 3.5t15.5 30.5t8 72t1 144zM192 830q0 20 14.5 35t34.5 15t35 -15t15 -35t-15 -34.5t-35 -14.5t-34.5 14.5t-14.5 34.5zM-6 830q0 20 14.5 35t34.5 15t35 -15t15 -35
t-15 -34.5t-35 -14.5t-34.5 14.5t-14.5 34.5z" />
    <glyph glyph-name="Eth" unicode="&#xd0;" horiz-adv-x="733" 
d="M690 346q0 -152 -107.5 -249t-270.5 -97l-155 3l-141 -3q-6 0 -7 3q3 3 7 4q32 0 44.5 7.5t19.5 34t11 91.5q2 29 2 169q-7 0 -21.5 -0.5t-22.5 -0.5q-35 -1 -35 2q0 7 46 51q3 0 13.5 -0.5t18.5 -0.5v33q0 22 -1.5 96.5t-1.5 103.5q0 67 -9 79t-57 12q-6 0 -6 4.5t6 4.5
q3 0 58.5 -1t63.5 -1q6 0 76.5 1t86.5 1q159 0 270.5 -97t111.5 -250zM601 346q0 154 -80.5 246t-214.5 92h-66q-51 0 -60 -33t-9 -217v-74q82 0 123 1q35 1 35 -1q0 -7 -46 -51q-5 0 -46 0.5t-66 0.5v-149q0 -113 -8 -147q9 0 67.5 -2t83.5 -2q135 0 211 90.5t76 245.5z
" />
    <glyph glyph-name="Ntilde" unicode="&#xd1;" horiz-adv-x="716" 
d="M3 685h-4q-3 0 -4.5 2t0 4t4.5 2q46 0 81 1t52 2l16 1q7 0 10 -6q10 -19 39 -53l416 -517v313q0 71 -8 120.5t-18 74t-27.5 38t-29.5 15.5t-31 2h-14q-6 0 -6 4.5t6 4.5q16 0 72 -1.5t62 -1.5q5 0 33.5 1.5t44.5 1.5q6 0 6 -4.5t-6 -4.5h-7q-22 0 -31.5 -4.5t-18.5 -28.5
t-11.5 -74t-2.5 -143v-427q0 -10 -8 -10q-9 0 -25 22l-482 601l-1 -361q0 -71 6.5 -120.5t15.5 -74t25.5 -38t27.5 -15.5t30 -2h14q3 0 4.5 -2.5t0 -4.5t-4.5 -2q-17 -1 -73.5 1t-58.5 2q-6 0 -35.5 -1.5t-45.5 -1.5q-5 0 -5 4q1 4 6 5h6q27 1 40 12.5t23.5 68t10.5 169.5
l1 359q0 15 -16 31q-36 36 -79 36zM207 787q44 57 61.5 75t34.5 18q22 0 77.5 -29.5t72.5 -29.5q14 0 22.5 8t36.5 47q5 5 8 3.5t-1 -8.5q-36 -53 -59 -76.5t-45 -23.5q-21 0 -75 31.5t-73 31.5q-8 0 -15.5 -7.5t-37.5 -44.5q-6 -7 -8.5 -4.5t1.5 9.5z" />
    <glyph glyph-name="Ograve" unicode="&#xd2;" horiz-adv-x="794" 
d="M43 346q0 153 105 255t250 102q144 0 248 -102.5t104 -254.5q0 -151 -107 -253.5t-251 -102.5q-143 0 -246 102.5t-103 253.5zM133 346q0 -157 67.5 -251.5t187.5 -94.5q122 0 197.5 96t75.5 250q0 157 -69 252t-190 95q-122 0 -195.5 -96t-73.5 -251zM443 758
q-22 23 -55.5 50.5t-61.5 48t-31 23.5q-12 10 -12 17q0 16 3 19t18 3q18 0 24 -6q3 -3 22.5 -30.5t47 -62t50.5 -56.5q3 -3 3 -4q0 -4 -4 -4q-2 0 -4 2z" />
    <glyph glyph-name="Oacute" unicode="&#xd3;" horiz-adv-x="794" 
d="M43 346q0 153 105 255t250 102q144 0 248 -102.5t104 -254.5q0 -151 -107 -253.5t-251 -102.5q-143 0 -246 102.5t-103 253.5zM133 346q0 -157 67.5 -251.5t187.5 -94.5q122 0 197.5 96t75.5 250q0 157 -69 252t-190 95q-122 0 -195.5 -96t-73.5 -251zM341 758
q-2 -2 -4 -2q-4 0 -4 4q0 1 3 4q23 22 50.5 56.5t47 62t22.5 30.5q6 6 24 6q15 0 18 -3t3 -19q0 -7 -12 -17q-3 -3 -31 -23.5t-61.5 -48t-55.5 -50.5z" />
    <glyph glyph-name="Ocircumflex" unicode="&#xd4;" horiz-adv-x="794" 
d="M43 346q0 153 105 255t250 102q144 0 248 -102.5t104 -254.5q0 -151 -107 -253.5t-251 -102.5q-143 0 -246 102.5t-103 253.5zM133 346q0 -157 67.5 -251.5t187.5 -94.5q122 0 197.5 96t75.5 250q0 157 -69 252t-190 95q-122 0 -195.5 -96t-73.5 -251zM405 912q-4 4 -7 0
l-82 -122q-14 -19 -34 -19q-9 0 -14.5 4.5t-5.5 9.5q0 10 18 29q57 59 117 107q1 1 4 1t5 -1q72 -55 121 -97q20 -18 20 -29q0 -7 -6.5 -14t-16.5 -7q-20 0 -35 21q-10 15 -42 58.5t-42 58.5z" />
    <glyph glyph-name="Otilde" unicode="&#xd5;" horiz-adv-x="794" 
d="M43 346q0 153 105 255t250 102q144 0 248 -102.5t104 -254.5q0 -151 -107 -253.5t-251 -102.5q-143 0 -246 102.5t-103 253.5zM133 346q0 -157 67.5 -251.5t187.5 -94.5q122 0 197.5 96t75.5 250q0 157 -69 252t-190 95q-122 0 -195.5 -96t-73.5 -251zM253 792
q44 57 61.5 75t34.5 18q22 0 77.5 -29.5t72.5 -29.5q14 0 22.5 8t36.5 47q5 5 8 3.5t-1 -8.5q-36 -53 -59 -76.5t-45 -23.5q-21 0 -75 31.5t-73 31.5q-8 0 -15.5 -7.5t-37.5 -44.5q-6 -7 -8.5 -4.5t1.5 9.5z" />
    <glyph glyph-name="Odieresis" unicode="&#xd6;" horiz-adv-x="794" 
d="M43 346q0 153 105 255t250 102q144 0 248 -102.5t104 -254.5q0 -151 -107 -253.5t-251 -102.5q-143 0 -246 102.5t-103 253.5zM133 346q0 -157 67.5 -251.5t187.5 -94.5q122 0 197.5 96t75.5 250q0 157 -69 252t-190 95q-122 0 -195.5 -96t-73.5 -251zM454 830
q0 20 14.5 35t34.5 15t35 -15t15 -35t-15 -34.5t-35 -14.5t-34.5 14.5t-14.5 34.5zM256 830q0 20 14.5 35t34.5 15t35 -15t15 -35t-15 -34.5t-35 -14.5t-34.5 14.5t-14.5 34.5z" />
    <glyph glyph-name="multiply" unicode="&#xd7;" 
d="M139 93q-11 1 -23 19q62 49 152 139q-46 47 -144 131q-1 9 16 21q28 -36 136 -144l1 1q27 27 137 147q11 0 20 -15q-16 -11 -35.5 -28.5t-32.5 -30.5t-40 -40.5t-40 -40.5l-1 -1q78 -78 146 -132q0 -10 -18 -20q-11 15 -27.5 33.5t-30 32.5t-38.5 38.5t-40 39.5
q-100 -100 -138 -150z" />
    <glyph glyph-name="Oslash" unicode="&#xd8;" horiz-adv-x="794" 
d="M43 346q0 153 105 255t250 102q96 0 180 -50l105 173q12 1 15 -0.5t12 -8.5q-54 -75 -117 -174q72 -48 114.5 -125.5t42.5 -171.5q0 -151 -107 -253.5t-251 -102.5q-95 0 -177 49q-40 -64 -110 -183q-13 -2 -16.5 -1.5t-11.5 7.5q49 72 123 186q-72 48 -114.5 125.5
t-42.5 172.5zM133 346q0 -179 84 -272q33 52 92 144.5t76 119.5l178 292q-66 63 -161 63q-122 0 -195.5 -96t-73.5 -251zM397 332q-40 -63 -168 -270q64 -62 159 -62q122 0 197.5 96t75.5 250q0 177 -85 271q-55 -84 -179 -285z" />
    <glyph glyph-name="Ugrave" unicode="&#xd9;" horiz-adv-x="665" 
d="M567 244v190q0 71 -7.5 120.5t-17.5 74t-27 38t-29 15.5t-31 2h-9q-6 0 -6 4.5t6 4.5q16 0 68.5 -1.5t58.5 -1.5t35 1.5t45 1.5q6 0 6 -4.5t-6 -4.5h-7q-28 0 -39 -10.5t-18.5 -64.5t-7.5 -175v-190q0 -105 -69 -179.5t-185 -74.5q-110 0 -174.5 70t-64.5 192v182
q0 99 -1 144t-8 72t-15 30.5t-29 3.5h-14q-6 0 -6 4.5t6 4.5q16 0 58 -1.5t48 -1.5q5 0 49.5 1.5t60.5 1.5q6 0 6 -4.5t-6 -4.5h-18q-21 0 -29.5 -3.5t-15.5 -30.5t-8.5 -72t-1.5 -144l-1 -155q0 -121 57.5 -189t156.5 -68q80 0 135 64.5t55 157.5zM389 754
q-22 23 -55.5 50.5t-61.5 48t-31 23.5q-12 10 -12 17q0 16 3 19t18 3q18 0 24 -6q3 -3 22.5 -30.5t47 -62t50.5 -56.5q3 -3 3 -4q0 -4 -4 -4q-2 0 -4 2z" />
    <glyph glyph-name="Uacute" unicode="&#xda;" horiz-adv-x="665" 
d="M567 244v190q0 71 -7.5 120.5t-17.5 74t-27 38t-29 15.5t-31 2h-9q-6 0 -6 4.5t6 4.5q16 0 68.5 -1.5t58.5 -1.5t35 1.5t45 1.5q6 0 6 -4.5t-6 -4.5h-7q-28 0 -39 -10.5t-18.5 -64.5t-7.5 -175v-190q0 -105 -69 -179.5t-185 -74.5q-110 0 -174.5 70t-64.5 192v182
q0 99 -1 144t-8 72t-15 30.5t-29 3.5h-14q-6 0 -6 4.5t6 4.5q16 0 58 -1.5t48 -1.5q5 0 49.5 1.5t60.5 1.5q6 0 6 -4.5t-6 -4.5h-18q-21 0 -29.5 -3.5t-15.5 -30.5t-8.5 -72t-1.5 -144l-1 -155q0 -121 57.5 -189t156.5 -68q80 0 135 64.5t55 157.5zM288 753q-2 -2 -4 -2
q-4 0 -4 4q0 1 3 4q23 22 50.5 56.5t47 62t22.5 30.5q6 6 24 6q15 0 18 -3t3 -19q0 -7 -12 -17q-3 -3 -31 -23.5t-61.5 -48t-55.5 -50.5z" />
    <glyph glyph-name="Ucircumflex" unicode="&#xdb;" horiz-adv-x="665" 
d="M567 244v190q0 71 -7.5 120.5t-17.5 74t-27 38t-29 15.5t-31 2h-9q-6 0 -6 4.5t6 4.5q16 0 68.5 -1.5t58.5 -1.5t35 1.5t45 1.5q6 0 6 -4.5t-6 -4.5h-7q-28 0 -39 -10.5t-18.5 -64.5t-7.5 -175v-190q0 -105 -69 -179.5t-185 -74.5q-110 0 -174.5 70t-64.5 192v182
q0 99 -1 144t-8 72t-15 30.5t-29 3.5h-14q-6 0 -6 4.5t6 4.5q16 0 58 -1.5t48 -1.5q5 0 49.5 1.5t60.5 1.5q6 0 6 -4.5t-6 -4.5h-18q-21 0 -29.5 -3.5t-15.5 -30.5t-8.5 -72t-1.5 -144l-1 -155q0 -121 57.5 -189t156.5 -68q80 0 135 64.5t55 157.5zM350 902q-4 4 -7 0
l-82 -122q-14 -19 -34 -19q-9 0 -14.5 4.5t-5.5 9.5q0 10 18 29q57 59 117 107q2 1 5 1t4 -1q72 -55 121 -97q20 -18 20 -29q0 -7 -6.5 -14t-16.5 -7q-20 0 -35 21q-10 15 -41.5 58.5t-42.5 58.5z" />
    <glyph glyph-name="Udieresis" unicode="&#xdc;" horiz-adv-x="665" 
d="M567 244v190q0 71 -7.5 120.5t-17.5 74t-27 38t-29 15.5t-31 2h-9q-6 0 -6 4.5t6 4.5q16 0 68.5 -1.5t58.5 -1.5t35 1.5t45 1.5q6 0 6 -4.5t-6 -4.5h-7q-28 0 -39 -10.5t-18.5 -64.5t-7.5 -175v-190q0 -105 -69 -179.5t-185 -74.5q-110 0 -174.5 70t-64.5 192v182
q0 99 -1 144t-8 72t-15 30.5t-29 3.5h-14q-6 0 -6 4.5t6 4.5q16 0 58 -1.5t48 -1.5q5 0 49.5 1.5t60.5 1.5q6 0 6 -4.5t-6 -4.5h-18q-21 0 -29.5 -3.5t-15.5 -30.5t-8.5 -72t-1.5 -144l-1 -155q0 -121 57.5 -189t156.5 -68q80 0 135 64.5t55 157.5zM196 810q0 20 14.5 35
t34.5 15t35 -15t15 -35t-15 -34.5t-35 -14.5t-34.5 14.5t-14.5 34.5zM394 810q0 20 14.5 35t34.5 15t35 -15t15 -35t-15 -34.5t-35 -14.5t-34.5 14.5t-14.5 34.5z" />
    <glyph glyph-name="Yacute" unicode="&#xdd;" horiz-adv-x="615" 
d="M459 509l-110 -192v-58q0 -99 1 -144t8 -72t15.5 -30.5t29.5 -3.5h18q6 0 6 -4.5t-6 -4.5q-16 0 -59.5 1.5t-49.5 1.5q-5 0 -49.5 -1.5t-60.5 -1.5q-6 0 -6 4.5t6 4.5h18q21 0 29.5 3.5t15.5 30.5t8 72t1 144v55l-108 195q-60 108 -88.5 141.5t-65.5 33.5h-8q-7 0 -7 4
q0 5 6 5q16 0 54.5 -1.5t44.5 -1.5t55.5 1.5t65.5 1.5q7 0 8 -5q-2 -3 -5 -4h-21q-19 0 -25.5 -8t0 -31t21.5 -54t46 -87l95 -175l106 183q11 19 21.5 44t17.5 56t-5 52t-46 21q-5 0 -16 -2t-12 -2q-7 0 -7 6t12 6q9 0 53 -1t52 -1q5 0 50 1t59 1q7 0 4 -5q-1 -4 -6 -4h-2
q-26 0 -63.5 -38.5t-60.5 -73t-40 -63.5zM270 748q-2 -2 -4 -2q-4 0 -4 4q0 1 3 4q23 22 50.5 56.5t47 62t22.5 30.5q6 6 24 6q15 0 18 -3t3 -19q0 -7 -12 -17q-3 -3 -31 -23.5t-61.5 -48t-55.5 -50.5z" />
    <glyph glyph-name="Thorn" unicode="&#xde;" horiz-adv-x="606" 
d="M95 259v175q0 99 -1 144t-8 72t-15.5 30.5t-29.5 3.5h-21q-6 0 -6 4.5t6 4.5q16 0 62.5 -1.5t51.5 -1.5q6 0 51.5 1.5t61.5 1.5q6 0 6 -4.5t-6 -4.5h-21q-23 0 -32 -6.5t-15 -35.5t-7 -97h142q123 0 193.5 -50.5t70.5 -142.5t-72 -148.5t-186 -56.5h-148q1 -67 7 -96
t15 -35.5t32 -6.5h21q6 0 6 -4.5t-6 -4.5q-16 0 -61.5 1.5t-51.5 1.5q-5 0 -51.5 -1.5t-62.5 -1.5q-6 0 -6 4.5t6 4.5h21q21 0 29.5 3.5t15.5 30.5t8 72t1 144zM172 157h126q92 0 143 52.5t51 143.5q0 182 -193 182h-127v-378z" />
    <glyph glyph-name="germandbls" unicode="&#xdf;" horiz-adv-x="554" 
d="M18 0q-6 0 -6 4.5t6 4.5q41 0 49.5 16t8.5 85q-1 321 -1 325v10h-58q-14 0 -14 6l36 49h44q26 108 119 193t163 85q50 0 79.5 -28t29.5 -69q0 -29 -22.5 -63t-49 -61.5t-49 -66t-22.5 -75.5q0 -39 20.5 -68.5t49.5 -49.5t58.5 -40t50 -50t20.5 -70q0 -55 -42 -97.5
t-94 -42.5q-72 0 -106 22.5t-34 56.5q0 20 13 32t29 12q36 0 39 -51q4 -65 60 -65q39 0 61 24t22 67q0 35 -20 62.5t-48.5 46t-57 38t-48.5 49.5t-20 69q0 42 32.5 93t65 100t32.5 88q0 37 -29 59.5t-78 22.5q-157 0 -157 -230l1 -383q1 -73 10 -87t54 -14q6 0 6 -4.5
t-6 -4.5q-16 0 -55 1t-45 1t-43.5 -1t-53.5 -1z" />
    <glyph glyph-name="agrave" unicode="&#xe0;" horiz-adv-x="514" 
d="M156 -11q-58 0 -91 32t-33 80q0 108 250 205l83 32q-3 92 -27.5 127.5t-79.5 35.5q-31 0 -54.5 -14t-34 -28.5t-23.5 -39t-17 -29.5q-12 -18 -45 -18q-40 0 -40 23q0 25 35 47q39 25 93 46.5t102 21.5q78 0 123.5 -44t45.5 -138q0 -37 -4 -120t-4 -99q0 -85 28 -85
q12 0 27.5 18t26.5 37q2 4 6.5 3.5t6 -4t-0.5 -7.5q-16 -22 -54 -51.5t-64 -29.5q-57 0 -57 71q0 40 4 82q-26 -44 -90.5 -99t-111.5 -55zM102 130q0 -39 33 -68t71 -29t92 51.5t62 81.5q6 78 6 144v21l-82 -35q-111 -47 -146.5 -79t-35.5 -87zM340 559q-22 23 -55.5 50.5
t-61.5 48t-31 23.5q-12 10 -12 17q0 16 3 19t18 3q18 0 24 -6q3 -3 22.5 -30.5t47 -62t50.5 -56.5q3 -3 3 -4q0 -4 -4 -4q-2 0 -4 2z" />
    <glyph glyph-name="aacute" unicode="&#xe1;" horiz-adv-x="514" 
d="M156 -11q-58 0 -91 32t-33 80q0 108 250 205l83 32q-3 92 -27.5 127.5t-79.5 35.5q-31 0 -54.5 -14t-34 -28.5t-23.5 -39t-17 -29.5q-12 -18 -45 -18q-40 0 -40 23q0 25 35 47q39 25 93 46.5t102 21.5q78 0 123.5 -44t45.5 -138q0 -37 -4 -120t-4 -99q0 -85 28 -85
q12 0 27.5 18t26.5 37q2 4 6.5 3.5t6 -4t-0.5 -7.5q-16 -22 -54 -51.5t-64 -29.5q-57 0 -57 71q0 40 4 82q-26 -44 -90.5 -99t-111.5 -55zM102 130q0 -39 33 -68t71 -29t92 51.5t62 81.5q6 78 6 144v21l-82 -35q-111 -47 -146.5 -79t-35.5 -87zM226 559q-2 -2 -4 -2
q-4 0 -4 4q0 1 3 4q23 22 50.5 56.5t47 62t22.5 30.5q6 6 24 6q15 0 18 -3t3 -19q0 -7 -12 -17q-3 -3 -31 -23.5t-61.5 -48t-55.5 -50.5z" />
    <glyph glyph-name="acircumflex" unicode="&#xe2;" horiz-adv-x="514" 
d="M156 -11q-58 0 -91 32t-33 80q0 108 250 205l83 32q-3 92 -27.5 127.5t-79.5 35.5q-31 0 -54.5 -14t-34 -28.5t-23.5 -39t-17 -29.5q-12 -18 -45 -18q-40 0 -40 23q0 25 35 47q39 25 93 46.5t102 21.5q78 0 123.5 -44t45.5 -138q0 -37 -4 -120t-4 -99q0 -85 28 -85
q12 0 27.5 18t26.5 37q2 4 6.5 3.5t6 -4t-0.5 -7.5q-16 -22 -54 -51.5t-64 -29.5q-57 0 -57 71q0 40 4 82q-26 -44 -90.5 -99t-111.5 -55zM102 130q0 -39 33 -68t71 -29t92 51.5t62 81.5q6 78 6 144v21l-82 -35q-111 -47 -146.5 -79t-35.5 -87zM266 718q-4 4 -7 0l-82 -122
q-14 -19 -34 -19q-9 0 -14.5 4.5t-5.5 9.5q0 10 18 29q57 59 117 107q2 1 5 1t4 -1q72 -55 121 -97q20 -18 20 -29q0 -7 -6.5 -14t-16.5 -7q-20 0 -35 21q-10 15 -41.5 58.5t-42.5 58.5z" />
    <glyph glyph-name="atilde" unicode="&#xe3;" horiz-adv-x="514" 
d="M156 -11q-58 0 -91 32t-33 80q0 108 250 205l83 32q-3 92 -27.5 127.5t-79.5 35.5q-31 0 -54.5 -14t-34 -28.5t-23.5 -39t-17 -29.5q-12 -18 -45 -18q-40 0 -40 23q0 25 35 47q39 25 93 46.5t102 21.5q78 0 123.5 -44t45.5 -138q0 -37 -4 -120t-4 -99q0 -85 28 -85
q12 0 27.5 18t26.5 37q2 4 6.5 3.5t6 -4t-0.5 -7.5q-16 -22 -54 -51.5t-64 -29.5q-57 0 -57 71q0 40 4 82q-26 -44 -90.5 -99t-111.5 -55zM102 130q0 -39 33 -68t71 -29t92 51.5t62 81.5q6 78 6 144v21l-82 -35q-111 -47 -146.5 -79t-35.5 -87zM116 593q44 57 61.5 75
t34.5 18q22 0 77.5 -29.5t72.5 -29.5q14 0 22.5 8t36.5 47q5 5 8 3.5t-1 -8.5q-36 -53 -59 -76.5t-45 -23.5q-21 0 -75 31.5t-73 31.5q-8 0 -15.5 -7.5t-37.5 -44.5q-6 -7 -8.5 -4.5t1.5 9.5z" />
    <glyph glyph-name="adieresis" unicode="&#xe4;" horiz-adv-x="514" 
d="M156 -11q-58 0 -91 32t-33 80q0 108 250 205l83 32q-3 92 -27.5 127.5t-79.5 35.5q-31 0 -54.5 -14t-34 -28.5t-23.5 -39t-17 -29.5q-12 -18 -45 -18q-40 0 -40 23q0 25 35 47q39 25 93 46.5t102 21.5q78 0 123.5 -44t45.5 -138q0 -37 -4 -120t-4 -99q0 -85 28 -85
q12 0 27.5 18t26.5 37q2 4 6.5 3.5t6 -4t-0.5 -7.5q-16 -22 -54 -51.5t-64 -29.5q-57 0 -57 71q0 40 4 82q-26 -44 -90.5 -99t-111.5 -55zM102 130q0 -39 33 -68t71 -29t92 51.5t62 81.5q6 78 6 144v21l-82 -35q-111 -47 -146.5 -79t-35.5 -87zM314 636q0 20 14.5 35
t34.5 15t35 -15t15 -35t-15 -34.5t-35 -14.5t-34.5 14.5t-14.5 34.5zM116 636q0 20 14.5 35t34.5 15t35 -15t15 -35t-15 -34.5t-35 -14.5t-34.5 14.5t-14.5 34.5z" />
    <glyph glyph-name="aring" unicode="&#xe5;" horiz-adv-x="514" 
d="M156 -11q-58 0 -91 32t-33 80q0 108 250 205l83 32q-3 92 -27.5 127.5t-79.5 35.5q-31 0 -54.5 -14t-34 -28.5t-23.5 -39t-17 -29.5q-12 -18 -45 -18q-40 0 -40 23q0 25 35 47q39 25 93 46.5t102 21.5q78 0 123.5 -44t45.5 -138q0 -37 -4 -120t-4 -99q0 -85 28 -85
q12 0 27.5 18t26.5 37q2 4 6.5 3.5t6 -4t-0.5 -7.5q-16 -22 -54 -51.5t-64 -29.5q-57 0 -57 71q0 40 4 82q-26 -44 -90.5 -99t-111.5 -55zM102 130q0 -39 33 -68t71 -29t92 51.5t62 81.5q6 78 6 144v21l-82 -35q-111 -47 -146.5 -79t-35.5 -87zM195 649q0 31 21.5 52.5
t52.5 21.5t52.5 -21.5t21.5 -52.5t-21.5 -52.5t-52.5 -21.5t-52.5 21.5t-21.5 52.5zM207 649q0 -25 18.5 -43.5t43.5 -18.5t43.5 18.5t18.5 43.5t-18.5 43.5t-43.5 18.5t-43.5 -18.5t-18.5 -43.5z" />
    <glyph glyph-name="ae" unicode="&#xe6;" horiz-adv-x="864" 
d="M258 501q-31 0 -54.5 -14t-34 -28.5t-23.5 -39t-17 -29.5q-12 -18 -45 -18q-40 0 -40 23q0 25 35 47q39 25 93 46.5t102 21.5q131 0 161 -115q43 52 103.5 83.5t121.5 31.5q51 0 88.5 -14.5t55.5 -36t25 -43.5t5 -41q-4 -31 -42 -31h-342q-8 -37 -8 -77
q0 -92 70.5 -155.5t171.5 -63.5q87 0 146 49.5t103 144.5q4 11 8 7q2 -2 -1 -9q-46 -106 -124.5 -178t-182.5 -72q-93 0 -160 49t-94 130q-24 -48 -96 -114t-127 -66q-58 0 -91 32t-33 80q0 108 250 205l93 36q-4 88 -33 123.5t-84 35.5zM376 183v127q0 16 -1 24l-91 -38
q-111 -47 -146.5 -79t-35.5 -87q0 -39 33 -68t71 -29q42 0 98.5 56t71.5 94zM698 356q31 0 40 9q9 11 9 32q0 33 -31 62t-84 29q-66 0 -113.5 -35t-66.5 -101q62 0 141 2t105 2z" />
    <glyph glyph-name="ccedilla" unicode="&#xe7;" horiz-adv-x="542" 
d="M388 -146q0 -46 -36 -92.5t-86 -46.5q-34 0 -59 11t-25 27q0 17 11 29.5t27 12.5q17 0 45 -22.5t52 -22.5q20 0 33 17t13 38q0 71 -161 70q-11 0 -4 10q11 15 39 52.5t39 52.5q-106 1 -172.5 67.5t-66.5 172.5q0 108 87.5 194t197.5 86q70 0 118.5 -23.5t48.5 -51.5
q0 -15 -13.5 -28t-35.5 -13q-13 0 -29 14.5t-30 32.5t-41 32.5t-60 14.5q-77 0 -127.5 -57t-50.5 -156q0 -100 64 -164.5t165 -64.5q134 0 209 137q3 6 7 4t1 -7q-43 -80 -114 -133t-149 -57l-41 -61q2 -3 5 -3q68 0 103.5 -22t35.5 -50z" />
    <glyph glyph-name="egrave" unicode="&#xe8;" horiz-adv-x="516" 
d="M285 -10q-113 0 -182 67.5t-69 172.5q0 111 86.5 195.5t191.5 84.5q51 0 88.5 -14.5t55.5 -36t25 -43.5t5 -41q-4 -31 -42 -31h-342q-8 -37 -8 -77q0 -92 70.5 -155.5t171.5 -63.5q87 0 147 49.5t104 144.5q4 11 8 7q2 -2 -1 -9q-45 -105 -124.5 -177.5t-184.5 -72.5z
M350 356q31 0 40 9q9 11 9 32q0 33 -31 62t-84 29q-66 0 -113.5 -35t-66.5 -101q62 0 141 2t105 2zM379 559q-22 23 -55.5 50.5t-61.5 48t-31 23.5q-12 10 -12 17q0 16 3 19t18 3q18 0 24 -6q3 -3 22.5 -30.5t47 -62t50.5 -56.5q3 -3 3 -4q0 -4 -4 -4q-2 0 -4 2z" />
    <glyph glyph-name="eacute" unicode="&#xe9;" horiz-adv-x="516" 
d="M285 -10q-113 0 -182 67.5t-69 172.5q0 111 86.5 195.5t191.5 84.5q51 0 88.5 -14.5t55.5 -36t25 -43.5t5 -41q-4 -31 -42 -31h-342q-8 -37 -8 -77q0 -92 70.5 -155.5t171.5 -63.5q87 0 147 49.5t104 144.5q4 11 8 7q2 -2 -1 -9q-45 -105 -124.5 -177.5t-184.5 -72.5z
M350 356q31 0 40 9q9 11 9 32q0 33 -31 62t-84 29q-66 0 -113.5 -35t-66.5 -101q62 0 141 2t105 2zM245 559q-2 -2 -4 -2q-4 0 -4 4q0 1 3 4q23 22 50.5 56.5t47 62t22.5 30.5q6 6 24 6q15 0 18 -3t3 -19q0 -7 -12 -17q-3 -3 -31 -23.5t-61.5 -48t-55.5 -50.5z" />
    <glyph glyph-name="ecircumflex" unicode="&#xea;" horiz-adv-x="516" 
d="M285 -10q-113 0 -182 67.5t-69 172.5q0 111 86.5 195.5t191.5 84.5q51 0 88.5 -14.5t55.5 -36t25 -43.5t5 -41q-4 -31 -42 -31h-342q-8 -37 -8 -77q0 -92 70.5 -155.5t171.5 -63.5q87 0 147 49.5t104 144.5q4 11 8 7q2 -2 -1 -9q-45 -105 -124.5 -177.5t-184.5 -72.5z
M350 356q31 0 40 9q9 11 9 32q0 33 -31 62t-84 29q-66 0 -113.5 -35t-66.5 -101q62 0 141 2t105 2zM297 718q-4 4 -7 0l-82 -122q-14 -19 -34 -19q-9 0 -14.5 4.5t-5.5 9.5q0 10 18 29q57 59 117 107q1 1 4 1t5 -1q72 -55 121 -97q20 -18 20 -29q0 -7 -6.5 -14t-16.5 -7
q-20 0 -35 21q-10 15 -41.5 58.5t-42.5 58.5z" />
    <glyph glyph-name="edieresis" unicode="&#xeb;" horiz-adv-x="516" 
d="M285 -10q-113 0 -182 67.5t-69 172.5q0 111 86.5 195.5t191.5 84.5q51 0 88.5 -14.5t55.5 -36t25 -43.5t5 -41q-4 -31 -42 -31h-342q-8 -37 -8 -77q0 -92 70.5 -155.5t171.5 -63.5q87 0 147 49.5t104 144.5q4 11 8 7q2 -2 -1 -9q-45 -105 -124.5 -177.5t-184.5 -72.5z
M350 356q31 0 40 9q9 11 9 32q0 33 -31 62t-84 29q-66 0 -113.5 -35t-66.5 -101q62 0 141 2t105 2zM348 636q0 20 14.5 35t34.5 15t35 -15t15 -35t-15 -34.5t-35 -14.5t-34.5 14.5t-14.5 34.5zM150 636q0 20 14.5 35t34.5 15t35 -15t15 -35t-15 -34.5t-35 -14.5t-34.5 14.5
t-14.5 34.5z" />
    <glyph glyph-name="igrave" unicode="&#xec;" horiz-adv-x="226" 
d="M78 110v267q0 55 -12 66t-52 2q-6 -1 -7.5 3t4.5 5q63 14 125 57q3 2 10.5 -1t7.5 -6v-393q0 -66 9.5 -83.5t50.5 -17.5q6 0 6 -4.5t-6 -4.5q-16 0 -53 1t-43 1t-45.5 -1t-55.5 -1q-6 0 -6 4.5t6 4.5q42 0 51.5 17.5t9.5 83.5zM140 559q-22 23 -55.5 50.5t-61.5 48
t-31 23.5q-12 10 -12 17q0 16 3 19t18 3q18 0 24 -6q3 -3 22.5 -30.5t47 -62t50.5 -56.5q3 -3 3 -4q0 -4 -4 -4q-2 0 -4 2z" />
    <glyph glyph-name="iacute" unicode="&#xed;" horiz-adv-x="226" 
d="M78 110v267q0 55 -12 66t-52 2q-6 -1 -7.5 3t4.5 5q63 14 125 57q3 2 10.5 -1t7.5 -6v-393q0 -66 9.5 -83.5t50.5 -17.5q6 0 6 -4.5t-6 -4.5q-16 0 -53 1t-43 1t-45.5 -1t-55.5 -1q-6 0 -6 4.5t6 4.5q42 0 51.5 17.5t9.5 83.5zM89 559q-2 -2 -4 -2q-4 0 -4 4q0 1 3 4
q23 22 50.5 56.5t47 62t22.5 30.5q6 6 24 6q15 0 18 -3t3 -19q0 -7 -12 -17q-3 -3 -31 -23.5t-61.5 -48t-55.5 -50.5z" />
    <glyph glyph-name="icircumflex" unicode="&#xee;" horiz-adv-x="226" 
d="M78 110v267q0 55 -12 66t-52 2q-6 -1 -7.5 3t4.5 5q63 14 125 57q3 2 10.5 -1t7.5 -6v-393q0 -66 9.5 -83.5t50.5 -17.5q6 0 6 -4.5t-6 -4.5q-16 0 -53 1t-43 1t-45.5 -1t-55.5 -1q-6 0 -6 4.5t6 4.5q42 0 51.5 17.5t9.5 83.5zM122 718q-4 4 -7 0l-82 -122
q-14 -19 -34 -19q-9 0 -14.5 4.5t-5.5 9.5q0 10 18 29q57 59 117 107q2 1 5 1t4 -1q72 -55 121 -97q20 -18 20 -29q0 -7 -6.5 -14t-16.5 -7q-20 0 -35 21q-10 15 -42 58.5t-42 58.5z" />
    <glyph glyph-name="idieresis" unicode="&#xef;" horiz-adv-x="226" 
d="M78 110v267q0 55 -12 66t-52 2q-6 -1 -7.5 3t4.5 5q63 14 125 57q3 2 10.5 -1t7.5 -6v-393q0 -66 9.5 -83.5t50.5 -17.5q6 0 6 -4.5t-6 -4.5q-16 0 -53 1t-43 1t-45.5 -1t-55.5 -1q-6 0 -6 4.5t6 4.5q42 0 51.5 17.5t9.5 83.5zM-45 636q0 20 14.5 35t34.5 15t35 -15
t15 -35t-15 -34.5t-35 -14.5t-34.5 14.5t-14.5 34.5zM153 636q0 20 14.5 35t34.5 15t35 -15t15 -35t-15 -34.5t-35 -14.5t-34.5 14.5t-14.5 34.5z" />
    <glyph glyph-name="eth" unicode="&#xf0;" horiz-adv-x="584" 
d="M546 257q0 -101 -76.5 -184t-185.5 -83q-107 0 -177.5 69t-70.5 181q0 61 24 113.5t61.5 86t82 52t86.5 18.5q84 0 131 -61q-30 119 -103 205q-86 -38 -153 -74q-6 0 -9.5 8.5t-0.5 13.5q103 39 156 60q-58 66 -148 119q-3 2 -3 4.5t2 3.5t6 -1q99 -52 173 -113
q29 12 59 26.5t59.5 29t41.5 20.5q6 -2 10 -9.5t0 -12.5q-127 -48 -161 -62q196 -169 196 -410zM301 1q79 0 121.5 64t42.5 176t-42.5 185.5t-134.5 73.5q-85 0 -127 -64.5t-42 -178.5q0 -100 50 -178t132 -78z" />
    <glyph glyph-name="ntilde" unicode="&#xf1;" horiz-adv-x="562" 
d="M495 307v-209q0 -61 9.5 -75.5t38.5 -13.5q6 0 6 -4.5t-6 -4.5q-3 0 -41.5 1t-47.5 1q-6 0 -37.5 -1t-47.5 -1q-6 0 -6 4.5t6 4.5q32 0 42 16t10 79l-1 213q-1 86 -35 124.5t-86 38.5q-46 0 -80.5 -21.5t-70.5 -69.5v-380h52q6 0 6 -4.5t-6 -4.5q-3 0 -35 1t-41 1
q-6 0 -43 -1t-53 -1q-6 0 -6 4.5t6 4.5q32 0 38.5 17.5t6.5 92.5v258q0 34 -46 76q-4 4 0 6q51 20 73 42q2 3 6 -1q15 -15 27.5 -42.5t13.5 -56.5q82 109 185 109q163 0 163 -203zM143 597q44 57 61.5 75t34.5 18q22 0 77.5 -29.5t72.5 -29.5q14 0 22.5 8t36.5 47q5 5 8 3.5
t-1 -8.5q-36 -53 -59 -76.5t-45 -23.5q-21 0 -75 31.5t-73 31.5q-8 0 -15.5 -7.5t-37.5 -44.5q-6 -7 -8.5 -4.5t1.5 9.5z" />
    <glyph glyph-name="ograve" unicode="&#xf2;" horiz-adv-x="581" 
d="M284 -10q-107 0 -177.5 69t-70.5 181q0 110 75.5 190t188.5 80q107 0 176.5 -69.5t69.5 -183.5q0 -101 -76.5 -184t-185.5 -83zM301 1q79 0 121.5 64t42.5 176q0 100 -49.5 179.5t-127.5 79.5q-85 0 -127 -64.5t-42 -178.5q0 -100 50 -178t132 -78zM378 559
q-22 23 -55.5 50.5t-61.5 48t-31 23.5q-12 10 -12 17q0 16 3 19t18 3q18 0 24 -6q3 -3 22.5 -30.5t47 -62t50.5 -56.5q3 -3 3 -4q0 -4 -4 -4q-2 0 -4 2z" />
    <glyph glyph-name="oacute" unicode="&#xf3;" horiz-adv-x="581" 
d="M284 -10q-107 0 -177.5 69t-70.5 181q0 110 75.5 190t188.5 80q107 0 176.5 -69.5t69.5 -183.5q0 -101 -76.5 -184t-185.5 -83zM301 1q79 0 121.5 64t42.5 176q0 100 -49.5 179.5t-127.5 79.5q-85 0 -127 -64.5t-42 -178.5q0 -100 50 -178t132 -78zM230 559q-2 -2 -4 -2
q-4 0 -4 4q0 1 3 4q23 22 50.5 56.5t47 62t22.5 30.5q6 6 24 6q15 0 18 -3t3 -19q0 -7 -12 -17q-3 -3 -31 -23.5t-61.5 -48t-55.5 -50.5z" />
    <glyph glyph-name="ocircumflex" unicode="&#xf4;" horiz-adv-x="581" 
d="M284 -10q-107 0 -177.5 69t-70.5 181q0 110 75.5 190t188.5 80q107 0 176.5 -69.5t69.5 -183.5q0 -101 -76.5 -184t-185.5 -83zM301 1q79 0 121.5 64t42.5 176q0 100 -49.5 179.5t-127.5 79.5q-85 0 -127 -64.5t-42 -178.5q0 -100 50 -178t132 -78zM296 718q-4 4 -7 0
l-82 -122q-14 -19 -34 -19q-9 0 -14.5 4.5t-5.5 9.5q0 10 18 29q57 59 117 107q2 1 5 1t4 -1q72 -55 121 -97q20 -18 20 -29q0 -7 -6.5 -14t-16.5 -7q-20 0 -35 21q-10 15 -41.5 58.5t-42.5 58.5z" />
    <glyph glyph-name="otilde" unicode="&#xf5;" horiz-adv-x="581" 
d="M284 -10q-107 0 -177.5 69t-70.5 181q0 110 75.5 190t188.5 80q107 0 176.5 -69.5t69.5 -183.5q0 -101 -76.5 -184t-185.5 -83zM301 1q79 0 121.5 64t42.5 176q0 100 -49.5 179.5t-127.5 79.5q-85 0 -127 -64.5t-42 -178.5q0 -100 50 -178t132 -78zM141 593
q44 57 61.5 75t34.5 18q22 0 77.5 -29.5t72.5 -29.5q14 0 22.5 8t36.5 47q5 5 8 3.5t-1 -8.5q-36 -53 -59 -76.5t-45 -23.5q-21 0 -75 31.5t-73 31.5q-8 0 -15.5 -7.5t-37.5 -44.5q-6 -7 -8.5 -4.5t1.5 9.5z" />
    <glyph glyph-name="odieresis" unicode="&#xf6;" horiz-adv-x="581" 
d="M284 -10q-107 0 -177.5 69t-70.5 181q0 110 75.5 190t188.5 80q107 0 176.5 -69.5t69.5 -183.5q0 -101 -76.5 -184t-185.5 -83zM301 1q79 0 121.5 64t42.5 176q0 100 -49.5 179.5t-127.5 79.5q-85 0 -127 -64.5t-42 -178.5q0 -100 50 -178t132 -78zM334 636q0 20 14.5 35
t34.5 15t35 -15t15 -35t-15 -34.5t-35 -14.5t-34.5 14.5t-14.5 34.5zM136 636q0 20 14.5 35t34.5 15t35 -15t15 -35t-15 -34.5t-35 -14.5t-34.5 14.5t-14.5 34.5z" />
    <glyph glyph-name="divide" unicode="&#xf7;" 
d="M277 251q73 0 171 6q5 -4 5 -12.5t-5 -11.5q-95 7 -170 7q-76 0 -170 -7q-5 3 -5 11.5t5 12.5q98 -6 169 -6zM242 109q0 16 11 27t27 11q15 0 26.5 -11t11.5 -27t-11.5 -27t-26.5 -11q-16 0 -27 11t-11 27zM242 383q0 16 11 27t27 11q15 0 26.5 -11t11.5 -27t-11.5 -27
t-26.5 -11q-16 0 -27 11t-11 27z" />
    <glyph glyph-name="oslash" unicode="&#xf8;" horiz-adv-x="581" 
d="M284 -10q-60 0 -114 24q-11 -21 -34.5 -67.5t-31.5 -62.5q-12 -3 -16 -2.5t-12 6.5l79 134q-56 31 -87.5 87.5t-31.5 130.5q0 110 75.5 190t188.5 80q56 0 104 -21q30 62 69 135q14 2 27 -7q-52 -84 -80 -135q58 -31 92 -89.5t34 -135.5q0 -101 -76.5 -184t-185.5 -83z
M301 1q79 0 121.5 64t42.5 176q0 123 -66 203q-47 -84 -105 -197q-68 -123 -104 -195q48 -51 111 -51zM281 253q42 79 106 203q-44 44 -99 44q-85 0 -127 -64.5t-42 -178.5q0 -115 60 -192q13 24 28 51.5t36.5 67t37.5 69.5z" />
    <glyph glyph-name="ugrave" unicode="&#xf9;" horiz-adv-x="559" 
d="M67 193v184q0 43 -5.5 60t-19.5 19t-39 -4q-5 -1 -6 3q-1 5 6 6q61 11 122 45q3 2 10.5 -1t7.5 -6v-316q0 -86 33 -124.5t85 -38.5q46 0 80.5 21t71.5 70v266q0 43 -5.5 60t-19.5 19t-39 -4q-5 -1 -6 3q-1 5 6 6q60 11 121 45q2 2 10 -1t8 -6v-380q0 -76 8 -93t45 -17
q5 0 5 -4.5t-5 -4.5q-37 0 -130 -10h-4.5t-2.5 2t-1 3v4q0 1 2.5 14.5t5 37t2.5 48.5q-82 -109 -185 -109q-161 0 -161 203zM307 542q-22 23 -55.5 50.5t-61.5 48t-31 23.5q-12 10 -12 17q0 16 3 19t18 3q18 0 24 -6q3 -3 22.5 -30.5t47 -62t50.5 -56.5q3 -3 3 -4
q0 -4 -4 -4q-2 0 -4 2z" />
    <glyph glyph-name="uacute" unicode="&#xfa;" horiz-adv-x="559" 
d="M67 193v184q0 43 -5.5 60t-19.5 19t-39 -4q-5 -1 -6 3q-1 5 6 6q61 11 122 45q3 2 10.5 -1t7.5 -6v-316q0 -86 33 -124.5t85 -38.5q46 0 80.5 21t71.5 70v266q0 43 -5.5 60t-19.5 19t-39 -4q-5 -1 -6 3q-1 5 6 6q60 11 121 45q2 2 10 -1t8 -6v-380q0 -76 8 -93t45 -17
q5 0 5 -4.5t-5 -4.5q-37 0 -130 -10h-4.5t-2.5 2t-1 3v4q0 1 2.5 14.5t5 37t2.5 48.5q-82 -109 -185 -109q-161 0 -161 203zM246 540q-2 -2 -4 -2q-4 0 -4 4q0 1 3 4q23 22 50.5 56.5t47 62t22.5 30.5q6 6 24 6q15 0 18 -3t3 -19q0 -7 -12 -17q-3 -3 -31 -23.5t-61.5 -48
t-55.5 -50.5z" />
    <glyph glyph-name="ucircumflex" unicode="&#xfb;" horiz-adv-x="559" 
d="M67 193v184q0 43 -5.5 60t-19.5 19t-39 -4q-5 -1 -6 3q-1 5 6 6q61 11 122 45q3 2 10.5 -1t7.5 -6v-316q0 -86 33 -124.5t85 -38.5q46 0 80.5 21t71.5 70v266q0 43 -5.5 60t-19.5 19t-39 -4q-5 -1 -6 3q-1 5 6 6q60 11 121 45q2 2 10 -1t8 -6v-380q0 -76 8 -93t45 -17
q5 0 5 -4.5t-5 -4.5q-37 0 -130 -10h-4.5t-2.5 2t-1 3v4q0 1 2.5 14.5t5 37t2.5 48.5q-82 -109 -185 -109q-161 0 -161 203zM280 717q-4 4 -7 0l-82 -122q-14 -19 -34 -19q-9 0 -14.5 4.5t-5.5 9.5q0 10 18 29q57 59 117 107q4 4 9 0q72 -55 121 -97q20 -17 20 -29
q0 -7 -6.5 -14t-16.5 -7q-20 0 -35 21q-10 15 -41.5 58.5t-42.5 58.5z" />
    <glyph glyph-name="udieresis" unicode="&#xfc;" horiz-adv-x="559" 
d="M67 193v184q0 43 -5.5 60t-19.5 19t-39 -4q-5 -1 -6 3q-1 5 6 6q61 11 122 45q3 2 10.5 -1t7.5 -6v-316q0 -86 33 -124.5t85 -38.5q46 0 80.5 21t71.5 70v266q0 43 -5.5 60t-19.5 19t-39 -4q-5 -1 -6 3q-1 5 6 6q60 11 121 45q2 2 10 -1t8 -6v-380q0 -76 8 -93t45 -17
q5 0 5 -4.5t-5 -4.5q-37 0 -130 -10h-4.5t-2.5 2t-1 3v4q0 1 2.5 14.5t5 37t2.5 48.5q-82 -109 -185 -109q-161 0 -161 203zM129 631q0 20 14.5 35t34.5 15t35 -15t15 -35t-15 -34.5t-35 -14.5t-34.5 14.5t-14.5 34.5zM327 631q0 20 14.5 35t34.5 15t35 -15t15 -35
t-15 -34.5t-35 -14.5t-34.5 14.5t-14.5 34.5z" />
    <glyph glyph-name="yacute" unicode="&#xfd;" horiz-adv-x="537" 
d="M117 -136q42 0 72.5 23.5t62.5 95.5l11 25l-159 352q-41 89 -60.5 110.5t-56.5 20.5q-3 0 -4.5 2.5t0 4.5t4.5 2t47 -1t52 -1q5 0 48.5 1t58.5 1q6 0 6 -4.5t-6 -4.5q-45 0 -50 -17t25 -84l133 -295l112 252q30 72 17 108t-63 36q-6 0 -6 4.5t6 4.5q16 0 52.5 -1t41.5 -1
q8 0 47.5 1t42.5 1t4.5 -2t0 -4.5t-4.5 -2.5q-34 1 -65 -37t-64 -113l-160 -360q-39 -89 -88.5 -131t-120.5 -42q-38 0 -60.5 12t-22.5 27q0 14 16.5 30t38.5 16q18 0 45.5 -14.5t46.5 -14.5zM240 542q-2 -2 -4 -2q-4 0 -4 4q0 1 3 4q23 22 50.5 56.5t47 62t22.5 30.5
q6 6 24 6q15 0 18 -3t3 -19q0 -7 -12 -17q-3 -3 -31 -23.5t-61.5 -48t-55.5 -50.5z" />
    <glyph glyph-name="thorn" unicode="&#xfe;" horiz-adv-x="596" 
d="M147 744v-341q35 50 88.5 78.5t110.5 28.5q87 0 149 -66.5t62 -168.5q0 -120 -87 -202.5t-199 -82.5q-69 0 -125 38v-291h71q6 0 6 -4.5t-6 -4.5q-3 0 -48 1t-54 1q-6 0 -52.5 -1t-62.5 -1q-6 0 -6 4.5t6 4.5q51 0 62.5 18t11.5 99v765q0 59 -16 69.5t-54 -1.5
q-5 -1 -6 3q-1 5 6 6q18 2 37.5 9t30.5 13t31.5 18t25.5 15q3 2 10.5 -0.5t7.5 -6.5zM313 12q81 0 125.5 58.5t44.5 168.5q0 61 -20 114t-63.5 88.5t-102.5 35.5q-43 0 -84 -23t-66 -62q0 -48 -0.5 -144t-0.5 -143q86 -93 167 -93z" />
    <glyph glyph-name="ydieresis" unicode="&#xff;" horiz-adv-x="537" 
d="M117 -136q42 0 72.5 23.5t62.5 95.5l11 25l-159 352q-41 89 -60.5 110.5t-56.5 20.5q-3 0 -4.5 2.5t0 4.5t4.5 2t47 -1t52 -1q5 0 48.5 1t58.5 1q6 0 6 -4.5t-6 -4.5q-45 0 -50 -17t25 -84l133 -295l112 252q30 72 17 108t-63 36q-6 0 -6 4.5t6 4.5q16 0 52.5 -1t41.5 -1
q8 0 47.5 1t42.5 1t4.5 -2t0 -4.5t-4.5 -2.5q-34 1 -65 -37t-64 -113l-160 -360q-39 -89 -88.5 -131t-120.5 -42q-38 0 -60.5 12t-22.5 27q0 14 16.5 30t38.5 16q18 0 45.5 -14.5t46.5 -14.5zM139 631q0 20 14.5 35t34.5 15t35 -15t15 -35t-15 -34.5t-35 -14.5t-34.5 14.5
t-14.5 34.5zM337 631q0 20 14.5 35t34.5 15t35 -15t15 -35t-15 -34.5t-35 -14.5t-34.5 14.5t-14.5 34.5z" />
    <glyph glyph-name="Amacron" unicode="&#x100;" horiz-adv-x="711" 
d="M465 248l-117 -3q-89 0 -179 3l-17 -42q-36 -89 -36 -149q0 -49 56 -49q4 0 15 1.5t13 1.5q7 0 7 -5q0 -6 -12 -6q-9 0 -57.5 1t-56.5 1q-5 0 -37 -1t-46 -1q-6 0 -6 5q0 4 6 4h4q40 0 72 60q35 59 66 142l193 482q1 3 7 3h10q8 0 10 -3l182 -434q51 -120 77 -170.5
t42.5 -65t42.5 -14.5h8q7 0 7 -4q0 -5 -6 -5q-16 0 -55.5 1.5t-45.5 1.5t-55.5 -1.5t-65.5 -1.5q-7 0 -8 5q2 3 5 4h21q28 0 30 19q5 35 -74 220zM460 259l-149 349l-139 -351l170 1h118v1zM348 842h1q57 0 90 1q35 1 35 -1q0 -7 -46 -51q-1 0 -29.5 0.5t-48.5 0.5
q-10 0 -76 -2q-35 -1 -35 2q0 7 46 51q1 0 22 -0.5t41 -0.5z" />
    <glyph glyph-name="amacron" unicode="&#x101;" horiz-adv-x="514" 
d="M156 -11q-58 0 -91 32t-33 80q0 108 250 205l83 32q-3 92 -27.5 127.5t-79.5 35.5q-31 0 -54.5 -14t-34 -28.5t-23.5 -39t-17 -29.5q-12 -18 -45 -18q-40 0 -40 23q0 25 35 47q39 25 93 46.5t102 21.5q78 0 123.5 -44t45.5 -138q0 -37 -4 -120t-4 -99q0 -85 28 -85
q12 0 27.5 18t26.5 37q2 4 6.5 3.5t6 -4t-0.5 -7.5q-16 -22 -54 -51.5t-64 -29.5q-57 0 -57 71q0 40 4 82q-26 -44 -90.5 -99t-111.5 -55zM102 130q0 -39 33 -68t71 -29t92 51.5t62 81.5q6 78 6 144v21l-82 -35q-111 -47 -146.5 -79t-35.5 -87zM266 636h1q57 0 90 1
q35 1 35 -1q0 -7 -46 -51q-1 0 -29.5 0.5t-48.5 0.5q-10 0 -76 -2q-35 -1 -35 2q0 7 46 51q1 0 22 -0.5t41 -0.5z" />
    <glyph glyph-name="Abreve" unicode="&#x102;" horiz-adv-x="711" 
d="M465 248l-117 -3q-89 0 -179 3l-17 -42q-36 -89 -36 -149q0 -49 56 -49q4 0 15 1.5t13 1.5q7 0 7 -5q0 -6 -12 -6q-9 0 -57.5 1t-56.5 1q-5 0 -37 -1t-46 -1q-6 0 -6 5q0 4 6 4h4q40 0 72 60q35 59 66 142l193 482q1 3 7 3h10q8 0 10 -3l182 -434q51 -120 77 -170.5
t42.5 -65t42.5 -14.5h8q7 0 7 -4q0 -5 -6 -5q-16 0 -55.5 1.5t-45.5 1.5t-55.5 -1.5t-65.5 -1.5q-7 0 -8 5q2 3 5 4h21q28 0 30 19q5 35 -74 220zM460 259l-149 349l-139 -351l170 1h118v1zM345 781q-64 0 -119 72q-6 7 -6 12q0 7 23 14q15 5 21 4.5t11 -7.5
q30 -39 52.5 -56.5t49.5 -17.5q43 0 75 75q3 7 11 7q5 0 8 -3.5t0 -7.5q-22 -37 -57 -64t-69 -28z" />
    <glyph glyph-name="abreve" unicode="&#x103;" horiz-adv-x="514" 
d="M156 -11q-58 0 -91 32t-33 80q0 108 250 205l83 32q-3 92 -27.5 127.5t-79.5 35.5q-31 0 -54.5 -14t-34 -28.5t-23.5 -39t-17 -29.5q-12 -18 -45 -18q-40 0 -40 23q0 25 35 47q39 25 93 46.5t102 21.5q78 0 123.5 -44t45.5 -138q0 -37 -4 -120t-4 -99q0 -85 28 -85
q12 0 27.5 18t26.5 37q2 4 6.5 3.5t6 -4t-0.5 -7.5q-16 -22 -54 -51.5t-64 -29.5q-57 0 -57 71q0 40 4 82q-26 -44 -90.5 -99t-111.5 -55zM102 130q0 -39 33 -68t71 -29t92 51.5t62 81.5q6 78 6 144v21l-82 -35q-111 -47 -146.5 -79t-35.5 -87zM263 587q-64 0 -119 72
q-6 7 -6 12q0 7 23 14q15 5 21 4.5t11 -7.5q30 -39 52.5 -56.5t49.5 -17.5q43 0 75 75q3 7 11 7q5 0 8 -3.5t0 -7.5q-22 -37 -57 -64t-69 -28z" />
    <glyph glyph-name="Aogonek" unicode="&#x104;" horiz-adv-x="711" 
d="M465 248l-117 -3q-89 0 -179 3l-17 -42q-36 -89 -36 -149q0 -49 56 -49q4 0 15 1.5t13 1.5q7 0 7 -5q0 -6 -12 -6q-9 0 -57.5 1t-56.5 1q-5 0 -37 -1t-46 -1q-6 0 -6 5q0 4 6 4h4q40 0 72 60q35 59 66 142l193 482q1 3 7 3h10q8 0 10 -3l182 -434q51 -120 77 -170.5
t42.5 -65t42.5 -14.5h8q7 0 7 -4q0 -2 -2 -4q-50 -62 -53 -90q-2 -20 11 -32t41 -12q33 0 75 21q2 1 -5 -15.5t-17 -34.5t-15 -22q-31 -13 -68 -13q-33 0 -50 19.5t-13 53.5q3 22 21.5 49t59.5 75q-17 0 -52.5 1.5t-39.5 1.5q-6 0 -55.5 -1.5t-65.5 -1.5q-7 0 -8 5q2 3 5 4
h21q28 0 30 19q5 35 -74 220zM460 259l-149 349l-139 -351l170 1h118v1z" />
    <glyph glyph-name="aogonek" unicode="&#x105;" horiz-adv-x="514" 
d="M466 -133q33 0 75 21q2 1 -5 -15.5t-17 -34.5t-15 -22q-31 -13 -68 -13q-33 0 -50 19.5t-13 53.5q3 23 24 53t67 82q-33 -21 -53 -21q-57 0 -57 71q0 40 4 82q-26 -44 -90.5 -99t-111.5 -55q-58 0 -91 32t-33 80q0 108 250 205l83 32q-3 92 -27.5 127.5t-79.5 35.5
q-31 0 -54.5 -14t-34 -28.5t-23.5 -39t-17 -29.5q-12 -18 -45 -18q-40 0 -40 23q0 25 35 47q39 25 93 46.5t102 21.5q78 0 123.5 -44t45.5 -138q0 -37 -4 -120t-4 -99q0 -85 28 -85q10 0 26 16l6 6q11 14 22 33q2 4 6.5 3.5t6 -4t-0.5 -7.5q-10 -15 -33 -35
q-77 -90 -82 -125q-2 -20 11 -32t41 -12zM102 130q0 -39 33 -68t71 -29t92 51.5t62 81.5q6 78 6 144v21l-82 -35q-111 -47 -146.5 -79t-35.5 -87z" />
    <glyph glyph-name="Cacute" unicode="&#x106;" horiz-adv-x="756" 
d="M133 346q0 -156 76.5 -251t210.5 -95q234 0 261 267h8l-12 -233q-99 -44 -255 -44q-162 0 -270.5 101.5t-108.5 254.5q0 154 112.5 255.5t270.5 101.5q63 0 135.5 -13t113.5 -31l12 -218h-9q-25 252 -250 252q-134 0 -214.5 -95.5t-80.5 -251.5zM372 768q-2 -2 -4 -2
q-4 0 -4 4q0 1 3 4q23 22 50.5 56.5t47 62t22.5 30.5q6 6 24 6q15 0 18 -3t3 -19q0 -7 -12 -17q-3 -3 -31 -23.5t-61.5 -48t-55.5 -50.5z" />
    <glyph glyph-name="cacute" unicode="&#x107;" horiz-adv-x="542" 
d="M102 275q0 -100 64 -164.5t165 -64.5q134 0 209 137q3 6 7 4t1 -7q-44 -82 -117.5 -136t-153.5 -54q-106 0 -173 67t-67 173q0 108 87.5 194t197.5 86q70 0 118.5 -23.5t48.5 -51.5q0 -15 -13.5 -28t-35.5 -13q-13 0 -29 14.5t-30 32.5t-41 32.5t-60 14.5
q-77 0 -127.5 -57t-50.5 -156zM238 559q-2 -2 -4 -2q-4 0 -4 4q0 1 3 4q23 22 50.5 56.5t47 62t22.5 30.5q6 6 24 6q15 0 18 -3t3 -19q0 -7 -12 -17q-3 -3 -31 -23.5t-61.5 -48t-55.5 -50.5z" />
    <glyph glyph-name="Ccircumflex" unicode="&#x108;" horiz-adv-x="756" 
d="M133 346q0 -156 76.5 -251t210.5 -95q234 0 261 267h8l-12 -233q-99 -44 -255 -44q-162 0 -270.5 101.5t-108.5 254.5q0 154 112.5 255.5t270.5 101.5q63 0 135.5 -13t113.5 -31l12 -218h-9q-25 252 -250 252q-134 0 -214.5 -95.5t-80.5 -251.5zM427 912q-4 4 -7 0
l-82 -122q-14 -19 -34 -19q-9 0 -14.5 4.5t-5.5 9.5q0 10 18 29q57 59 117 107q1 1 4 1t5 -1q72 -55 121 -97q20 -18 20 -29q0 -7 -6.5 -14t-16.5 -7q-20 0 -35 21q-10 15 -41.5 58.5t-42.5 58.5z" />
    <glyph glyph-name="ccircumflex" unicode="&#x109;" horiz-adv-x="542" 
d="M102 275q0 -100 64 -164.5t165 -64.5q134 0 209 137q3 6 7 4t1 -7q-44 -82 -117.5 -136t-153.5 -54q-106 0 -173 67t-67 173q0 108 87.5 194t197.5 86q70 0 118.5 -23.5t48.5 -51.5q0 -15 -13.5 -28t-35.5 -13q-13 0 -29 14.5t-30 32.5t-41 32.5t-60 14.5
q-77 0 -127.5 -57t-50.5 -156zM310 718q-4 4 -7 0l-82 -122q-14 -19 -34 -19q-9 0 -14.5 4.5t-5.5 9.5q0 10 18 29q57 59 117 107q2 1 5 1t4 -1q72 -55 121 -97q20 -18 20 -29q0 -7 -6.5 -14t-16.5 -7q-20 0 -35 21q-10 15 -41.5 58.5t-42.5 58.5z" />
    <glyph glyph-name="Cdotaccent" unicode="&#x10a;" horiz-adv-x="756" 
d="M133 346q0 -156 76.5 -251t210.5 -95q234 0 261 267h8l-12 -233q-99 -44 -255 -44q-162 0 -270.5 101.5t-108.5 254.5q0 154 112.5 255.5t270.5 101.5q63 0 135.5 -13t113.5 -31l12 -218h-9q-25 252 -250 252q-134 0 -214.5 -95.5t-80.5 -251.5zM380 828q0 22 15 37.5
t37 15.5t37.5 -15.5t15.5 -37.5t-15.5 -37t-37.5 -15t-37 15t-15 37z" />
    <glyph glyph-name="cdotaccent" unicode="&#x10b;" horiz-adv-x="542" 
d="M102 275q0 -100 64 -164.5t165 -64.5q134 0 209 137q3 6 7 4t1 -7q-44 -82 -117.5 -136t-153.5 -54q-106 0 -173 67t-67 173q0 108 87.5 194t197.5 86q70 0 118.5 -23.5t48.5 -51.5q0 -15 -13.5 -28t-35.5 -13q-13 0 -29 14.5t-30 32.5t-41 32.5t-60 14.5
q-77 0 -127.5 -57t-50.5 -156zM263 639q0 22 15 37.5t37 15.5t37.5 -15.5t15.5 -37.5t-15.5 -37t-37.5 -15t-37 15t-15 37z" />
    <glyph glyph-name="Ccaron" unicode="&#x10c;" horiz-adv-x="756" 
d="M133 346q0 -156 76.5 -251t210.5 -95q234 0 261 267h8l-12 -233q-99 -44 -255 -44q-162 0 -270.5 101.5t-108.5 254.5q0 154 112.5 255.5t270.5 101.5q63 0 135.5 -13t113.5 -31l12 -218h-9q-25 252 -250 252q-134 0 -214.5 -95.5t-80.5 -251.5zM421 782q4 -4 7 0l82 122
q14 19 34 19q9 0 14.5 -4.5t5.5 -9.5q0 -10 -18 -29q-57 -59 -117 -107q-1 -1 -4 -1t-5 1q-72 55 -121 97q-20 18 -20 29q0 7 6.5 14t16.5 7q20 0 35 -21q10 -15 41.5 -58.5t42.5 -58.5z" />
    <glyph glyph-name="ccaron" unicode="&#x10d;" horiz-adv-x="542" 
d="M102 275q0 -100 64 -164.5t165 -64.5q134 0 209 137q3 6 7 4t1 -7q-44 -82 -117.5 -136t-153.5 -54q-106 0 -173 67t-67 173q0 108 87.5 194t197.5 86q70 0 118.5 -23.5t48.5 -51.5q0 -15 -13.5 -28t-35.5 -13q-13 0 -29 14.5t-30 32.5t-41 32.5t-60 14.5
q-77 0 -127.5 -57t-50.5 -156zM308 588q4 -4 7 0l82 122q14 19 34 19q9 0 14.5 -4.5t5.5 -9.5q0 -10 -18 -29q-57 -59 -117 -107q-2 -1 -5 -1t-4 1q-72 55 -121 97q-20 18 -20 29q0 7 6.5 14t16.5 7q20 0 35 -21q10 -15 41.5 -58.5t42.5 -58.5z" />
    <glyph glyph-name="Dcaron" unicode="&#x10e;" horiz-adv-x="733" 
d="M690 346q0 -152 -107.5 -249t-270.5 -97l-155 3l-141 -3q-6 0 -7 3q3 3 7 4q32 0 44.5 7.5t19.5 34t11 91.5q2 31 2.5 81t-0.5 107t-1 65q0 22 -1.5 96.5t-1.5 103.5q0 67 -9 79t-57 12q-6 0 -6 4.5t6 4.5q3 0 58.5 -1t63.5 -1q6 0 76.5 1t86.5 1q159 0 270.5 -97
t111.5 -250zM601 346q0 154 -80.5 246t-214.5 92h-66q-51 0 -60 -33t-9 -217v-273q0 -113 -8 -147q9 0 67.5 -2t83.5 -2q135 0 211 90.5t76 245.5zM326 782q4 -4 7 0l82 122q14 19 34 19q9 0 14.5 -4.5t5.5 -9.5q0 -10 -18 -29q-57 -59 -117 -107q-2 -1 -5 -1t-4 1
q-72 55 -121 97q-20 18 -20 29q0 7 6.5 14t16.5 7q20 0 35 -21q10 -15 42 -58.5t42 -58.5z" />
    <glyph glyph-name="dcaron" unicode="&#x10f;" horiz-adv-x="709" 
d="M451 463v218q0 61 -12.5 72.5t-53.5 4.5q-5 -1 -6 3q-1 5 6 6q57 10 121 46q3 2 11.5 -1t8.5 -6v-687q0 -76 7.5 -93t43.5 -17q6 0 6 -4.5t-6 -4.5q-74 0 -121 -10q-12 -3 -12 9q0 1 1.5 15t3.5 38.5t2 49.5q-36 -52 -91 -82t-114 -30q-87 0 -148.5 66.5t-61.5 168.5
q0 120 87.5 202.5t199.5 82.5q67 0 128 -47zM281 488q-82 0 -128.5 -57t-46.5 -166q0 -95 51.5 -168.5t139.5 -73.5q45 0 86.5 26t67.5 69v271q-94 99 -170 99zM608 620q-4 -2 -5.5 -0.5t2.5 4.5q50 28 50 90q0 14 -5 27q-12 -20 -35 -20q-18 0 -30.5 12.5t-12.5 30.5
q0 20 13.5 33.5t35.5 13.5q27 0 42.5 -22.5t15.5 -60.5q0 -34 -24 -64t-47 -44z" />
    <glyph glyph-name="Dcroat" unicode="&#x110;" horiz-adv-x="733" 
d="M690 346q0 -152 -107.5 -249t-270.5 -97l-155 3l-141 -3q-6 0 -7 3q3 3 7 4q32 0 44.5 7.5t19.5 34t11 91.5q2 29 2 169q-7 0 -21.5 -0.5t-22.5 -0.5q-35 -1 -35 2q0 7 46 51q3 0 13.5 -0.5t18.5 -0.5v33q0 22 -1.5 96.5t-1.5 103.5q0 67 -9 79t-57 12q-6 0 -6 4.5t6 4.5
q3 0 58.5 -1t63.5 -1q6 0 76.5 1t86.5 1q159 0 270.5 -97t111.5 -250zM601 346q0 154 -80.5 246t-214.5 92h-66q-51 0 -60 -33t-9 -217v-74q82 0 123 1q35 1 35 -1q0 -7 -46 -51q-5 0 -46 0.5t-66 0.5v-149q0 -113 -8 -147q9 0 67.5 -2t83.5 -2q135 0 211 90.5t76 245.5z
" />
    <glyph glyph-name="dcroat" unicode="&#x111;" horiz-adv-x="599" 
d="M443 661h8v20q0 61 -12.5 72.5t-53.5 4.5q-5 -1 -6 3q-1 5 6 6q57 10 121 46q3 2 11.5 -1t8.5 -6v-145q32 0 48 1q35 1 35 -1q0 -7 -46 -51h-37v-491q0 -76 7.5 -93t43.5 -17q6 0 6 -4.5t-6 -4.5q-74 0 -121 -10q-12 -3 -12 9q0 1 1.5 15t3.5 38.5t2 49.5
q-36 -52 -91 -82t-114 -30q-87 0 -148.5 66.5t-61.5 168.5q0 120 87.5 202.5t199.5 82.5q67 0 128 -47v148h-6q-30 0 -116 -2q-35 -1 -35 2q0 7 46 51q6 0 42 -0.5t61 -0.5zM281 488q-82 0 -128.5 -57t-46.5 -166q0 -95 51.5 -168.5t139.5 -73.5q45 0 86.5 26t67.5 69v271
q-94 99 -170 99z" />
    <glyph glyph-name="Emacron" unicode="&#x112;" horiz-adv-x="622" 
d="M171 434v-69h83q88 0 120 29t32 86v21q0 6 5 6t5 -6q0 -16 -2.5 -76t-2.5 -66q0 -7 2.5 -68t2.5 -69q0 -6 -5 -6t-5 6v15q0 57 -32 86.5t-120 29.5h-83v-192q0 -113 -8 -147q14 0 93.5 -1.5t95.5 -1.5q83 0 142 60.5t69 141.5l6 53q0 3 3 4t5.5 -0.5t2.5 -4.5l-6 -54
q-22 -199 -31 -207q-4 -4 -133 -4l-253 3l-141 -3q-6 0 -7 3q3 3 7 4q32 0 44.5 7.5t19.5 34t11 91.5q4 55 4 294q0 64 -0.5 104t-3.5 70t-6 44t-11.5 22t-15 9t-21.5 1h-18q-6 0 -6 4.5t6 4.5q16 0 60.5 -1.5t50.5 -1.5q4 0 167.5 1.5t184.5 1.5q39 0 47 -4q4 -2 29 -184
l4 -36q1 -5 -3.5 -5t-6.5 5l-5 36q-14 84 -69.5 129.5t-141.5 46.5h-127q-29 0 -34 -18.5t-4 -134.5v-94zM309 842h1q57 0 90 1q35 1 35 -1q0 -7 -46 -51q-1 0 -29.5 0.5t-48.5 0.5q-10 0 -76 -2q-35 -1 -35 2q0 7 46 51q1 0 22 -0.5t41 -0.5z" />
    <glyph glyph-name="emacron" unicode="&#x113;" horiz-adv-x="516" 
d="M285 -10q-113 0 -182 67.5t-69 172.5q0 111 86.5 195.5t191.5 84.5q51 0 88.5 -14.5t55.5 -36t25 -43.5t5 -41q-4 -31 -42 -31h-342q-8 -37 -8 -77q0 -92 70.5 -155.5t171.5 -63.5q87 0 147 49.5t104 144.5q4 11 8 7q2 -2 -1 -9q-45 -105 -124.5 -177.5t-184.5 -72.5z
M350 356q31 0 40 9q9 11 9 32q0 33 -31 62t-84 29q-66 0 -113.5 -35t-66.5 -101q62 0 141 2t105 2zM306 636h1q57 0 90 1q35 1 35 -1q0 -7 -46 -51q-1 0 -29.5 0.5t-48.5 0.5q-10 0 -76 -2q-35 -1 -35 2q0 7 46 51q1 0 22 -0.5t41 -0.5z" />
    <glyph glyph-name="Ebreve" unicode="&#x114;" horiz-adv-x="622" 
d="M171 434v-69h83q88 0 120 29t32 86v21q0 6 5 6t5 -6q0 -16 -2.5 -76t-2.5 -66q0 -7 2.5 -68t2.5 -69q0 -6 -5 -6t-5 6v15q0 57 -32 86.5t-120 29.5h-83v-192q0 -113 -8 -147q14 0 93.5 -1.5t95.5 -1.5q83 0 142 60.5t69 141.5l6 53q0 3 3 4t5.5 -0.5t2.5 -4.5l-6 -54
q-22 -199 -31 -207q-4 -4 -133 -4l-253 3l-141 -3q-6 0 -7 3q3 3 7 4q32 0 44.5 7.5t19.5 34t11 91.5q4 55 4 294q0 64 -0.5 104t-3.5 70t-6 44t-11.5 22t-15 9t-21.5 1h-18q-6 0 -6 4.5t6 4.5q16 0 60.5 -1.5t50.5 -1.5q4 0 167.5 1.5t184.5 1.5q39 0 47 -4q4 -2 29 -184
l4 -36q1 -5 -3.5 -5t-6.5 5l-5 36q-14 84 -69.5 129.5t-141.5 46.5h-127q-29 0 -34 -18.5t-4 -134.5v-94zM311 776q-64 0 -119 72q-6 8 -6 12q0 7 23 14q15 5 21 4.5t11 -7.5q30 -39 52.5 -56.5t49.5 -17.5q43 0 75 75q3 7 11 7q5 0 8 -3.5t0 -7.5q-22 -37 -57 -64t-69 -28z
" />
    <glyph glyph-name="ebreve" unicode="&#x115;" horiz-adv-x="516" 
d="M285 -10q-113 0 -182 67.5t-69 172.5q0 111 86.5 195.5t191.5 84.5q51 0 88.5 -14.5t55.5 -36t25 -43.5t5 -41q-4 -31 -42 -31h-342q-8 -37 -8 -77q0 -92 70.5 -155.5t171.5 -63.5q87 0 147 49.5t104 144.5q4 11 8 7q2 -2 -1 -9q-45 -105 -124.5 -177.5t-184.5 -72.5z
M350 356q31 0 40 9q9 11 9 32q0 33 -31 62t-84 29q-66 0 -113.5 -35t-66.5 -101q62 0 141 2t105 2zM297 587q-64 0 -119 72q-6 7 -6 12q0 7 23 14q15 5 21 4.5t11 -7.5q30 -39 52.5 -56.5t49.5 -17.5q43 0 75 75q3 7 11 7q5 0 8 -3.5t0 -7.5q-22 -37 -57 -64t-69 -28z" />
    <glyph glyph-name="Edotaccent" unicode="&#x116;" horiz-adv-x="622" 
d="M171 434v-69h83q88 0 120 29t32 86v21q0 6 5 6t5 -6q0 -16 -2.5 -76t-2.5 -66q0 -7 2.5 -68t2.5 -69q0 -6 -5 -6t-5 6v15q0 57 -32 86.5t-120 29.5h-83v-192q0 -113 -8 -147q14 0 93.5 -1.5t95.5 -1.5q83 0 142 60.5t69 141.5l6 53q0 3 3 4t5.5 -0.5t2.5 -4.5l-6 -54
q-22 -199 -31 -207q-4 -4 -133 -4l-253 3l-141 -3q-6 0 -7 3q3 3 7 4q32 0 44.5 7.5t19.5 34t11 91.5q4 55 4 294q0 64 -0.5 104t-3.5 70t-6 44t-11.5 22t-15 9t-21.5 1h-18q-6 0 -6 4.5t6 4.5q16 0 60.5 -1.5t50.5 -1.5q4 0 167.5 1.5t184.5 1.5q39 0 47 -4q4 -2 29 -184
l4 -36q1 -5 -3.5 -5t-6.5 5l-5 36q-14 84 -69.5 129.5t-141.5 46.5h-127q-29 0 -34 -18.5t-4 -134.5v-94zM259 833q0 22 15 37.5t37 15.5t37.5 -15.5t15.5 -37.5t-15.5 -37t-37.5 -15t-37 15t-15 37z" />
    <glyph glyph-name="edotaccent" unicode="&#x117;" horiz-adv-x="516" 
d="M285 -10q-113 0 -182 67.5t-69 172.5q0 111 86.5 195.5t191.5 84.5q51 0 88.5 -14.5t55.5 -36t25 -43.5t5 -41q-4 -31 -42 -31h-342q-8 -37 -8 -77q0 -92 70.5 -155.5t171.5 -63.5q87 0 147 49.5t104 144.5q4 11 8 7q2 -2 -1 -9q-45 -105 -124.5 -177.5t-184.5 -72.5z
M350 356q31 0 40 9q9 11 9 32q0 33 -31 62t-84 29q-66 0 -113.5 -35t-66.5 -101q62 0 141 2t105 2zM268 639q0 22 15 37.5t37 15.5t37.5 -15.5t15.5 -37.5t-15.5 -37t-37.5 -15t-37 15t-15 37z" />
    <glyph glyph-name="Eogonek" unicode="&#x118;" horiz-adv-x="622" 
d="M171 434v-69h83q88 0 120 29t32 86v21q0 6 5 6t5 -6q0 -16 -2.5 -76t-2.5 -66q0 -7 2.5 -68t2.5 -69q0 -6 -5 -6t-5 6v15q0 57 -32 86.5t-120 29.5h-83v-192q0 -113 -8 -147q14 0 93.5 -1.5t95.5 -1.5q83 0 142 60.5t69 141.5l6 53q0 3 3 4t5.5 -0.5t2.5 -4.5l-6 -54
q-21 -193 -30 -206q-54 -66 -57 -94q-2 -20 11 -32t41 -12q33 0 75 21q2 1 -5 -15.5t-17 -34.5t-15 -22q-31 -13 -68 -13q-33 0 -50 19.5t-13 53.5q4 36 82 125q-23 -1 -118 -1l-253 3l-141 -3q-6 0 -7 3q3 3 7 4q32 0 44.5 7.5t19.5 34t11 91.5q4 55 4 294q0 64 -0.5 104
t-3.5 70t-6 44t-11.5 22t-15 9t-21.5 1h-18q-6 0 -6 4.5t6 4.5q16 0 60.5 -1.5t50.5 -1.5q4 0 167.5 1.5t184.5 1.5q39 0 47 -4q4 -2 29 -184l4 -36q1 -5 -3.5 -5t-6.5 5l-5 36q-14 84 -69.5 129.5t-141.5 46.5h-127q-29 0 -34 -18.5t-4 -134.5v-94z" />
    <glyph glyph-name="eogonek" unicode="&#x119;" horiz-adv-x="516" 
d="M408 -134q33 0 75 21q2 1 -5 -15.5t-17 -34.5t-15 -22q-31 -13 -68 -13q-33 0 -50 19.5t-13 53.5q3 24 26.5 56.5t79.5 96.5q-63 -38 -136 -38q-113 0 -182 67.5t-69 172.5q0 111 86.5 195.5t191.5 84.5q51 0 88.5 -14.5t55.5 -36t25 -43.5t5 -41q-4 -31 -42 -31h-342
q-8 -37 -8 -77q0 -92 70.5 -155.5t171.5 -63.5q87 0 147 49.5t104 144.5q4 11 8 7q2 -2 -1 -9q-57 -130 -149 -196q-51 -60 -69 -87.5t-20 -46.5q-2 -20 11 -32t41 -12zM350 356q31 0 40 9q9 11 9 32q0 33 -31 62t-84 29q-66 0 -113.5 -35t-66.5 -101q62 0 141 2t105 2z" />
    <glyph glyph-name="Ecaron" unicode="&#x11a;" horiz-adv-x="622" 
d="M171 434v-69h83q88 0 120 29t32 86v21q0 6 5 6t5 -6q0 -16 -2.5 -76t-2.5 -66q0 -7 2.5 -68t2.5 -69q0 -6 -5 -6t-5 6v15q0 57 -32 86.5t-120 29.5h-83v-192q0 -113 -8 -147q14 0 93.5 -1.5t95.5 -1.5q83 0 142 60.5t69 141.5l6 53q0 3 3 4t5.5 -0.5t2.5 -4.5l-6 -54
q-22 -199 -31 -207q-4 -4 -133 -4l-253 3l-141 -3q-6 0 -7 3q3 3 7 4q32 0 44.5 7.5t19.5 34t11 91.5q4 55 4 294q0 64 -0.5 104t-3.5 70t-6 44t-11.5 22t-15 9t-21.5 1h-18q-6 0 -6 4.5t6 4.5q16 0 60.5 -1.5t50.5 -1.5q4 0 167.5 1.5t184.5 1.5q39 0 47 -4q4 -2 29 -184
l4 -36q1 -5 -3.5 -5t-6.5 5l-5 36q-14 84 -69.5 129.5t-141.5 46.5h-127q-29 0 -34 -18.5t-4 -134.5v-94zM307 782q4 -4 7 0l82 122q14 19 34 19q9 0 14.5 -4.5t5.5 -9.5q0 -10 -18 -29q-57 -59 -117 -107q-1 -1 -4 -1t-5 1q-72 55 -121 97q-20 18 -20 29q0 7 6.5 14t16.5 7
q20 0 35 -21q10 -15 42 -58.5t42 -58.5z" />
    <glyph glyph-name="ecaron" unicode="&#x11b;" horiz-adv-x="516" 
d="M285 -10q-113 0 -182 67.5t-69 172.5q0 111 86.5 195.5t191.5 84.5q51 0 88.5 -14.5t55.5 -36t25 -43.5t5 -41q-4 -31 -42 -31h-342q-8 -37 -8 -77q0 -92 70.5 -155.5t171.5 -63.5q87 0 147 49.5t104 144.5q4 11 8 7q2 -2 -1 -9q-45 -105 -124.5 -177.5t-184.5 -72.5z
M350 356q31 0 40 9q9 11 9 32q0 33 -31 62t-84 29q-66 0 -113.5 -35t-66.5 -101q62 0 141 2t105 2zM302 588q4 -4 7 0l82 122q14 19 34 19q9 0 14.5 -4.5t5.5 -9.5q0 -10 -18 -29q-57 -59 -117 -107q-2 -1 -5 -1t-4 1q-72 55 -121 97q-20 18 -20 29q0 7 6.5 14t16.5 7
q20 0 35 -21q10 -15 42 -58.5t42 -58.5z" />
    <glyph glyph-name="Gcircumflex" unicode="&#x11c;" horiz-adv-x="770" 
d="M428 693q-136 0 -215.5 -94.5t-79.5 -252.5q0 -156 76.5 -251t210.5 -95q103 0 201 56q3 6 3 130q0 92 -2 112q-23 6 -78 8q-90 4 -217 4q-4 0 -5 3q2 3 6 4q220 0 366 11q6 0 6 -8q-1 -95 -1 -322q0 -7 -8 -1q-37 30 -62 30q-14 0 -84.5 -18.5t-122.5 -18.5
q-162 0 -270.5 101.5t-108.5 254.5q0 154 112.5 255.5t270.5 101.5q63 0 135.5 -13t113.5 -31l12 -213q0 -4 -2 -6t-4.5 -0.5t-2.5 5.5q-24 248 -250 248zM442 912q-4 4 -7 0l-82 -122q-14 -19 -34 -19q-9 0 -14.5 4.5t-5.5 9.5q0 10 18 29q57 59 117 107q2 1 5 1t4 -1
q72 -55 121 -97q20 -18 20 -29q0 -7 -6.5 -14t-16.5 -7q-20 0 -35 21q-10 15 -41.5 58.5t-42.5 58.5z" />
    <glyph glyph-name="gcircumflex" unicode="&#x11d;" horiz-adv-x="502" 
d="M465 484q-10 0 -82 9t-113 9v-2q76 -10 119 -56.5t43 -114.5q0 -78 -59.5 -125t-151.5 -47h-18q-50 -3 -84 -17t-34 -37q0 -27 30.5 -35t102.5 -8h134q80 0 118.5 -31t38.5 -77q0 -62 -53.5 -122.5t-134.5 -97t-158 -36.5q-76 -1 -120.5 35.5t-44.5 91.5q0 54 50 102
t117 72q-133 5 -133 67q0 33 40.5 60.5t101.5 36.5q-66 12 -103.5 54.5t-37.5 111.5q0 76 60.5 128.5t148.5 52.5q58 0 147 19t92 19q29 0 29 -15t-13 -31t-32 -16zM223 -249h4q98 0 175.5 46t77.5 112q0 47 -38.5 67t-124.5 20h-130q-65 -20 -105 -56t-40 -78
q0 -53 47.5 -82t133.5 -29zM232 167q61 0 93.5 41.5t32.5 120.5q0 68 -33 118.5t-89 50.5q-128 0 -128 -160q0 -76 32 -123.5t92 -47.5zM244 718q-4 4 -7 0l-82 -122q-14 -19 -34 -19q-9 0 -14.5 4.5t-5.5 9.5q0 10 18 29q57 59 117 107q2 1 5 1t4 -1q72 -55 121 -97
q20 -18 20 -29q0 -7 -6.5 -14t-16.5 -7q-20 0 -35 21q-10 15 -42 58.5t-42 58.5z" />
    <glyph glyph-name="Gbreve" unicode="&#x11e;" horiz-adv-x="770" 
d="M433 781q-64 0 -119 72q-6 7 -6 12q0 7 23 14q15 5 21 4.5t11 -7.5q30 -39 52.5 -56.5t49.5 -17.5q43 0 75 75q3 7 11 7q5 0 8 -3.5t0 -7.5q-22 -37 -57 -64t-69 -28zM428 693q-136 0 -215.5 -94.5t-79.5 -252.5q0 -156 76.5 -251t210.5 -95q103 0 201 56q3 6 3 130
q0 92 -2 112q-23 6 -78 8q-90 4 -217 4q-4 0 -5 3q2 3 6 4q220 0 366 11q6 0 6 -8q-1 -95 -1 -322q0 -7 -8 -1q-37 30 -62 30q-14 0 -84.5 -18.5t-122.5 -18.5q-162 0 -270.5 101.5t-108.5 254.5q0 154 112.5 255.5t270.5 101.5q63 0 135.5 -13t113.5 -31l12 -213
q0 -4 -2 -6t-4.5 -0.5t-2.5 5.5q-24 248 -250 248z" />
    <glyph glyph-name="gbreve" unicode="&#x11f;" horiz-adv-x="502" 
d="M465 484q-10 0 -82 9t-113 9v-2q76 -10 119 -56.5t43 -114.5q0 -78 -59.5 -125t-151.5 -47h-18q-50 -3 -84 -17t-34 -37q0 -27 30.5 -35t102.5 -8h134q80 0 118.5 -31t38.5 -77q0 -62 -53.5 -122.5t-134.5 -97t-158 -36.5q-76 -1 -120.5 35.5t-44.5 91.5q0 54 50 102
t117 72q-133 5 -133 67q0 33 40.5 60.5t101.5 36.5q-66 12 -103.5 54.5t-37.5 111.5q0 76 60.5 128.5t148.5 52.5q58 0 147 19t92 19q29 0 29 -15t-13 -31t-32 -16zM223 -249h4q98 0 175.5 46t77.5 112q0 47 -38.5 67t-124.5 20h-130q-65 -20 -105 -56t-40 -78
q0 -53 47.5 -82t133.5 -29zM232 167q61 0 93.5 41.5t32.5 120.5q0 68 -33 118.5t-89 50.5q-128 0 -128 -160q0 -76 32 -123.5t92 -47.5zM246 587q-64 0 -119 72q-6 7 -6 12q0 7 23 14q15 5 21 4.5t11 -7.5q30 -39 52.5 -56.5t49.5 -17.5q43 0 75 75q3 7 11 7q5 0 8 -3.5
t0 -7.5q-22 -37 -57 -64t-69 -28z" />
    <glyph glyph-name="Gdotaccent" unicode="&#x120;" horiz-adv-x="770" 
d="M385 833q0 22 15 37.5t37 15.5t37.5 -15.5t15.5 -37.5t-15.5 -37t-37.5 -15t-37 15t-15 37zM428 693q-136 0 -215.5 -94.5t-79.5 -252.5q0 -156 76.5 -251t210.5 -95q103 0 201 56q3 6 3 130q0 92 -2 112q-23 6 -78 8q-90 4 -217 4q-4 0 -5 3q2 3 6 4q220 0 366 11
q6 0 6 -8q-1 -95 -1 -322q0 -7 -8 -1q-37 30 -62 30q-14 0 -84.5 -18.5t-122.5 -18.5q-162 0 -270.5 101.5t-108.5 254.5q0 154 112.5 255.5t270.5 101.5q63 0 135.5 -13t113.5 -31l12 -213q0 -4 -2 -6t-4.5 -0.5t-2.5 5.5q-24 248 -250 248z" />
    <glyph glyph-name="gdotaccent" unicode="&#x121;" horiz-adv-x="502" 
d="M465 484q-10 0 -82 9t-113 9v-2q76 -10 119 -56.5t43 -114.5q0 -78 -59.5 -125t-151.5 -47h-18q-50 -3 -84 -17t-34 -37q0 -27 30.5 -35t102.5 -8h134q80 0 118.5 -31t38.5 -77q0 -62 -53.5 -122.5t-134.5 -97t-158 -36.5q-76 -1 -120.5 35.5t-44.5 91.5q0 54 50 102
t117 72q-133 5 -133 67q0 33 40.5 60.5t101.5 36.5q-66 12 -103.5 54.5t-37.5 111.5q0 76 60.5 128.5t148.5 52.5q58 0 147 19t92 19q29 0 29 -15t-13 -31t-32 -16zM223 -249h4q98 0 175.5 46t77.5 112q0 47 -38.5 67t-124.5 20h-130q-65 -20 -105 -56t-40 -78
q0 -53 47.5 -82t133.5 -29zM232 167q61 0 93.5 41.5t32.5 120.5q0 68 -33 118.5t-89 50.5q-128 0 -128 -160q0 -76 32 -123.5t92 -47.5zM186 639q0 22 15 37.5t37 15.5t37.5 -15.5t15.5 -37.5t-15.5 -37t-37.5 -15t-37 15t-15 37z" />
    <glyph glyph-name="Gcommaaccent" unicode="&#x122;" horiz-adv-x="770" 
d="M428 693q-136 0 -215.5 -94.5t-79.5 -252.5q0 -156 76.5 -251t210.5 -95q103 0 201 56q3 6 3 130q0 92 -2 112q-23 6 -78 8q-90 4 -217 4q-4 0 -5 3q2 3 6 4q220 0 366 11q6 0 6 -8q-1 -95 -1 -322q0 -7 -8 -1q-37 30 -62 30q-14 0 -84.5 -18.5t-122.5 -18.5
q-162 0 -270.5 101.5t-108.5 254.5q0 154 112.5 255.5t270.5 101.5q63 0 135.5 -13t113.5 -31l12 -213q0 -4 -2 -6t-4.5 -0.5t-2.5 5.5q-24 248 -250 248zM406 -261q-4 -2 -5.5 -0.5t2.5 4.5q50 28 50 90q0 14 -5 27q-12 -20 -35 -20q-18 0 -30.5 12.5t-12.5 30.5
q0 20 13.5 33.5t35.5 13.5q27 0 42.5 -22.5t15.5 -60.5q0 -34 -24 -64t-47 -44z" />
    <glyph glyph-name="gcommaaccent" unicode="&#x123;" horiz-adv-x="502" 
d="M465 484q-10 0 -82 9t-113 9v-2q76 -10 119 -56.5t43 -114.5q0 -78 -59.5 -125t-151.5 -47h-18q-50 -3 -84 -17t-34 -37q0 -27 30.5 -35t102.5 -8h134q80 0 118.5 -31t38.5 -77q0 -62 -53.5 -122.5t-134.5 -97t-158 -36.5q-76 -1 -120.5 35.5t-44.5 91.5q0 54 50 102
t117 72q-133 5 -133 67q0 33 40.5 60.5t101.5 36.5q-66 12 -103.5 54.5t-37.5 111.5q0 76 60.5 128.5t148.5 52.5q58 0 147 19t92 19q29 0 29 -15t-13 -31t-32 -16zM223 -249h4q98 0 175.5 46t77.5 112q0 47 -38.5 67t-124.5 20h-130q-65 -20 -105 -56t-40 -78
q0 -53 47.5 -82t133.5 -29zM232 167q61 0 93.5 41.5t32.5 120.5q0 68 -33 118.5t-89 50.5q-128 0 -128 -160q0 -76 32 -123.5t92 -47.5zM251 769q4 2 5.5 0.5t-2.5 -4.5q-50 -28 -50 -90q0 -17 5 -27q10 20 35 20q18 0 30.5 -12.5t12.5 -30.5q0 -20 -13.5 -33.5t-35.5 -13.5
q-27 0 -42.5 22.5t-15.5 60.5q0 34 24 64t47 44z" />
    <glyph glyph-name="Hcircumflex" unicode="&#x124;" horiz-adv-x="696" 
d="M91 259v175q0 99 -1 144t-8 72t-15.5 30.5t-29.5 3.5h-13q-6 0 -6 4.5t6 4.5q16 0 58 -1.5t48 -1.5q5 0 50 1.5t61 1.5q6 0 6 -4.5t-6 -4.5h-20q-21 0 -29.5 -3.5t-15.5 -30.5t-8 -72t-1 -144v-80l184 2l178 -3v81q0 99 -1 144t-8 72t-15.5 30.5t-29.5 3.5h-21
q-6 0 -6 4.5t6 4.5q16 0 61 -1.5t51 -1.5t49 1.5t59 1.5q6 0 6 -4.5t-6 -4.5h-16q-21 0 -29 -3.5t-15 -30.5t-8 -72t-1 -144v-175q0 -99 1 -144t8 -72t15 -30.5t29 -3.5h16q6 0 6 -4.5t-6 -4.5q-16 0 -59 1.5t-49 1.5t-51 -1.5t-61 -1.5q-6 0 -6 4.5t6 4.5h21q21 0 29.5 3.5
t15.5 30.5t8 72t1 144v84l-177 -1q-109 0 -185 2v-85q0 -99 1 -144t8 -72t15.5 -30.5t29.5 -3.5h20q6 0 6 -4.5t-6 -4.5q-16 0 -61 1.5t-50 1.5q-6 0 -48 -1.5t-58 -1.5q-6 0 -6 4.5t6 4.5h13q21 0 29.5 3.5t15.5 30.5t8 72t1 144zM358 912q-4 4 -7 0l-82 -122
q-14 -19 -34 -19q-9 0 -14.5 4.5t-5.5 9.5q0 10 18 29q57 59 117 107q2 1 5 1t4 -1q72 -55 121 -97q20 -18 20 -29q0 -7 -6.5 -14t-16.5 -7q-20 0 -35 21q-10 15 -42 58.5t-42 58.5z" />
    <glyph glyph-name="hcircumflex" unicode="&#x125;" 
d="M121 2q-6 0 -43 -1t-53 -1q-6 0 -6 4.5t6 4.5q32 0 38.5 17.5t6.5 92.5v562q0 43 -5.5 60.5t-19.5 20.5t-39 -3q-5 -1 -6 3q-1 5 6 6q60 11 121 45q3 2 10.5 -0.5t7.5 -6.5v-403q80 107 183 107q163 0 163 -203v-257q0 -27 10 -34.5t38 -6.5q6 0 6 -4.5t-6 -4.5
q-3 0 -41.5 1t-47.5 1q-6 0 -39 -1t-49 -1q-6 0 -6 4.5t6 4.5q25 0 34.5 5t14 27t4.5 76v200q0 86 -34 124.5t-86 38.5q-46 0 -80.5 -21t-69.5 -68v-382h61q6 0 6 -4.5t-6 -4.5q-3 0 -39.5 1t-45.5 1zM99 994q-4 4 -7 0l-82 -122q-14 -19 -34 -19q-9 0 -14.5 4.5t-5.5 9.5
q0 10 18 29q57 59 117 107q1 1 4 1t5 -1q72 -55 121 -97q20 -18 20 -29q0 -7 -6.5 -14t-16.5 -7q-20 0 -35 21q-10 15 -42 58.5t-42 58.5z" />
    <glyph glyph-name="Hbar" unicode="&#x126;" horiz-adv-x="696" 
d="M91 259v175q0 75 -1 104l-63 -3q-5 3 -5 11.5t5 12.5q36 -2 63 -2q-1 62 -7 88.5t-15 32.5t-31 6h-13q-6 0 -6 4.5t6 4.5q16 0 58 -1.5t48 -1.5q5 0 50 1.5t61 1.5q6 0 6 -4.5t-6 -4.5h-20q-22 0 -31 -6t-15 -33t-7 -90q120 -2 178 -2q120 0 182 2q-1 63 -7 90t-15 33
t-31 6h-21q-6 0 -6 4.5t6 4.5q16 0 61 -1.5t51 -1.5t49 1.5t59 1.5q6 0 6 -4.5t-6 -4.5h-16q-22 0 -30.5 -6t-14.5 -32.5t-7 -88.5q25 0 61 2q5 -4 5 -12.5t-5 -11.5q-38 2 -62 2v-278q0 -99 1 -144t8 -72t15 -30.5t29 -3.5h16q6 0 6 -4.5t-6 -4.5q-16 0 -59 1.5t-49 1.5
t-51 -1.5t-61 -1.5q-6 0 -6 4.5t6 4.5h21q21 0 29.5 3.5t15.5 30.5t8 72t1 144v84l-177 -1q-109 0 -185 2v-85q0 -99 1 -144t8 -72t15.5 -30.5t29.5 -3.5h20q6 0 6 -4.5t-6 -4.5q-16 0 -61 1.5t-50 1.5q-6 0 -48 -1.5t-58 -1.5q-6 0 -6 4.5t6 4.5h13q21 0 29.5 3.5
t15.5 30.5t8 72t1 144zM529 353v81q0 76 -1 105q-92 3 -181 3q-60 0 -180 -2v-186l184 2z" />
    <glyph glyph-name="hbar" unicode="&#x127;" 
d="M362 0q-6 0 -6 4.5t6 4.5q25 0 34.5 5t14 27t4.5 76v200q0 86 -34 124.5t-86 38.5q-46 0 -80.5 -21t-69.5 -68v-382h61q6 0 6 -4.5t-6 -4.5q-3 0 -39.5 1t-45.5 1q-6 0 -43 -1t-53 -1q-6 0 -6 4.5t6 4.5q32 0 38.5 17.5t6.5 92.5v491q-8 0 -25 -0.5t-26 -0.5
q-35 -1 -35 2q0 7 46 51q3 0 16.5 -0.5t23.5 -0.5v20q0 43 -5.5 60.5t-19.5 20.5t-39 -3q-5 -1 -6 3q-1 5 6 6q60 11 121 45q3 2 10.5 -0.5t7.5 -6.5v-145q79 0 119 1q35 1 35 -1q0 -7 -46 -51q-5 0 -44.5 0.5t-63.5 0.5v-208q80 107 183 107q163 0 163 -203v-257
q0 -27 10 -34.5t38 -6.5q6 0 6 -4.5t-6 -4.5q-3 0 -41.5 1t-47.5 1q-6 0 -39 -1t-49 -1z" />
    <glyph glyph-name="Itilde" unicode="&#x128;" horiz-adv-x="281" 
d="M102 259v175q0 99 -1 144t-8 72t-15.5 30.5t-29.5 3.5h-21q-6 0 -6 4.5t6 4.5q16 0 62.5 -1.5t51.5 -1.5q6 0 51.5 1.5t61.5 1.5q6 0 6 -4.5t-6 -4.5h-21q-21 0 -29.5 -3.5t-15.5 -30.5t-8 -72t-1 -144v-175q0 -99 1 -144t8 -72t15.5 -30.5t29.5 -3.5h21q6 0 6 -4.5
t-6 -4.5q-16 0 -61.5 1.5t-51.5 1.5q-5 0 -51.5 -1.5t-62.5 -1.5q-6 0 -6 4.5t6 4.5h21q21 0 29.5 3.5t15.5 30.5t8 72t1 144zM-16 792q44 57 61.5 75t34.5 18q22 0 77.5 -29.5t72.5 -29.5q14 0 22.5 8t36.5 47q5 5 8 3.5t-1 -8.5q-36 -53 -59 -76.5t-45 -23.5
q-21 0 -75 31.5t-73 31.5q-8 0 -15.5 -7.5t-37.5 -44.5q-6 -7 -8.5 -4.5t1.5 9.5z" />
    <glyph glyph-name="itilde" unicode="&#x129;" horiz-adv-x="226" 
d="M78 110v267q0 55 -12 66t-52 2q-6 -1 -7.5 3t4.5 5q63 14 125 57q3 2 10.5 -1t7.5 -6v-393q0 -66 9.5 -83.5t50.5 -17.5q6 0 6 -4.5t-6 -4.5q-16 0 -53 1t-43 1t-45.5 -1t-55.5 -1q-6 0 -6 4.5t6 4.5q42 0 51.5 17.5t9.5 83.5zM-44 598q44 57 61.5 75t34.5 18
q22 0 77.5 -29.5t72.5 -29.5q14 0 22.5 8t36.5 47q5 5 8 3.5t-1 -8.5q-36 -53 -59 -76.5t-45 -23.5q-21 0 -75 31.5t-73 31.5q-8 0 -15.5 -7.5t-37.5 -44.5q-6 -7 -8.5 -4.5t1.5 9.5z" />
    <glyph glyph-name="Imacron" unicode="&#x12a;" horiz-adv-x="281" 
d="M102 259v175q0 99 -1 144t-8 72t-15.5 30.5t-29.5 3.5h-21q-6 0 -6 4.5t6 4.5q16 0 62.5 -1.5t51.5 -1.5q6 0 51.5 1.5t61.5 1.5q6 0 6 -4.5t-6 -4.5h-21q-21 0 -29.5 -3.5t-15.5 -30.5t-8 -72t-1 -144v-175q0 -99 1 -144t8 -72t15.5 -30.5t29.5 -3.5h21q6 0 6 -4.5
t-6 -4.5q-16 0 -61.5 1.5t-51.5 1.5q-5 0 -51.5 -1.5t-62.5 -1.5q-6 0 -6 4.5t6 4.5h21q21 0 29.5 3.5t15.5 30.5t8 72t1 144zM141 842h1q57 0 90 1q35 1 35 -1q0 -7 -46 -51q-1 0 -29.5 0.5t-48.5 0.5q-10 0 -76 -2q-35 -1 -35 2q0 7 46 51q1 0 22 -0.5t41 -0.5z" />
    <glyph glyph-name="imacron" unicode="&#x12b;" horiz-adv-x="226" 
d="M78 110v267q0 55 -12 66t-52 2q-6 -1 -7.5 3t4.5 5q63 14 125 57q3 2 10.5 -1t7.5 -6v-393q0 -66 9.5 -83.5t50.5 -17.5q6 0 6 -4.5t-6 -4.5q-16 0 -53 1t-43 1t-45.5 -1t-55.5 -1q-6 0 -6 4.5t6 4.5q42 0 51.5 17.5t9.5 83.5zM110 636h1q57 0 90 1q35 1 35 -1
q0 -7 -46 -51q-1 0 -29.5 0.5t-48.5 0.5q-10 0 -76 -2q-35 -1 -35 2q0 7 46 51q1 0 22 -0.5t41 -0.5z" />
    <glyph glyph-name="Ibreve" unicode="&#x12c;" horiz-adv-x="281" 
d="M102 259v175q0 99 -1 144t-8 72t-15.5 30.5t-29.5 3.5h-21q-6 0 -6 4.5t6 4.5q16 0 62.5 -1.5t51.5 -1.5q6 0 51.5 1.5t61.5 1.5q6 0 6 -4.5t-6 -4.5h-21q-21 0 -29.5 -3.5t-15.5 -30.5t-8 -72t-1 -144v-175q0 -99 1 -144t8 -72t15.5 -30.5t29.5 -3.5h21q6 0 6 -4.5
t-6 -4.5q-16 0 -61.5 1.5t-51.5 1.5q-5 0 -51.5 -1.5t-62.5 -1.5q-6 0 -6 4.5t6 4.5h21q21 0 29.5 3.5t15.5 30.5t8 72t1 144zM143 781q-64 0 -119 72q-6 7 -6 12q0 7 23 14q15 5 21 4.5t11 -7.5q30 -39 52.5 -56.5t49.5 -17.5q43 0 75 75q3 7 11 7q5 0 8 -3.5t0 -7.5
q-22 -37 -57 -64t-69 -28z" />
    <glyph glyph-name="ibreve" unicode="&#x12d;" horiz-adv-x="226" 
d="M78 110v267q0 55 -12 66t-52 2q-6 -1 -7.5 3t4.5 5q63 14 125 57q3 2 10.5 -1t7.5 -6v-393q0 -66 9.5 -83.5t50.5 -17.5q6 0 6 -4.5t-6 -4.5q-16 0 -53 1t-43 1t-45.5 -1t-55.5 -1q-6 0 -6 4.5t6 4.5q42 0 51.5 17.5t9.5 83.5zM108 587q-64 0 -119 72q-6 7 -6 12
q0 7 23 14q15 5 21 4.5t11 -7.5q30 -39 52.5 -56.5t49.5 -17.5q43 0 75 75q3 7 11 7q5 0 8 -3.5t0 -7.5q-22 -37 -57 -64t-69 -28z" />
    <glyph glyph-name="Iogonek" unicode="&#x12e;" horiz-adv-x="281" 
d="M102 259v175q0 99 -1 144t-8 72t-15.5 30.5t-29.5 3.5h-21q-6 0 -6 4.5t6 4.5q16 0 62.5 -1.5t51.5 -1.5q6 0 51.5 1.5t61.5 1.5q6 0 6 -4.5t-6 -4.5h-21q-21 0 -29.5 -3.5t-15.5 -30.5t-8 -72t-1 -144v-175q0 -99 1 -144t8 -72t15.5 -30.5t29.5 -3.5h21q4 0 5.5 -3.5
t-1.5 -4.5q-50 -63 -53 -90q-2 -20 11 -32t41 -12q33 0 75 21q2 1 -5 -15.5t-17 -34.5t-15 -22q-31 -13 -68 -13q-33 0 -50 19.5t-13 53.5q5 36 81 124q-18 0 -58.5 1.5t-45.5 1.5t-51.5 -1.5t-62.5 -1.5q-6 0 -6 4.5t6 4.5h21q21 0 29.5 3.5t15.5 30.5t8 72t1 144z" />
    <glyph glyph-name="iogonek" unicode="&#x12f;" horiz-adv-x="226" 
d="M78 110v267q0 55 -12 66t-52 2q-6 -1 -7.5 3t4.5 5q63 14 125 57q3 2 10.5 -1t7.5 -6v-393q0 -66 9.5 -83.5t50.5 -17.5q6 0 6 -4.5t-6 -4.5q-47 -59 -52 -89q-2 -20 11 -32t41 -12q33 0 75 21q2 1 -5 -15.5t-17 -34.5t-15 -22q-31 -13 -68 -13q-33 0 -50 19.5t-13 53.5
q3 22 21.5 49.5t60.5 74.5q-17 0 -49 1t-36 1q-6 0 -45.5 -1t-55.5 -1q-6 0 -6 4.5t6 4.5q42 0 51.5 17.5t9.5 83.5zM60 648q0 22 15 37.5t37 15.5t37.5 -15.5t15.5 -37.5t-15.5 -37t-37.5 -15t-37 15t-15 37z" />
    <glyph glyph-name="Idotaccent" unicode="&#x130;" horiz-adv-x="281" 
d="M102 259v175q0 99 -1 144t-8 72t-15.5 30.5t-29.5 3.5h-21q-6 0 -6 4.5t6 4.5q16 0 62.5 -1.5t51.5 -1.5q6 0 51.5 1.5t61.5 1.5q6 0 6 -4.5t-6 -4.5h-21q-21 0 -29.5 -3.5t-15.5 -30.5t-8 -72t-1 -144v-175q0 -99 1 -144t8 -72t15.5 -30.5t29.5 -3.5h21q6 0 6 -4.5
t-6 -4.5q-16 0 -61.5 1.5t-51.5 1.5q-5 0 -51.5 -1.5t-62.5 -1.5q-6 0 -6 4.5t6 4.5h21q21 0 29.5 3.5t15.5 30.5t8 72t1 144zM88 833q0 22 15 37.5t37 15.5t37.5 -15.5t15.5 -37.5t-15.5 -37t-37.5 -15t-37 15t-15 37z" />
    <glyph glyph-name="dotlessi" unicode="&#x131;" horiz-adv-x="226" 
d="M75 110v267q0 55 -12 66t-52 2q-6 -1 -7.5 3t4.5 5q63 14 125 57q3 2 10.5 -1t7.5 -6v-393q0 -66 9.5 -83.5t50.5 -17.5q6 0 6 -4.5t-6 -4.5q-16 0 -53 1t-43 1t-45.5 -1t-55.5 -1q-6 0 -6 4.5t6 4.5q42 0 51.5 17.5t9.5 83.5z" />
    <glyph glyph-name="IJ" unicode="&#x132;" horiz-adv-x="546" 
d="M102 259v175q0 99 -1 144t-8 72t-15.5 30.5t-29.5 3.5h-21q-6 0 -6 4.5t6 4.5q16 0 62.5 -1.5t51.5 -1.5q6 0 51.5 1.5t61.5 1.5q6 0 6 -4.5t-6 -4.5h-21q-21 0 -29.5 -3.5t-15.5 -30.5t-8 -72t-1 -144v-175q0 -99 1 -144t8 -72t15.5 -30.5t29.5 -3.5h21q6 0 6 -4.5
t-6 -4.5q-16 0 -61.5 1.5t-51.5 1.5q-5 0 -51.5 -1.5t-62.5 -1.5q-6 0 -6 4.5t6 4.5h21q21 0 29.5 3.5t15.5 30.5t8 72t1 144zM449 434v-115q0 -13 0.5 -52.5t0.5 -53.5q0 -76 -7.5 -126t-31.5 -93t-47.5 -70t-76.5 -78q-19 -18 -47 -38t-38 -20q-11 0 -23 2q-27 7 -27 23
q0 18 10 34.5t29 22.5q8 2 20 2q15 0 37 -0.5t25 -0.5q27 0 40 15q33 35 45.5 109.5t12.5 263.5v175q0 185 -7 217.5t-46 32.5h-1h-26q-6 0 -6 4.5t6 4.5q16 0 65.5 -1.5t54.5 -1.5q6 0 52 1.5t62 1.5q6 0 6 -4.5t-6 -4.5h-20q-41 0 -48.5 -32t-7.5 -218z" />
    <glyph glyph-name="ij" unicode="&#x133;" horiz-adv-x="429" 
d="M354 503l1 -454q-2 -60 -28 -111t-78 -115q-68 -84 -107 -84q-8 0 -18 2q-22 5 -22 18q0 14 12.5 31t28.5 21q6 2 16 2q12 0 29 -0.5t19 -0.5q22 0 32 12q12 14 17 21t14.5 55t9.5 122v355q0 54 -13 65.5t-53 2.5q-6 -1 -7.5 3t4.5 5q63 14 125 57q2 2 10 -1t8 -6z
M75 110v267q0 55 -12 66t-52 2q-6 -1 -7.5 3t4.5 5q63 14 125 57q3 2 10.5 -1t7.5 -6v-393q0 -66 9.5 -83.5t50.5 -17.5q6 0 6 -4.5t-6 -4.5q-16 0 -53 1t-43 1t-45.5 -1t-55.5 -1q-6 0 -6 4.5t6 4.5q42 0 51.5 17.5t9.5 83.5zM260 648q0 22 15 37.5t37 15.5t37.5 -15.5
t15.5 -37.5t-15.5 -37t-37.5 -15t-37 15t-15 37zM57 648q0 22 15 37.5t37 15.5t37.5 -15.5t15.5 -37.5t-15.5 -37t-37.5 -15t-37 15t-15 37z" />
    <glyph glyph-name="Jcircumflex" unicode="&#x134;" horiz-adv-x="285" 
d="M188 434v-115q0 -13 0.5 -52.5t0.5 -53.5q0 -76 -7.5 -126t-31.5 -93t-47.5 -70t-76.5 -78q-19 -18 -47 -38t-38 -20q-11 0 -23 2q-27 7 -27 23q0 18 10 34.5t29 22.5q8 2 20 2q14 0 36.5 -0.5t25.5 -0.5q27 0 40 15q33 35 45.5 109.5t12.5 263.5v175q0 185 -7 217.5
t-46 32.5h-1h-26q-6 0 -6 4.5t6 4.5q16 0 65.5 -1.5t54.5 -1.5q6 0 52 1.5t62 1.5q6 0 6 -4.5t-6 -4.5h-20q-41 0 -48.5 -32t-7.5 -218zM151 912q-4 4 -7 0l-82 -122q-14 -19 -34 -19q-9 0 -14.5 4.5t-5.5 9.5q0 10 18 29q57 59 117 107q1 1 4 1t5 -1q72 -55 121 -97
q20 -18 20 -29q0 -7 -6.5 -14t-16.5 -7q-20 0 -35 21q-10 15 -41.5 58.5t-42.5 58.5z" />
    <glyph glyph-name="jcircumflex" unicode="&#x135;" horiz-adv-x="223" 
d="M148 503l1 -454q-2 -60 -28 -111t-78 -115q-68 -84 -107 -84q-8 0 -18 2q-22 5 -22 18q0 14 12.5 31t28.5 21q6 2 16 2q12 0 29 -0.5t19 -0.5q22 0 32 12q12 14 17 21t14.5 55t9.5 122v355q0 54 -13 65.5t-53 2.5q-6 -1 -7.5 3t4.5 5q63 14 125 57q3 2 10.5 -1t7.5 -6z
M113 723q-4 4 -7 0l-82 -122q-14 -19 -34 -19q-9 0 -14.5 4.5t-5.5 9.5q0 10 18 29q57 59 117 107q5 4 9 0q72 -55 121 -97q20 -17 20 -29q0 -7 -6.5 -14t-16.5 -7q-20 0 -35 21q-10 15 -41.5 58.5t-42.5 58.5z" />
    <glyph glyph-name="Kcommaaccent" unicode="&#x136;" horiz-adv-x="668" 
d="M243 0q-3 0 -51 1t-56 1t-59.5 -1t-54.5 -1q-6 0 -6 4.5t6 4.5q34 0 46 2q17 17 20 90q3 83 3 200v133q0 99 -1 144t-8 72t-15.5 30.5t-29.5 3.5h-18q-6 0 -6 4.5t6 4.5q16 0 61.5 -1.5t51.5 -1.5q5 0 48.5 1.5t59.5 1.5q6 0 6 -4.5t-6 -4.5h-18q-21 0 -29.5 -3.5
t-16 -30t-8.5 -72.5t-1 -144v-140l180 194q116 125 116 172q-2 25 -39 25q-4 0 -13 -2t-10 -2q-9 0 -9 6t11 6q9 0 55 -1t54 -1q5 0 48.5 1t57.5 1q3 0 4.5 -2.5t0 -4.5t-4.5 -2h-2q-50 0 -91.5 -34t-168.5 -168l-96 -103q33 21 70 21t62 -13q18 -9 31.5 -21.5t25 -33
t18 -34t19.5 -46.5t20 -49q48 -120 75 -157t66 -37h12q8 0 9 -4q1 -5 -11 -5h-34q-20 0 -43.5 -2t-28.5 -2q-30 0 -50 24q-25 32 -69 151q-44 124 -70 163q-30 46 -64 46q-32 0 -63 -27l-68 -73v-21q0 -99 1 -144t8 -72t15.5 -30.5t29.5 -3.5h22q6 0 6 -4.5t-6 -4.5z
M341 -241q-4 -2 -5.5 -0.5t2.5 4.5q50 28 50 90q0 14 -5 27q-12 -20 -35 -20q-18 0 -30.5 12.5t-12.5 30.5q0 20 13.5 33.5t35.5 13.5q27 0 42.5 -22.5t15.5 -60.5q0 -34 -24 -64t-47 -44z" />
    <glyph glyph-name="kcommaaccent" unicode="&#x137;" horiz-adv-x="552" 
d="M560 0h-94q-23 0 -38 10q-33 21 -98 133l-82 137l-103 -105v-166h61q6 0 6 -4.5t-6 -4.5q-3 0 -39.5 1t-45.5 1q-6 0 -43 -1t-53 -1q-6 0 -6 4.5t6 4.5q32 0 38.5 17.5t6.5 92.5v562q0 43 -5.5 60.5t-19.5 20.5t-39 -3q-5 -1 -6 3q-1 5 6 6q60 11 121 45q3 2 10.5 -0.5
t7.5 -6.5v-619l157 162q85 88 63 125q-9 16 -38 16q-3 0 -4.5 2t0 4.5t4.5 2.5q15 0 55 -1t45 -1q8 0 57 1t52 1t4.5 -2.5t0 -4.5t-4.5 -2q-46 0 -100 -35.5t-127 -111.5l-13 -13l97 -154q57 -92 96.5 -129.5t70.5 -37.5q5 0 6 -4q-1 -4 -6 -5zM290 -251q-4 -2 -5.5 -0.5
t2.5 4.5q50 28 50 90q0 14 -5 27q-12 -20 -35 -20q-18 0 -30.5 12.5t-12.5 30.5q0 20 13.5 33.5t35.5 13.5q27 0 42.5 -22.5t15.5 -60.5q0 -34 -24 -64t-47 -44z" />
    <glyph glyph-name="kgreenlandic" unicode="&#x138;" horiz-adv-x="552" 
d="M560 0h-94q-23 0 -38 10q-33 21 -98 133l-82 137l-102 -104v-66q0 -66 9.5 -83.5t50.5 -17.5q6 0 6 -4.5t-6 -4.5q-16 0 -53 1t-43 1t-45.5 -1t-55.5 -1q-6 0 -6 4.5t6 4.5q42 0 51.5 17.5t9.5 83.5v267q0 55 -12 66t-52 2q-6 -1 -7.5 3t4.5 5q63 14 125 57q3 2 10.5 -1
t7.5 -6v-315l156 161q85 88 63 125q-9 16 -38 16q-3 0 -4.5 2t0 4.5t4.5 2.5q15 0 55 -1t45 -1q8 0 57 1t52 1t4.5 -2.5t0 -4.5t-4.5 -2q-46 0 -100 -35.5t-127 -111.5l-13 -13l97 -154q57 -92 96.5 -129.5t70.5 -37.5q5 0 6 -4q-1 -4 -6 -5z" />
    <glyph glyph-name="Lacute" unicode="&#x139;" horiz-adv-x="609" 
d="M171 434v-273q0 -113 -8 -147q14 0 94.5 -1.5t96.5 -1.5q81 0 138.5 72t68.5 157l10 91q0 3 3 4t5.5 -0.5t2.5 -4.5l-10 -92q-24 -224 -33 -232q-6 -6 -133 -6l-249 3l-141 -3q-6 0 -7 3q3 3 7 4q32 0 44.5 7.5t19.5 34t11 91.5q2 31 2.5 81t-0.5 107t-1 65
q0 22 -1.5 96.5t-1.5 103.5q0 67 -9 79t-57 12q-6 0 -6 4.5t6 4.5q3 0 58.5 -1t63.5 -1q6 0 56.5 1t66.5 1q6 0 6 -4.5t-6 -4.5h-28q-51 0 -60 -33t-9 -217zM143 768q-2 -2 -4 -2q-4 0 -4 4q0 1 3 4q23 22 50.5 56.5t47 62t22.5 30.5q6 6 24 6q15 0 18 -3t3 -19
q0 -7 -12 -17q-3 -3 -31 -23.5t-61.5 -48t-55.5 -50.5z" />
    <glyph glyph-name="lacute" unicode="&#x13a;" horiz-adv-x="217" 
d="M121 2q-6 0 -43 -1t-53 -1q-6 0 -6 4.5t6 4.5q32 0 38.5 17.5t6.5 92.5v562q0 43 -5.5 60.5t-19.5 20.5t-39 -3q-5 -1 -6 3q-1 5 6 6q60 11 121 45q3 2 10.5 -0.5t7.5 -6.5v-687q0 -78 9 -94t50 -16q6 0 6 -4.5t-6 -4.5q-16 0 -46.5 1t-36.5 1zM82 863q-2 -2 -4 -2
q-4 0 -4 4q0 1 3 4q23 22 50.5 56.5t47 62t22.5 30.5q6 6 24 6q15 0 18 -3t3 -19q0 -7 -12 -17q-3 -3 -31 -23.5t-61.5 -48t-55.5 -50.5z" />
    <glyph glyph-name="Lcommaaccent" unicode="&#x13b;" horiz-adv-x="609" 
d="M171 434v-273q0 -113 -8 -147q14 0 94.5 -1.5t96.5 -1.5q81 0 138.5 72t68.5 157l10 91q0 3 3 4t5.5 -0.5t2.5 -4.5l-10 -92q-24 -224 -33 -232q-6 -6 -133 -6l-249 3l-141 -3q-6 0 -7 3q3 3 7 4q32 0 44.5 7.5t19.5 34t11 91.5q2 31 2.5 81t-0.5 107t-1 65
q0 22 -1.5 96.5t-1.5 103.5q0 67 -9 79t-57 12q-6 0 -6 4.5t6 4.5q3 0 58.5 -1t63.5 -1q6 0 56.5 1t66.5 1q6 0 6 -4.5t-6 -4.5h-28q-51 0 -60 -33t-9 -217zM280 -261q-4 -2 -5.5 -0.5t2.5 4.5q50 28 50 90q0 14 -5 27q-12 -20 -35 -20q-18 0 -30.5 12.5t-12.5 30.5
q0 20 13.5 33.5t35.5 13.5q27 0 42.5 -22.5t15.5 -60.5q0 -34 -24 -64t-47 -44z" />
    <glyph glyph-name="lcommaaccent" unicode="&#x13c;" horiz-adv-x="217" 
d="M121 2q-6 0 -43 -1t-53 -1q-6 0 -6 4.5t6 4.5q32 0 38.5 17.5t6.5 92.5v562q0 43 -5.5 60.5t-19.5 20.5t-39 -3q-5 -1 -6 3q-1 5 6 6q60 11 121 45q3 2 10.5 -0.5t7.5 -6.5v-687q0 -78 9 -94t50 -16q6 0 6 -4.5t-6 -4.5q-16 0 -46.5 1t-36.5 1zM95 -261q-4 -2 -5.5 -0.5
t2.5 4.5q50 28 50 90q0 14 -5 27q-12 -20 -35 -20q-18 0 -30.5 12.5t-12.5 30.5q0 20 13.5 33.5t35.5 13.5q27 0 42.5 -22.5t15.5 -60.5q0 -34 -24 -64t-47 -44z" />
    <glyph glyph-name="Lcaron" unicode="&#x13d;" horiz-adv-x="609" 
d="M171 434v-273q0 -113 -8 -147q14 0 94.5 -1.5t96.5 -1.5q81 0 138.5 72t68.5 157l10 91q0 3 3 4t5.5 -0.5t2.5 -4.5l-10 -92q-24 -224 -33 -232q-6 -6 -133 -6l-249 3l-141 -3q-6 0 -7 3q3 3 7 4q32 0 44.5 7.5t19.5 34t11 91.5q2 31 2.5 81t-0.5 107t-1 65
q0 22 -1.5 96.5t-1.5 103.5q0 67 -9 79t-57 12q-6 0 -6 4.5t6 4.5q3 0 58.5 -1t63.5 -1q6 0 56.5 1t66.5 1q6 0 6 -4.5t-6 -4.5h-28q-51 0 -60 -33t-9 -217zM134 782q4 -4 7 0l82 122q14 19 34 19q9 0 14.5 -4.5t5.5 -9.5q0 -10 -18 -29q-57 -59 -117 -107q-2 -1 -5 -1t-4 1
q-72 55 -121 97q-20 18 -20 29q0 7 6.5 14t16.5 7q20 0 35 -21q10 -15 41.5 -58.5t42.5 -58.5z" />
    <glyph glyph-name="lcaron" unicode="&#x13e;" horiz-adv-x="328" 
d="M121 2q-6 0 -43 -1t-53 -1q-6 0 -6 4.5t6 4.5q32 0 38.5 17.5t6.5 92.5v562q0 43 -5.5 60.5t-19.5 20.5t-39 -3q-5 -1 -6 3q-1 5 6 6q60 11 121 45q3 2 10.5 -0.5t7.5 -6.5v-687q0 -78 9 -94t50 -16q6 0 6 -4.5t-6 -4.5q-16 0 -46.5 1t-36.5 1zM227 624q-4 -2 -5.5 -0.5
t2.5 4.5q50 28 50 90q0 14 -5 27q-12 -20 -35 -20q-18 0 -30.5 12.5t-12.5 30.5q0 20 13.5 33.5t35.5 13.5q27 0 42.5 -22.5t15.5 -60.5q0 -34 -24 -64t-47 -44z" />
    <glyph glyph-name="Ldot" unicode="&#x13f;" horiz-adv-x="609" 
d="M171 434v-273q0 -113 -8 -147q14 0 94.5 -1.5t96.5 -1.5q81 0 138.5 72t68.5 157l10 91q0 3 3 4t5.5 -0.5t2.5 -4.5l-10 -92q-24 -224 -33 -232q-6 -6 -133 -6l-249 3l-141 -3q-6 0 -7 3q3 3 7 4q32 0 44.5 7.5t19.5 34t11 91.5q2 31 2.5 81t-0.5 107t-1 65
q0 22 -1.5 96.5t-1.5 103.5q0 67 -9 79t-57 12q-6 0 -6 4.5t6 4.5q3 0 58.5 -1t63.5 -1q6 0 56.5 1t66.5 1q6 0 6 -4.5t-6 -4.5h-28q-51 0 -60 -33t-9 -217zM327 376q0 22 15 37.5t37 15.5t37.5 -15.5t15.5 -37.5t-15.5 -37t-37.5 -15t-37 15t-15 37z" />
    <glyph glyph-name="ldot" unicode="&#x140;" horiz-adv-x="351" 
d="M121 2q-6 0 -43 -1t-53 -1q-6 0 -6 4.5t6 4.5q32 0 38.5 17.5t6.5 92.5v562q0 43 -5.5 60.5t-19.5 20.5t-39 -3q-5 -1 -6 3q-1 5 6 6q60 11 121 45q3 2 10.5 -0.5t7.5 -6.5v-687q0 -78 9 -94t50 -16q6 0 6 -4.5t-6 -4.5q-16 0 -46.5 1t-36.5 1zM216 378q0 22 15 37.5
t37 15.5t37.5 -15.5t15.5 -37.5t-15.5 -37t-37.5 -15t-37 15t-15 37z" />
    <glyph glyph-name="Lslash" unicode="&#x141;" horiz-adv-x="609" 
d="M-35 337q-6 0 -9.5 8.5t-0.5 13.5q61 22 137 53q-3 150 -3 181q0 67 -9 79t-57 12q-6 0 -6 4.5t6 4.5q3 0 58.5 -1t63.5 -1q6 0 56.5 1t66.5 1q6 0 6 -4.5t-6 -4.5h-28q-51 0 -60 -32.5t-9 -213.5q26 11 53 24t54 26.5t38 18.5q6 -2 10 -9.5t0 -12.5q-103 -38 -155 -60
v-264q0 -113 -8 -147q14 0 94.5 -1.5t96.5 -1.5q81 0 138.5 72t68.5 157l10 91q0 3 3 4t5.5 -0.5t2.5 -4.5l-10 -92q-24 -224 -33 -232q-6 -6 -133 -6l-249 3l-141 -3q-6 0 -7 3q3 3 7 4q32 0 44.5 7.5t19.5 34t11 91.5q2 31 2.5 81t-0.5 107t-1 65v6q-68 -30 -127 -62z" />
    <glyph glyph-name="lslash" unicode="&#x142;" horiz-adv-x="257" 
d="M141 2q-6 0 -43 -1t-53 -1q-6 0 -6 4.5t6 4.5q32 0 38.5 17.5t6.5 92.5v371q-66 -30 -129 -63q-6 0 -9.5 8.5t-0.5 13.5q120 45 139 53v179q0 43 -5.5 60.5t-19.5 20.5t-39 -3q-5 -1 -6 3q-1 5 6 6q60 11 121 45q3 2 10.5 -0.5t7.5 -6.5v-279q22 9 147 70q6 -2 10 -9.5
t0 -12.5q-94 -34 -157 -60v-396q0 -78 9 -94t50 -16q6 0 6 -4.5t-6 -4.5q-16 0 -46.5 1t-36.5 1z" />
    <glyph glyph-name="Nacute" unicode="&#x143;" horiz-adv-x="716" 
d="M3 685h-4q-3 0 -4.5 2t0 4t4.5 2q46 0 81 1t52 2l16 1q7 0 10 -6q10 -19 39 -53l416 -517v313q0 71 -8 120.5t-18 74t-27.5 38t-29.5 15.5t-31 2h-14q-6 0 -6 4.5t6 4.5q16 0 72 -1.5t62 -1.5q5 0 33.5 1.5t44.5 1.5q6 0 6 -4.5t-6 -4.5h-7q-22 0 -31.5 -4.5t-18.5 -28.5
t-11.5 -74t-2.5 -143v-427q0 -10 -8 -10q-9 0 -25 22l-482 601l-1 -361q0 -71 6.5 -120.5t15.5 -74t25.5 -38t27.5 -15.5t30 -2h14q3 0 4.5 -2.5t0 -4.5t-4.5 -2q-17 -1 -73.5 1t-58.5 2q-6 0 -35.5 -1.5t-45.5 -1.5q-5 0 -5 4q1 4 6 5h6q27 1 40 12.5t23.5 68t10.5 169.5
l1 359q0 15 -16 31q-36 36 -79 36zM302 758q-2 -2 -4 -2q-4 0 -4 4q0 1 3 4q23 22 50.5 56.5t47 62t22.5 30.5q6 6 24 6q15 0 18 -3t3 -19q0 -7 -12 -17q-3 -3 -31 -23.5t-61.5 -48t-55.5 -50.5z" />
    <glyph glyph-name="nacute" unicode="&#x144;" horiz-adv-x="562" 
d="M495 307v-209q0 -61 9.5 -75.5t38.5 -13.5q6 0 6 -4.5t-6 -4.5q-3 0 -41.5 1t-47.5 1q-6 0 -37.5 -1t-47.5 -1q-6 0 -6 4.5t6 4.5q32 0 42 16t10 79l-1 213q-1 86 -35 124.5t-86 38.5q-46 0 -80.5 -21.5t-70.5 -69.5v-380h52q6 0 6 -4.5t-6 -4.5q-3 0 -35 1t-41 1
q-6 0 -43 -1t-53 -1q-6 0 -6 4.5t6 4.5q32 0 38.5 17.5t6.5 92.5v258q0 34 -46 76q-4 4 0 6q51 20 73 42q2 3 6 -1q15 -15 27.5 -42.5t13.5 -56.5q82 109 185 109q163 0 163 -203zM259 547q-2 -2 -4 -2q-4 0 -4 4q0 1 3 4q23 22 50.5 56.5t47 62t22.5 30.5q6 6 24 6
q15 0 18 -3t3 -19q0 -7 -12 -17q-3 -3 -31 -23.5t-61.5 -48t-55.5 -50.5z" />
    <glyph glyph-name="Ncommaaccent" unicode="&#x145;" horiz-adv-x="716" 
d="M3 685h-4q-3 0 -4.5 2t0 4t4.5 2q46 0 81 1t52 2l16 1q7 0 10 -6q10 -19 39 -53l416 -517v313q0 71 -8 120.5t-18 74t-27.5 38t-29.5 15.5t-31 2h-14q-6 0 -6 4.5t6 4.5q16 0 72 -1.5t62 -1.5q5 0 33.5 1.5t44.5 1.5q6 0 6 -4.5t-6 -4.5h-7q-22 0 -31.5 -4.5t-18.5 -28.5
t-11.5 -74t-2.5 -143v-427q0 -10 -8 -10q-9 0 -25 22l-482 601l-1 -361q0 -71 6.5 -120.5t15.5 -74t25.5 -38t27.5 -15.5t30 -2h14q3 0 4.5 -2.5t0 -4.5t-4.5 -2q-17 -1 -73.5 1t-58.5 2q-6 0 -35.5 -1.5t-45.5 -1.5q-5 0 -5 4q1 4 6 5h6q27 1 40 12.5t23.5 68t10.5 169.5
l1 359q0 15 -16 31q-36 36 -79 36zM361 -241q-4 -2 -5.5 -0.5t2.5 4.5q50 28 50 90q0 14 -5 27q-12 -20 -35 -20q-18 0 -30.5 12.5t-12.5 30.5q0 20 13.5 33.5t35.5 13.5q27 0 42.5 -22.5t15.5 -60.5q0 -34 -24 -64t-47 -44z" />
    <glyph glyph-name="ncommaaccent" unicode="&#x146;" horiz-adv-x="562" 
d="M495 307v-209q0 -61 9.5 -75.5t38.5 -13.5q6 0 6 -4.5t-6 -4.5q-3 0 -41.5 1t-47.5 1q-6 0 -37.5 -1t-47.5 -1q-6 0 -6 4.5t6 4.5q32 0 42 16t10 79l-1 213q-1 86 -35 124.5t-86 38.5q-46 0 -80.5 -21.5t-70.5 -69.5v-380h52q6 0 6 -4.5t-6 -4.5q-3 0 -35 1t-41 1
q-6 0 -43 -1t-53 -1q-6 0 -6 4.5t6 4.5q32 0 38.5 17.5t6.5 92.5v258q0 34 -46 76q-4 4 0 6q51 20 73 42q2 3 6 -1q15 -15 27.5 -42.5t13.5 -56.5q82 109 185 109q163 0 163 -203zM267 -251q-4 -2 -5.5 -0.5t2.5 4.5q50 28 50 90q0 14 -5 27q-12 -20 -35 -20
q-18 0 -30.5 12.5t-12.5 30.5q0 20 13.5 33.5t35.5 13.5q27 0 42.5 -22.5t15.5 -60.5q0 -34 -24 -64t-47 -44z" />
    <glyph glyph-name="Ncaron" unicode="&#x147;" horiz-adv-x="716" 
d="M3 685h-4q-3 0 -4.5 2t0 4t4.5 2q46 0 81 1t52 2l16 1q7 0 10 -6q10 -19 39 -53l416 -517v313q0 71 -8 120.5t-18 74t-27.5 38t-29.5 15.5t-31 2h-14q-6 0 -6 4.5t6 4.5q16 0 72 -1.5t62 -1.5q5 0 33.5 1.5t44.5 1.5q6 0 6 -4.5t-6 -4.5h-7q-22 0 -31.5 -4.5t-18.5 -28.5
t-11.5 -74t-2.5 -143v-427q0 -10 -8 -10q-9 0 -25 22l-482 601l-1 -361q0 -71 6.5 -120.5t15.5 -74t25.5 -38t27.5 -15.5t30 -2h14q3 0 4.5 -2.5t0 -4.5t-4.5 -2q-17 -1 -73.5 1t-58.5 2q-6 0 -35.5 -1.5t-45.5 -1.5q-5 0 -5 4q1 4 6 5h6q27 1 40 12.5t23.5 68t10.5 169.5
l1 359q0 15 -16 31q-36 36 -79 36zM355 782q4 -4 7 0l82 122q14 19 34 19q9 0 14.5 -4.5t5.5 -9.5q0 -10 -18 -29q-57 -59 -117 -107q-1 -1 -4 -1t-5 1q-72 55 -121 97q-20 18 -20 29q0 7 6.5 14t16.5 7q20 0 35 -21q10 -15 42 -58.5t42 -58.5z" />
    <glyph glyph-name="ncaron" unicode="&#x148;" horiz-adv-x="562" 
d="M495 307v-209q0 -61 9.5 -75.5t38.5 -13.5q6 0 6 -4.5t-6 -4.5q-3 0 -41.5 1t-47.5 1q-6 0 -37.5 -1t-47.5 -1q-6 0 -6 4.5t6 4.5q32 0 42 16t10 79l-1 213q-1 86 -35 124.5t-86 38.5q-46 0 -80.5 -21.5t-70.5 -69.5v-380h52q6 0 6 -4.5t-6 -4.5q-3 0 -35 1t-41 1
q-6 0 -43 -1t-53 -1q-6 0 -6 4.5t6 4.5q32 0 38.5 17.5t6.5 92.5v258q0 34 -46 76q-4 4 0 6q51 20 73 42q2 3 6 -1q15 -15 27.5 -42.5t13.5 -56.5q82 109 185 109q163 0 163 -203zM295 585q4 -4 7 0l82 122q14 19 34 19q9 0 14.5 -4.5t5.5 -9.5q0 -10 -18 -29
q-57 -59 -117 -107q-5 -4 -9 0q-72 55 -121 97q-20 17 -20 29q0 7 6.5 14t16.5 7q20 0 35 -21q10 -15 42 -58.5t42 -58.5z" />
    <glyph glyph-name="Eng" unicode="&#x14a;" horiz-adv-x="716" 
d="M215 9h14q3 0 4.5 -2.5t0 -4.5t-4.5 -2q-17 -1 -73.5 1t-58.5 2q-6 0 -35.5 -1.5t-45.5 -1.5q-5 0 -5 4q1 4 6 5h6q27 1 40 12.5t23.5 68t10.5 169.5l1 359q0 15 -16 31q-36 36 -79 36h-4q-3 0 -4.5 2t0 4t4.5 2q46 0 81 1t52 2l16 1q7 0 10 -6q10 -19 39 -53l416 -517
v313q0 71 -8 120.5t-18 74t-27.5 38t-29.5 15.5t-31 2h-14q-6 0 -6 4.5t6 4.5q16 0 72 -1.5t62 -1.5q5 0 33.5 1.5t44.5 1.5q6 0 6 -4.5t-6 -4.5h-7q-22 0 -31.5 -4.5t-18.5 -28.5t-11.5 -74t-2.5 -143l-1 -115q0 -13 0.5 -105.5t0.5 -106.5v-57.5t-4 -49t-12.5 -54.5
t-26 -46.5t-43.5 -53.5q-19 -18 -47 -38t-38 -20q-11 0 -23 2q-27 7 -27 23q0 18 10 34.5t29 22.5q8 2 20 2q14 0 37 -0.5t25 -0.5q24 0 40 18q36 40 36 91q0 30 -22 58l-469 582l-1 -361q0 -71 6.5 -120.5t15.5 -74t25.5 -38t27.5 -15.5t30 -2z" />
    <glyph glyph-name="eng" unicode="&#x14b;" horiz-adv-x="562" 
d="M420 22v295q-1 86 -35 124.5t-86 38.5q-46 0 -80.5 -21.5t-70.5 -69.5v-380h52q6 0 6 -4.5t-6 -4.5q-3 0 -35 1t-41 1q-6 0 -43 -1t-53 -1q-6 0 -6 4.5t6 4.5q32 0 38.5 17.5t6.5 92.5v258q0 34 -46 76q-4 4 0 6q51 20 73 42q2 3 6 -1q15 -15 27.5 -42.5t13.5 -56.5
q82 109 185 109q163 0 163 -203v-258q-2 -60 -28 -111t-78 -115q-68 -84 -107 -84q-8 0 -18 2q-22 5 -22 18q0 14 12.5 31t28.5 21q6 2 16 2q12 0 29 -0.5t19 -0.5q22 0 32 12q12 14 17 21t14.5 55t9.5 122z" />
    <glyph glyph-name="Omacron" unicode="&#x14c;" horiz-adv-x="794" 
d="M43 346q0 153 105 255t250 102q144 0 248 -102.5t104 -254.5q0 -151 -107 -253.5t-251 -102.5q-143 0 -246 102.5t-103 253.5zM133 346q0 -157 67.5 -251.5t187.5 -94.5q122 0 197.5 96t75.5 250q0 157 -69 252t-190 95q-122 0 -195.5 -96t-73.5 -251zM400 832h1
q57 0 90 1q35 1 35 -1q0 -7 -46 -51q-1 0 -29.5 0.5t-48.5 0.5q-10 0 -76 -2q-35 -1 -35 2q0 7 46 51q1 0 22 -0.5t41 -0.5z" />
    <glyph glyph-name="omacron" unicode="&#x14d;" horiz-adv-x="581" 
d="M284 -10q-107 0 -177.5 69t-70.5 181q0 110 75.5 190t188.5 80q107 0 176.5 -69.5t69.5 -183.5q0 -101 -76.5 -184t-185.5 -83zM301 1q79 0 121.5 64t42.5 176q0 100 -49.5 179.5t-127.5 79.5q-85 0 -127 -64.5t-42 -178.5q0 -100 50 -178t132 -78zM293 636h1q57 0 90 1
q35 1 35 -1q0 -7 -46 -51q-1 0 -29.5 0.5t-48.5 0.5q-10 0 -76 -2q-35 -1 -35 2q0 7 46 51q1 0 22 -0.5t41 -0.5z" />
    <glyph glyph-name="Obreve" unicode="&#x14e;" horiz-adv-x="794" 
d="M43 346q0 153 105 255t250 102q144 0 248 -102.5t104 -254.5q0 -151 -107 -253.5t-251 -102.5q-143 0 -246 102.5t-103 253.5zM133 346q0 -157 67.5 -251.5t187.5 -94.5q122 0 197.5 96t75.5 250q0 157 -69 252t-190 95q-122 0 -195.5 -96t-73.5 -251zM410 781
q-64 0 -119 72q-6 7 -6 12q0 7 23 14q15 5 21 4.5t11 -7.5q30 -39 52.5 -56.5t49.5 -17.5q43 0 75 75q3 7 11 7q5 0 8 -3.5t0 -7.5q-22 -37 -57 -64t-69 -28z" />
    <glyph glyph-name="obreve" unicode="&#x14f;" horiz-adv-x="581" 
d="M284 -10q-107 0 -177.5 69t-70.5 181q0 110 75.5 190t188.5 80q107 0 176.5 -69.5t69.5 -183.5q0 -101 -76.5 -184t-185.5 -83zM301 1q79 0 121.5 64t42.5 176q0 100 -49.5 179.5t-127.5 79.5q-85 0 -127 -64.5t-42 -178.5q0 -100 50 -178t132 -78zM290 586
q-64 0 -119 72q-6 8 -6 12q0 7 23 14q15 5 21 4.5t11 -7.5q30 -39 52.5 -56.5t49.5 -17.5q43 0 75 75q3 7 11 7q5 0 8 -3.5t0 -7.5q-22 -37 -57 -64t-69 -28z" />
    <glyph glyph-name="Ohungarumlaut" unicode="&#x150;" horiz-adv-x="794" 
d="M43 346q0 153 105 255t250 102q144 0 248 -102.5t104 -254.5q0 -151 -107 -253.5t-251 -102.5q-143 0 -246 102.5t-103 253.5zM133 346q0 -157 67.5 -251.5t187.5 -94.5q122 0 197.5 96t75.5 250q0 157 -69 252t-190 95q-122 0 -195.5 -96t-73.5 -251zM343 759
q0 -2 -3 -2q-4 0 -6 4q0 2 2 4q24 28 53.5 85.5t30.5 58.5q4 6 21 6q13 0 19 -3q3 -3 3 -18q0 -8 -9 -17q-1 -1 -23 -22t-47 -47t-41 -49zM455 759q-2 -2 -4 -2q-3 0 -5 4q0 1 3 4q22 21 46.5 54.5t41.5 60t20 29.5q5 6 23 6q14 0 18 -3q3 -3 3 -18q0 -8 -11 -17
q-2 -2 -28 -22.5t-56.5 -46.5t-50.5 -49z" />
    <glyph glyph-name="ohungarumlaut" unicode="&#x151;" horiz-adv-x="581" 
d="M284 -10q-107 0 -177.5 69t-70.5 181q0 110 75.5 190t188.5 80q107 0 176.5 -69.5t69.5 -183.5q0 -101 -76.5 -184t-185.5 -83zM301 1q79 0 121.5 64t42.5 176q0 100 -49.5 179.5t-127.5 79.5q-85 0 -127 -64.5t-42 -178.5q0 -100 50 -178t132 -78zM217 559q0 -2 -3 -2
q-4 0 -6 4q0 2 2 4q24 28 53.5 85.5t30.5 58.5q4 6 21 6q13 0 19 -3q3 -3 3 -18q0 -8 -9 -17q-1 -1 -23 -22t-47 -47t-41 -49zM329 559q-2 -2 -4 -2q-3 0 -5 4q0 1 3 4q22 21 46.5 54.5t41.5 60t20 29.5q5 6 23 6q14 0 18 -3q3 -3 3 -18q0 -8 -11 -17q-2 -2 -28 -22.5
t-56.5 -46.5t-50.5 -49z" />
    <glyph glyph-name="OE" unicode="&#x152;" horiz-adv-x="1085" 
d="M623 434v-69h97q88 0 120 29t32 86v21q0 6 5 6t5 -6q0 -16 -2.5 -76t-2.5 -66q0 -7 2.5 -68t2.5 -69q0 -6 -5 -6t-5 6v15q0 57 -32 86.5t-120 29.5h-97v-192q0 -113 -8 -147q14 0 93.5 -1.5t95.5 -1.5q83 0 142 60.5t69 141.5l6 53q0 3 3 4t5.5 -0.5t2.5 -4.5l-6 -54
q-22 -199 -31 -207q-4 -4 -133 -4l-253 3l-174 -3q-38 -10 -78 -10q-143 0 -246 102.5t-103 253.5q0 153 105 255t250 102q39 0 77 -10q18 0 83.5 -1.5t70.5 -1.5q4 0 161.5 1.5t178.5 1.5q39 0 47 -4q4 -2 29 -184l4 -36q1 -5 -3.5 -5t-6.5 5l-5 36q-14 84 -69.5 129.5
t-141.5 46.5h-127q-29 0 -34 -18.5t-4 -134.5v-94zM98 346q0 -157 67.5 -251.5t187.5 -94.5q105 0 145 42.5t47 132.5l2 85q0 13 -0.5 41.5t-0.5 44.5q0 82 -3 131.5t-13 95.5t-29.5 69.5t-52 37t-81.5 13.5q-122 0 -195.5 -96t-73.5 -251z" />
    <glyph glyph-name="oe" unicode="&#x153;" horiz-adv-x="973" 
d="M732 -10q-80 0 -139 33.5t-89 93.5q-36 -57 -94 -92t-126 -35q-107 0 -177.5 69t-70.5 181q0 110 75.5 190t188.5 80q76 0 135 -36.5t88 -101.5q40 62 103.5 100t130.5 38q51 0 88.5 -14.5t55.5 -36t25 -43.5t5 -41q-4 -31 -42 -31h-342q-8 -37 -8 -77q0 -92 71 -155.5
t173 -63.5q168 0 259 196q4 11 8 7q2 -2 -1 -9q-45 -104 -128.5 -178t-188.5 -74zM301 1q79 0 121.5 64t42.5 176q0 100 -49.5 179.5t-127.5 79.5q-85 0 -127 -64.5t-42 -178.5q0 -100 50 -178t132 -78zM795 356q31 0 40 9q9 11 9 32q0 33 -31 62t-84 29q-66 0 -113.5 -35
t-66.5 -101q63 0 141 2t105 2z" />
    <glyph glyph-name="Racute" unicode="&#x154;" horiz-adv-x="642" 
d="M132 2q-8 0 -57.5 -1t-52.5 -1q-6 0 -6 4.5t6 4.5q34 0 46 2q17 17 20 90q3 83 3 200v133q0 99 -1 144t-8 72t-15.5 30.5t-29.5 3.5h-18q-6 0 -6 4.5t6 4.5q16 0 60.5 -1.5t50.5 -1.5q7 0 60.5 1.5t62.5 1.5q256 0 256 -164q0 -60 -62.5 -103.5t-150.5 -58.5
q64 -2 100 -34t85 -130q61 -130 88.5 -162t74.5 -32h7q4 0 6 -2.5t0.5 -4.5t-6.5 -2h-36q-20 0 -42 -2t-27 -2q-30 0 -51 24q-37 42 -83 151q-23 53 -41 86t-34 54.5t-36 31t-40 13t-53 4.5h-41v-101q0 -99 1 -144t8 -72t15.5 -30.5t29.5 -3.5h20q6 0 6 -4.5t-6 -4.5
q-16 0 -60 1t-49 1zM167 533v-163q19 1 84 1q66 0 117.5 40t51.5 118q0 79 -41.5 117t-133.5 38h-39q-28 0 -33.5 -21t-5.5 -130zM265 758q-2 -2 -4 -2q-4 0 -4 4q0 1 3 4q23 22 50.5 56.5t47 62t22.5 30.5q6 6 24 6q15 0 18 -3t3 -19q0 -7 -12 -17q-3 -3 -31 -23.5
t-61.5 -48t-55.5 -50.5z" />
    <glyph glyph-name="racute" unicode="&#x155;" horiz-adv-x="327" 
d="M215 493q26 17 57 17q45 0 45 -18q0 -16 -13.5 -34t-36.5 -18h-37q-54 0 -66.5 -15.5t-12.5 -80.5v-335h61q6 0 6 -4.5t-6 -4.5q-3 0 -41.5 1t-47.5 1q-6 0 -46 -1t-56 -1q-6 0 -6 4.5t6 4.5q38 0 47 17t9 93v258q0 34 -46 76q-4 4 0 6q44 17 69 42q2 3 6 -1
q37 -35 43 -92q14 50 66 85zM169 554q-2 -2 -4 -2q-4 0 -4 4q0 1 3 4q23 22 50.5 56.5t47 62t22.5 30.5q6 6 24 6q15 0 18 -3t3 -19q0 -7 -12 -17q-3 -3 -31 -23.5t-61.5 -48t-55.5 -50.5z" />
    <glyph glyph-name="Rcommaaccent" unicode="&#x156;" horiz-adv-x="642" 
d="M132 2q-8 0 -57.5 -1t-52.5 -1q-6 0 -6 4.5t6 4.5q34 0 46 2q17 17 20 90q3 83 3 200v133q0 99 -1 144t-8 72t-15.5 30.5t-29.5 3.5h-18q-6 0 -6 4.5t6 4.5q16 0 60.5 -1.5t50.5 -1.5q7 0 60.5 1.5t62.5 1.5q256 0 256 -164q0 -60 -62.5 -103.5t-150.5 -58.5
q64 -2 100 -34t85 -130q61 -130 88.5 -162t74.5 -32h7q4 0 6 -2.5t0.5 -4.5t-6.5 -2h-36q-20 0 -42 -2t-27 -2q-30 0 -51 24q-37 42 -83 151q-23 53 -41 86t-34 54.5t-36 31t-40 13t-53 4.5h-41v-101q0 -99 1 -144t8 -72t15.5 -30.5t29.5 -3.5h20q6 0 6 -4.5t-6 -4.5
q-16 0 -60 1t-49 1zM167 533v-163q19 1 84 1q66 0 117.5 40t51.5 118q0 79 -41.5 117t-133.5 38h-39q-28 0 -33.5 -21t-5.5 -130zM341 -241q-4 -2 -5.5 -0.5t2.5 4.5q50 28 50 90q0 14 -5 27q-12 -20 -35 -20q-18 0 -30.5 12.5t-12.5 30.5q0 20 13.5 33.5t35.5 13.5
q27 0 42.5 -22.5t15.5 -60.5q0 -34 -24 -64t-47 -44z" />
    <glyph glyph-name="rcommaaccent" unicode="&#x157;" horiz-adv-x="327" 
d="M215 493q26 17 57 17q45 0 45 -18q0 -16 -13.5 -34t-36.5 -18h-37q-54 0 -66.5 -15.5t-12.5 -80.5v-335h61q6 0 6 -4.5t-6 -4.5q-3 0 -41.5 1t-47.5 1q-6 0 -46 -1t-56 -1q-6 0 -6 4.5t6 4.5q38 0 47 17t9 93v258q0 34 -46 76q-4 4 0 6q44 17 69 42q2 3 6 -1
q37 -35 43 -92q14 50 66 85zM100 -261q-4 -2 -5.5 -0.5t2.5 4.5q50 28 50 90q0 14 -5 27q-12 -20 -35 -20q-18 0 -30.5 12.5t-12.5 30.5q0 20 13.5 33.5t35.5 13.5q27 0 42.5 -22.5t15.5 -60.5q0 -34 -24 -64t-47 -44z" />
    <glyph glyph-name="Rcaron" unicode="&#x158;" horiz-adv-x="642" 
d="M132 2q-8 0 -57.5 -1t-52.5 -1q-6 0 -6 4.5t6 4.5q34 0 46 2q17 17 20 90q3 83 3 200v133q0 99 -1 144t-8 72t-15.5 30.5t-29.5 3.5h-18q-6 0 -6 4.5t6 4.5q16 0 60.5 -1.5t50.5 -1.5q7 0 60.5 1.5t62.5 1.5q256 0 256 -164q0 -60 -62.5 -103.5t-150.5 -58.5
q64 -2 100 -34t85 -130q61 -130 88.5 -162t74.5 -32h7q4 0 6 -2.5t0.5 -4.5t-6.5 -2h-36q-20 0 -42 -2t-27 -2q-30 0 -51 24q-37 42 -83 151q-23 53 -41 86t-34 54.5t-36 31t-40 13t-53 4.5h-41v-101q0 -99 1 -144t8 -72t15.5 -30.5t29.5 -3.5h20q6 0 6 -4.5t-6 -4.5
q-16 0 -60 1t-49 1zM167 533v-163q19 1 84 1q66 0 117.5 40t51.5 118q0 79 -41.5 117t-133.5 38h-39q-28 0 -33.5 -21t-5.5 -130zM271 782q4 -4 7 0l82 122q14 19 34 19q9 0 14.5 -4.5t5.5 -9.5q0 -10 -18 -29q-57 -59 -117 -107q-1 -1 -4 -1t-5 1q-72 55 -121 97
q-20 18 -20 29q0 7 6.5 14t16.5 7q20 0 35 -21q10 -15 42 -58.5t42 -58.5z" />
    <glyph glyph-name="rcaron" unicode="&#x159;" horiz-adv-x="327" 
d="M215 493q26 17 57 17q45 0 45 -18q0 -16 -13.5 -34t-36.5 -18h-37q-54 0 -66.5 -15.5t-12.5 -80.5v-335h61q6 0 6 -4.5t-6 -4.5q-3 0 -41.5 1t-47.5 1q-6 0 -46 -1t-56 -1q-6 0 -6 4.5t6 4.5q38 0 47 17t9 93v258q0 34 -46 76q-4 4 0 6q44 17 69 42q2 3 6 -1
q37 -35 43 -92q14 50 66 85zM175 585q4 -4 7 0l82 122q14 19 34 19q9 0 14.5 -4.5t5.5 -9.5q0 -10 -18 -29q-57 -59 -117 -107q-5 -4 -9 0q-72 55 -121 97q-20 17 -20 29q0 7 6.5 14t16.5 7q20 0 35 -21q10 -15 42 -58.5t42 -58.5z" />
    <glyph glyph-name="Sacute" unicode="&#x15a;" horiz-adv-x="561" 
d="M277 703q104 0 218 -26q10 -3 11 -11q1 -7 -0.5 -33.5t-3.5 -84.5t-2 -126q0 -6 -2.5 -8.5t-5 0t-2.5 8.5q1 64 -6.5 108.5t-29 84t-65.5 59t-112 19.5q-87 0 -129 -36t-42 -97q0 -20 7 -38.5t15 -31.5t28 -28t31 -23t40.5 -22t40 -18.5t44.5 -19.5q40 -16 63 -27
t54.5 -29.5t48.5 -37t30 -45.5t13 -58q0 -85 -63 -138.5t-155 -53.5q-121 0 -233 30q-10 2 -10 10q0 23 -0.5 127t-0.5 129q0 7 2.5 9.5t5.5 0t3 -9.5q0 -143 55.5 -214.5t177.5 -71.5q79 0 118.5 36.5t39.5 98.5q0 24 -7 44t-24 37.5t-30.5 29t-44 26.5t-45 22t-51.5 22
q-41 17 -64.5 27.5t-56.5 30t-50.5 37.5t-31 44.5t-13.5 57.5q0 87 67.5 138.5t166.5 51.5zM245 758q-2 -2 -4 -2q-4 0 -4 4q0 1 3 4q23 22 50.5 56.5t47 62t22.5 30.5q6 6 24 6q15 0 18 -3t3 -19q0 -7 -12 -17q-3 -3 -31 -23.5t-61.5 -48t-55.5 -50.5z" />
    <glyph glyph-name="sacute" unicode="&#x15b;" horiz-adv-x="444" 
d="M39 361q0 71 57 110t128 39q29 0 54.5 -1.5t36.5 -3t39 -6.5t37 -6q7 -1 7 -8q0 -16 -2.5 -86.5t-2.5 -88.5q0 -6 -4 -6t-4 6q0 95 -37.5 143.5t-122.5 48.5q-62 0 -100 -24t-38 -63q0 -20 10 -36.5t21.5 -27.5t37.5 -23t40.5 -17.5t48.5 -17.5q41 -14 63.5 -23.5
t51.5 -27.5t42.5 -42t13.5 -56q0 -66 -51.5 -110t-127.5 -44q-36 0 -69 4.5t-50.5 9t-42 12.5t-31.5 10q-7 1 -7 14q0 3 1.5 19t3 56.5t1.5 102.5q0 4 2 6t4 0t2 -6q0 -112 41.5 -165.5t144.5 -53.5q130 0 130 100q0 20 -9.5 37t-22 28t-37.5 22.5t-41.5 17.5t-48.5 17
q-39 13 -63 23t-51.5 27t-41 39t-13.5 51zM158 559q-2 -2 -4 -2q-4 0 -4 4q0 1 3 4q23 22 50.5 56.5t47 62t22.5 30.5q6 6 24 6q15 0 18 -3t3 -19q0 -7 -12 -17q-3 -3 -31 -23.5t-61.5 -48t-55.5 -50.5z" />
    <glyph glyph-name="Scircumflex" unicode="&#x15c;" horiz-adv-x="561" 
d="M277 703q104 0 218 -26q10 -3 11 -11q1 -7 -0.5 -33.5t-3.5 -84.5t-2 -126q0 -6 -2.5 -8.5t-5 0t-2.5 8.5q1 64 -6.5 108.5t-29 84t-65.5 59t-112 19.5q-87 0 -129 -36t-42 -97q0 -20 7 -38.5t15 -31.5t28 -28t31 -23t40.5 -22t40 -18.5t44.5 -19.5q40 -16 63 -27
t54.5 -29.5t48.5 -37t30 -45.5t13 -58q0 -85 -63 -138.5t-155 -53.5q-121 0 -233 30q-10 2 -10 10q0 23 -0.5 127t-0.5 129q0 7 2.5 9.5t5.5 0t3 -9.5q0 -143 55.5 -214.5t177.5 -71.5q79 0 118.5 36.5t39.5 98.5q0 24 -7 44t-24 37.5t-30.5 29t-44 26.5t-45 22t-51.5 22
q-41 17 -64.5 27.5t-56.5 30t-50.5 37.5t-31 44.5t-13.5 57.5q0 87 67.5 138.5t166.5 51.5zM299 912q-4 4 -7 0l-82 -122q-14 -19 -34 -19q-9 0 -14.5 4.5t-5.5 9.5q0 10 18 29q57 59 117 107q1 1 4 1t5 -1q72 -55 121 -97q20 -18 20 -29q0 -7 -6.5 -14t-16.5 -7
q-20 0 -35 21q-10 15 -42 58.5t-42 58.5z" />
    <glyph glyph-name="scircumflex" unicode="&#x15d;" horiz-adv-x="444" 
d="M39 361q0 71 57 110t128 39q29 0 54.5 -1.5t36.5 -3t39 -6.5t37 -6q7 -1 7 -8q0 -16 -2.5 -86.5t-2.5 -88.5q0 -6 -4 -6t-4 6q0 95 -37.5 143.5t-122.5 48.5q-62 0 -100 -24t-38 -63q0 -20 10 -36.5t21.5 -27.5t37.5 -23t40.5 -17.5t48.5 -17.5q41 -14 63.5 -23.5
t51.5 -27.5t42.5 -42t13.5 -56q0 -66 -51.5 -110t-127.5 -44q-36 0 -69 4.5t-50.5 9t-42 12.5t-31.5 10q-7 1 -7 14q0 3 1.5 19t3 56.5t1.5 102.5q0 4 2 6t4 0t2 -6q0 -112 41.5 -165.5t144.5 -53.5q130 0 130 100q0 20 -9.5 37t-22 28t-37.5 22.5t-41.5 17.5t-48.5 17
q-39 13 -63 23t-51.5 27t-41 39t-13.5 51zM233 718q-4 4 -7 0l-82 -122q-14 -19 -34 -19q-9 0 -14.5 4.5t-5.5 9.5q0 10 18 29q57 59 117 107q1 1 4 1t5 -1q72 -55 121 -97q20 -18 20 -29q0 -7 -6.5 -14t-16.5 -7q-20 0 -35 21q-10 15 -42 58.5t-42 58.5z" />
    <glyph glyph-name="Scedilla" unicode="&#x15e;" horiz-adv-x="561" 
d="M277 703q104 0 218 -26q10 -3 11 -11q1 -7 -0.5 -33.5t-3.5 -84.5t-2 -126q0 -6 -2.5 -8.5t-5 0t-2.5 8.5q1 64 -6.5 108.5t-29 84t-65.5 59t-112 19.5q-87 0 -129 -36t-42 -97q0 -20 7 -38.5t15 -31.5t28 -28t31 -23t40.5 -22t40 -18.5t44.5 -19.5q40 -16 63 -27
t54.5 -29.5t48.5 -37t30 -45.5t13 -58q0 -85 -63 -138.5t-155 -53.5h-2l-41 -61q2 -3 5 -3q68 0 103.5 -22t35.5 -50q0 -46 -36 -92.5t-86 -46.5q-34 0 -59 11t-25 27q0 17 11 29.5t27 12.5q17 0 45 -22.5t52 -22.5q20 0 33 17t13 38q0 71 -161 70q-11 0 -4 10l78 105
q-119 1 -222 30q-10 2 -10 10q0 23 -0.5 127t-0.5 129q0 7 2.5 9.5t5.5 0t3 -9.5q0 -143 55.5 -214.5t177.5 -71.5q79 0 118.5 36.5t39.5 98.5q0 24 -7 44t-24 37.5t-30.5 29t-44 26.5t-45 22t-51.5 22q-41 17 -64.5 27.5t-56.5 30t-50.5 37.5t-31 44.5t-13.5 57.5
q0 87 67.5 138.5t166.5 51.5z" />
    <glyph glyph-name="scedilla" unicode="&#x15f;" horiz-adv-x="444" 
d="M39 361q0 71 57 110t128 39q29 0 54.5 -1.5t36.5 -3t39 -6.5t37 -6q7 -1 7 -8q0 -16 -2.5 -86.5t-2.5 -88.5q0 -6 -4 -6t-4 6q0 95 -37.5 143.5t-122.5 48.5q-62 0 -100 -24t-38 -63q0 -20 10 -36.5t21.5 -27.5t37.5 -23t40.5 -17.5t48.5 -17.5q41 -14 63.5 -23.5
t51.5 -27.5t42.5 -42t13.5 -56q0 -66 -51.5 -110t-127.5 -44h-2l-41 -61q2 -3 5 -3q68 0 103.5 -22t35.5 -50q0 -46 -36 -92.5t-86 -46.5q-34 0 -59 11t-25 27q0 17 11 29.5t27 12.5q17 0 45 -22.5t52 -22.5q20 0 33 17t13 38q0 71 -161 70q-11 0 -4 10q11 15 39 52.5
t39 52.5q-33 1 -64.5 5.5t-47.5 8.5t-40.5 12t-29.5 10q-7 1 -7 14q0 3 1.5 19t3 56.5t1.5 102.5q0 4 2 6t4 0t2 -6q0 -112 41.5 -165.5t144.5 -53.5q130 0 130 100q0 20 -9.5 37t-22 28t-37.5 22.5t-41.5 17.5t-48.5 17q-39 13 -63 23t-51.5 27t-41 39t-13.5 51z" />
    <glyph glyph-name="Scaron" unicode="&#x160;" horiz-adv-x="561" 
d="M277 703q104 0 218 -26q10 -3 11 -11q1 -7 -0.5 -33.5t-3.5 -84.5t-2 -126q0 -6 -2.5 -8.5t-5 0t-2.5 8.5q1 64 -6.5 108.5t-29 84t-65.5 59t-112 19.5q-87 0 -129 -36t-42 -97q0 -20 7 -38.5t15 -31.5t28 -28t31 -23t40.5 -22t40 -18.5t44.5 -19.5q40 -16 63 -27
t54.5 -29.5t48.5 -37t30 -45.5t13 -58q0 -85 -63 -138.5t-155 -53.5q-121 0 -233 30q-10 2 -10 10q0 23 -0.5 127t-0.5 129q0 7 2.5 9.5t5.5 0t3 -9.5q0 -143 55.5 -214.5t177.5 -71.5q79 0 118.5 36.5t39.5 98.5q0 24 -7 44t-24 37.5t-30.5 29t-44 26.5t-45 22t-51.5 22
q-41 17 -64.5 27.5t-56.5 30t-50.5 37.5t-31 44.5t-13.5 57.5q0 87 67.5 138.5t166.5 51.5zM286 782q4 -4 7 0l82 122q14 19 34 19q9 0 14.5 -4.5t5.5 -9.5q0 -10 -18 -29q-57 -59 -117 -107q-2 -1 -5 -1t-4 1q-72 55 -121 97q-20 18 -20 29q0 7 6.5 14t16.5 7q20 0 35 -21
q10 -15 42 -58.5t42 -58.5z" />
    <glyph glyph-name="scaron" unicode="&#x161;" horiz-adv-x="444" 
d="M39 361q0 71 57 110t128 39q29 0 54.5 -1.5t36.5 -3t39 -6.5t37 -6q7 -1 7 -8q0 -16 -2.5 -86.5t-2.5 -88.5q0 -6 -4 -6t-4 6q0 95 -37.5 143.5t-122.5 48.5q-62 0 -100 -24t-38 -63q0 -20 10 -36.5t21.5 -27.5t37.5 -23t40.5 -17.5t48.5 -17.5q41 -14 63.5 -23.5
t51.5 -27.5t42.5 -42t13.5 -56q0 -66 -51.5 -110t-127.5 -44q-36 0 -69 4.5t-50.5 9t-42 12.5t-31.5 10q-7 1 -7 14q0 3 1.5 19t3 56.5t1.5 102.5q0 4 2 6t4 0t2 -6q0 -112 41.5 -165.5t144.5 -53.5q130 0 130 100q0 20 -9.5 37t-22 28t-37.5 22.5t-41.5 17.5t-48.5 17
q-39 13 -63 23t-51.5 27t-41 39t-13.5 51zM234 587q4 -4 7 0l82 122q14 19 34 19q9 0 14.5 -4.5t5.5 -9.5q0 -10 -18 -29q-57 -59 -117 -107q-4 -4 -9 0q-72 55 -121 97q-20 17 -20 29q0 7 6.5 14t16.5 7q20 0 35 -21q10 -15 41.5 -58.5t42.5 -58.5z" />
    <glyph glyph-name="Tcommaaccent" unicode="&#x162;" horiz-adv-x="658" 
d="M368 694v-435q0 -99 1 -144t8 -72t15.5 -30.5t29.5 -3.5h18q6 0 6 -4.5t-6 -4.5q-16 0 -60.5 1.5t-49.5 1.5q-6 0 -50.5 -1.5t-60.5 -1.5q-6 0 -6 4.5t6 4.5h18q21 0 29.5 3.5t15.5 30.5t8 72t1 144v435q-28 -1 -82 -1q-76 0 -112.5 -50t-52.5 -154l-8 -57q-2 -6 -8 -5
q-3 1 -2 5l8 57q6 46 7.5 98.5t1.5 80t2 28.5q14 7 122 7q10 0 74 -1t88 -1q15 0 59 1t102 1h1q108 0 122 -7q2 -1 2 -28.5t2 -80t8 -98.5l7 -57q1 -4 -2 -5q-5 0 -7 5l-9 57q-16 104 -52.5 154t-113.5 51h-80zM320 -261q-4 -2 -5.5 -0.5t2.5 4.5q50 28 50 90q0 14 -5 27
q-12 -20 -35 -20q-18 0 -30.5 12.5t-12.5 30.5q0 20 13.5 33.5t35.5 13.5q27 0 42.5 -22.5t15.5 -60.5q0 -34 -24 -64t-47 -44z" />
    <glyph glyph-name="tcommaaccent" unicode="&#x163;" horiz-adv-x="326" 
d="M144 596v-97q102 0 135 1q35 1 35 -2q0 -10 -49 -54q-1 0 -52 0.5t-71 0.5v-314q0 -110 65 -110q31 0 58 27.5t44 76.5q1 4 5.5 4t7 -3t0.5 -7q-27 -54 -69 -91.5t-90 -37.5q-50 0 -73 33t-23 105v317h-55q-2 1 0 5l128 147q4 4 4 -1zM146 -261q-4 -2 -5.5 -0.5t2.5 4.5
q50 28 50 90q0 14 -5 27q-12 -20 -35 -20q-18 0 -30.5 12.5t-12.5 30.5q0 20 13.5 33.5t35.5 13.5q27 0 42.5 -22.5t15.5 -60.5q0 -34 -24 -64t-47 -44z" />
    <glyph glyph-name="Tcaron" unicode="&#x164;" horiz-adv-x="658" 
d="M368 694v-435q0 -99 1 -144t8 -72t15.5 -30.5t29.5 -3.5h18q6 0 6 -4.5t-6 -4.5q-16 0 -60.5 1.5t-49.5 1.5q-6 0 -50.5 -1.5t-60.5 -1.5q-6 0 -6 4.5t6 4.5h18q21 0 29.5 3.5t15.5 30.5t8 72t1 144v435q-28 -1 -82 -1q-76 0 -112.5 -50t-52.5 -154l-8 -57q-2 -6 -8 -5
q-3 1 -2 5l8 57q6 46 7.5 98.5t1.5 80t2 28.5q14 7 122 7q10 0 74 -1t88 -1q15 0 59 1t102 1h1q108 0 122 -7q2 -1 2 -28.5t2 -80t8 -98.5l7 -57q1 -4 -2 -5q-5 0 -7 5l-9 57q-16 104 -52.5 154t-113.5 51h-80zM329 782q4 -4 7 0l82 122q14 19 34 19q9 0 14.5 -4.5t5.5 -9.5
q0 -10 -18 -29q-57 -59 -117 -107q-1 -1 -4 -1t-5 1q-72 55 -121 97q-20 18 -20 29q0 7 6.5 14t16.5 7q20 0 35 -21q10 -15 41.5 -58.5t42.5 -58.5z" />
    <glyph glyph-name="tcaron" unicode="&#x165;" horiz-adv-x="348" 
d="M144 596v-97q102 0 135 1q35 1 35 -2q0 -10 -49 -54q-1 0 -52 0.5t-71 0.5v-314q0 -110 65 -110q31 0 58 27.5t44 76.5q1 4 5.5 4t7 -3t0.5 -7q-27 -54 -69 -91.5t-90 -37.5q-50 0 -73 33t-23 105v317h-55q-2 1 0 5l128 147q4 4 4 -1zM220 555q-4 -2 -5.5 -0.5t2.5 4.5
q50 28 50 90q0 14 -5 27q-12 -20 -35 -20q-18 0 -30.5 12.5t-12.5 30.5q0 20 13.5 33.5t35.5 13.5q27 0 42.5 -22.5t15.5 -60.5q0 -34 -24 -64t-47 -44z" />
    <glyph glyph-name="Tbar" unicode="&#x166;" horiz-adv-x="658" 
d="M368 346v-87q0 -99 1 -144t8 -72t15.5 -30.5t29.5 -3.5h18q6 0 6 -4.5t-6 -4.5q-16 0 -60.5 1.5t-49.5 1.5q-6 0 -50.5 -1.5t-60.5 -1.5q-6 0 -6 4.5t6 4.5h18q21 0 29.5 3.5t15.5 30.5t8 72t1 144v87q-72 -1 -160 -7q-5 3 -5 11.5t5 12.5q61 -4 160 -6v337
q-28 -1 -82 -1q-76 0 -112.5 -50t-52.5 -154l-8 -57q-2 -6 -8 -5q-3 1 -2 5l8 57q6 46 7.5 98.5t1.5 80t2 28.5q14 7 122 7q10 0 74 -1t88 -1q15 0 59 1t102 1h1q108 0 122 -7q2 -1 2 -28.5t2 -80t8 -98.5l7 -57q1 -4 -2 -5q-5 0 -7 5l-9 57q-16 104 -52.5 154t-113.5 51
h-80v-337q81 0 163 6q5 -4 5 -12.5t-5 -11.5q-90 6 -163 7z" />
    <glyph glyph-name="tbar" unicode="&#x167;" horiz-adv-x="326" 
d="M144 596v-97q102 0 135 1q35 1 35 -2q0 -10 -49 -54q-1 0 -52 0.5t-71 0.5v-129h113q35 1 35 -1q0 -11 -44 -53h-104v-131q0 -110 65 -110q31 0 58 27.5t44 76.5q1 4 5.5 4t7 -3t0.5 -7q-27 -54 -69 -91.5t-90 -37.5q-50 0 -73 33t-23 105v134h-16q-26 0 -26 2q0 6 42 51
v130h-55q-2 1 0 5l128 147q4 4 4 -1z" />
    <glyph glyph-name="Utilde" unicode="&#x168;" horiz-adv-x="665" 
d="M567 244v190q0 71 -7.5 120.5t-17.5 74t-27 38t-29 15.5t-31 2h-9q-6 0 -6 4.5t6 4.5q16 0 68.5 -1.5t58.5 -1.5t35 1.5t45 1.5q6 0 6 -4.5t-6 -4.5h-7q-28 0 -39 -10.5t-18.5 -64.5t-7.5 -175v-190q0 -105 -69 -179.5t-185 -74.5q-110 0 -174.5 70t-64.5 192v182
q0 99 -1 144t-8 72t-15 30.5t-29 3.5h-14q-6 0 -6 4.5t6 4.5q16 0 58 -1.5t48 -1.5q5 0 49.5 1.5t60.5 1.5q6 0 6 -4.5t-6 -4.5h-18q-21 0 -29.5 -3.5t-15.5 -30.5t-8.5 -72t-1.5 -144l-1 -155q0 -121 57.5 -189t156.5 -68q80 0 135 64.5t55 157.5zM191 782q44 57 61.5 75
t34.5 18q22 0 77.5 -29.5t72.5 -29.5q14 0 22.5 8t36.5 47q5 5 8 3.5t-1 -8.5q-36 -53 -59 -76.5t-45 -23.5q-21 0 -75 31.5t-73 31.5q-8 0 -15.5 -7.5t-37.5 -44.5q-6 -7 -8.5 -4.5t1.5 9.5z" />
    <glyph glyph-name="utilde" unicode="&#x169;" horiz-adv-x="559" 
d="M67 193v184q0 43 -5.5 60t-19.5 19t-39 -4q-5 -1 -6 3q-1 5 6 6q61 11 122 45q3 2 10.5 -1t7.5 -6v-316q0 -86 33 -124.5t85 -38.5q46 0 80.5 21t71.5 70v266q0 43 -5.5 60t-19.5 19t-39 -4q-5 -1 -6 3q-1 5 6 6q60 11 121 45q2 2 10 -1t8 -6v-380q0 -76 8 -93t45 -17
q5 0 5 -4.5t-5 -4.5q-37 0 -130 -10h-4.5t-2.5 2t-1 3v4q0 1 2.5 14.5t5 37t2.5 48.5q-82 -109 -185 -109q-161 0 -161 203zM124 593q44 57 61.5 75t34.5 18q22 0 77.5 -29.5t72.5 -29.5q14 0 22.5 8t36.5 47q5 5 8 3.5t-1 -8.5q-36 -53 -59 -76.5t-45 -23.5q-21 0 -75 31.5
t-73 31.5q-8 0 -15.5 -7.5t-37.5 -44.5q-6 -7 -8.5 -4.5t1.5 9.5z" />
    <glyph glyph-name="Umacron" unicode="&#x16a;" horiz-adv-x="665" 
d="M567 244v190q0 71 -7.5 120.5t-17.5 74t-27 38t-29 15.5t-31 2h-9q-6 0 -6 4.5t6 4.5q16 0 68.5 -1.5t58.5 -1.5t35 1.5t45 1.5q6 0 6 -4.5t-6 -4.5h-7q-28 0 -39 -10.5t-18.5 -64.5t-7.5 -175v-190q0 -105 -69 -179.5t-185 -74.5q-110 0 -174.5 70t-64.5 192v182
q0 99 -1 144t-8 72t-15 30.5t-29 3.5h-14q-6 0 -6 4.5t6 4.5q16 0 58 -1.5t48 -1.5q5 0 49.5 1.5t60.5 1.5q6 0 6 -4.5t-6 -4.5h-18q-21 0 -29.5 -3.5t-15.5 -30.5t-8.5 -72t-1.5 -144l-1 -155q0 -121 57.5 -189t156.5 -68q80 0 135 64.5t55 157.5zM348 827h1q57 0 90 1
q35 1 35 -1q0 -7 -46 -51q-1 0 -29.5 0.5t-48.5 0.5q-10 0 -76 -2q-35 -1 -35 2q0 7 46 51q1 0 22 -0.5t41 -0.5z" />
    <glyph glyph-name="umacron" unicode="&#x16b;" horiz-adv-x="559" 
d="M67 193v184q0 43 -5.5 60t-19.5 19t-39 -4q-5 -1 -6 3q-1 5 6 6q61 11 122 45q3 2 10.5 -1t7.5 -6v-316q0 -86 33 -124.5t85 -38.5q46 0 80.5 21t71.5 70v266q0 43 -5.5 60t-19.5 19t-39 -4q-5 -1 -6 3q-1 5 6 6q60 11 121 45q2 2 10 -1t8 -6v-380q0 -76 8 -93t45 -17
q5 0 5 -4.5t-5 -4.5q-37 0 -130 -10h-4.5t-2.5 2t-1 3v4q0 1 2.5 14.5t5 37t2.5 48.5q-82 -109 -185 -109q-161 0 -161 203zM271 638h1q57 0 90 1q35 1 35 -1q0 -7 -46 -51q-1 0 -29.5 0.5t-48.5 0.5q-10 0 -76 -2q-35 -1 -35 2q0 7 46 51q1 0 22 -0.5t41 -0.5z" />
    <glyph glyph-name="Ubreve" unicode="&#x16c;" horiz-adv-x="665" 
d="M567 244v190q0 71 -7.5 120.5t-17.5 74t-27 38t-29 15.5t-31 2h-9q-6 0 -6 4.5t6 4.5q16 0 68.5 -1.5t58.5 -1.5t35 1.5t45 1.5q6 0 6 -4.5t-6 -4.5h-7q-28 0 -39 -10.5t-18.5 -64.5t-7.5 -175v-190q0 -105 -69 -179.5t-185 -74.5q-110 0 -174.5 70t-64.5 192v182
q0 99 -1 144t-8 72t-15 30.5t-29 3.5h-14q-6 0 -6 4.5t6 4.5q16 0 58 -1.5t48 -1.5q5 0 49.5 1.5t60.5 1.5q6 0 6 -4.5t-6 -4.5h-18q-21 0 -29.5 -3.5t-15.5 -30.5t-8.5 -72t-1.5 -144l-1 -155q0 -121 57.5 -189t156.5 -68q80 0 135 64.5t55 157.5zM347 761q-64 0 -119 72
q-6 7 -6 12q0 7 23 14q15 5 21 4.5t11 -7.5q30 -39 52.5 -56.5t49.5 -17.5q43 0 75 75q3 7 11 7q5 0 8 -3.5t0 -7.5q-22 -37 -57 -64t-69 -28z" />
    <glyph glyph-name="ubreve" unicode="&#x16d;" horiz-adv-x="559" 
d="M67 193v184q0 43 -5.5 60t-19.5 19t-39 -4q-5 -1 -6 3q-1 5 6 6q61 11 122 45q3 2 10.5 -1t7.5 -6v-316q0 -86 33 -124.5t85 -38.5q46 0 80.5 21t71.5 70v266q0 43 -5.5 60t-19.5 19t-39 -4q-5 -1 -6 3q-1 5 6 6q60 11 121 45q2 2 10 -1t8 -6v-380q0 -76 8 -93t45 -17
q5 0 5 -4.5t-5 -4.5q-37 0 -130 -10h-4.5t-2.5 2t-1 3v4q0 1 2.5 14.5t5 37t2.5 48.5q-82 -109 -185 -109q-161 0 -161 203zM277 587q-64 0 -119 72q-6 7 -6 12q0 7 23 14q15 5 21 4.5t11 -7.5q30 -39 52.5 -56.5t49.5 -17.5q43 0 75 75q3 7 11 7q5 0 8 -3.5t0 -7.5
q-22 -37 -57 -64t-69 -28z" />
    <glyph glyph-name="Uring" unicode="&#x16e;" horiz-adv-x="665" 
d="M567 244v190q0 71 -7.5 120.5t-17.5 74t-27 38t-29 15.5t-31 2h-9q-6 0 -6 4.5t6 4.5q16 0 68.5 -1.5t58.5 -1.5t35 1.5t45 1.5q6 0 6 -4.5t-6 -4.5h-7q-28 0 -39 -10.5t-18.5 -64.5t-7.5 -175v-190q0 -105 -69 -179.5t-185 -74.5q-110 0 -174.5 70t-64.5 192v182
q0 99 -1 144t-8 72t-15 30.5t-29 3.5h-14q-6 0 -6 4.5t6 4.5q16 0 58 -1.5t48 -1.5q5 0 49.5 1.5t60.5 1.5q6 0 6 -4.5t-6 -4.5h-18q-21 0 -29.5 -3.5t-15.5 -30.5t-8.5 -72t-1.5 -144l-1 -155q0 -121 57.5 -189t156.5 -68q80 0 135 64.5t55 157.5zM273 823q0 31 21.5 52.5
t52.5 21.5t52.5 -21.5t21.5 -52.5t-21.5 -52.5t-52.5 -21.5t-52.5 21.5t-21.5 52.5zM285 823q0 -25 18.5 -43.5t43.5 -18.5t43.5 18.5t18.5 43.5t-18.5 43.5t-43.5 18.5t-43.5 -18.5t-18.5 -43.5z" />
    <glyph glyph-name="uring" unicode="&#x16f;" horiz-adv-x="559" 
d="M67 193v184q0 43 -5.5 60t-19.5 19t-39 -4q-5 -1 -6 3q-1 5 6 6q61 11 122 45q3 2 10.5 -1t7.5 -6v-316q0 -86 33 -124.5t85 -38.5q46 0 80.5 21t71.5 70v266q0 43 -5.5 60t-19.5 19t-39 -4q-5 -1 -6 3q-1 5 6 6q60 11 121 45q2 2 10 -1t8 -6v-380q0 -76 8 -93t45 -17
q5 0 5 -4.5t-5 -4.5q-37 0 -130 -10h-4.5t-2.5 2t-1 3v4q0 1 2.5 14.5t5 37t2.5 48.5q-82 -109 -185 -109q-161 0 -161 203zM197 631q0 31 21.5 52.5t52.5 21.5t52.5 -21.5t21.5 -52.5t-21.5 -52.5t-52.5 -21.5t-52.5 21.5t-21.5 52.5zM209 631q0 -25 18.5 -43.5t43.5 -18.5
t43.5 18.5t18.5 43.5t-18.5 43.5t-43.5 18.5t-43.5 -18.5t-18.5 -43.5z" />
    <glyph glyph-name="Uhungarumlaut" unicode="&#x170;" horiz-adv-x="665" 
d="M567 244v190q0 71 -7.5 120.5t-17.5 74t-27 38t-29 15.5t-31 2h-9q-6 0 -6 4.5t6 4.5q16 0 68.5 -1.5t58.5 -1.5t35 1.5t45 1.5q6 0 6 -4.5t-6 -4.5h-7q-28 0 -39 -10.5t-18.5 -64.5t-7.5 -175v-190q0 -105 -69 -179.5t-185 -74.5q-110 0 -174.5 70t-64.5 192v182
q0 99 -1 144t-8 72t-15 30.5t-29 3.5h-14q-6 0 -6 4.5t6 4.5q16 0 58 -1.5t48 -1.5q5 0 49.5 1.5t60.5 1.5q6 0 6 -4.5t-6 -4.5h-18q-21 0 -29.5 -3.5t-15.5 -30.5t-8.5 -72t-1.5 -144l-1 -155q0 -121 57.5 -189t156.5 -68q80 0 135 64.5t55 157.5zM392 753q-2 -2 -4 -2
q-3 0 -5 4q0 1 3 4q22 21 46.5 54.5t41.5 60t20 29.5q5 6 23 6q13 0 18 -3q3 -3 3 -18q0 -8 -11 -17q-2 -2 -28 -22.5t-56.5 -46.5t-50.5 -49zM280 753q0 -2 -3 -2q-4 0 -6 4q0 2 2 4q24 28 53.5 85.5t30.5 58.5q4 6 21 6q13 0 19 -3q3 -3 3 -18q0 -8 -9 -17q-1 -1 -23 -22
t-47 -47t-41 -49z" />
    <glyph glyph-name="uhungarumlaut" unicode="&#x171;" horiz-adv-x="559" 
d="M67 193v184q0 43 -5.5 60t-19.5 19t-39 -4q-5 -1 -6 3q-1 5 6 6q61 11 122 45q3 2 10.5 -1t7.5 -6v-316q0 -86 33 -124.5t85 -38.5q46 0 80.5 21t71.5 70v266q0 43 -5.5 60t-19.5 19t-39 -4q-5 -1 -6 3q-1 5 6 6q60 11 121 45q2 2 10 -1t8 -6v-380q0 -76 8 -93t45 -17
q5 0 5 -4.5t-5 -4.5q-37 0 -130 -10h-4.5t-2.5 2t-1 3v4q0 1 2.5 14.5t5 37t2.5 48.5q-82 -109 -185 -109q-161 0 -161 203zM316 548q-2 -2 -4 -2q-3 0 -5 4q0 1 3 4q22 21 46.5 54.5t41.5 60t20 29.5q5 6 23 6q13 0 18 -3q3 -3 3 -18q0 -8 -11 -17q-2 -2 -28 -22.5
t-56.5 -46.5t-50.5 -49zM204 548q0 -2 -3 -2q-4 0 -6 4q0 2 2 4q24 28 53.5 85.5t30.5 58.5q4 6 21 6q13 0 19 -3q3 -3 3 -18q0 -8 -9 -17q-1 -1 -23 -22t-47 -47t-41 -49z" />
    <glyph glyph-name="Uogonek" unicode="&#x172;" horiz-adv-x="665" 
d="M455 -133q33 0 75 21q2 1 -5 -15.5t-17 -34.5t-15 -22q-31 -13 -68 -13q-33 0 -50 19.5t-13 53.5q3 24 26 55.5t80 96.5q-62 -38 -141 -38q-110 0 -174.5 70t-64.5 192v182q0 99 -1 144t-8 72t-15 30.5t-29 3.5h-14q-6 0 -6 4.5t6 4.5q16 0 58 -1.5t48 -1.5q5 0 49.5 1.5
t60.5 1.5q6 0 6 -4.5t-6 -4.5h-18q-21 0 -29.5 -3.5t-15.5 -30.5t-8.5 -72t-1.5 -144l-1 -155q0 -121 57.5 -189t156.5 -68q80 0 135 64.5t55 157.5v190q0 71 -7.5 120.5t-17.5 74t-27 38t-29 15.5t-31 2h-9q-6 0 -6 4.5t6 4.5q16 0 68.5 -1.5t58.5 -1.5t35 1.5t45 1.5
q6 0 6 -4.5t-6 -4.5h-7q-28 0 -39 -10.5t-18.5 -64.5t-7.5 -175v-190q0 -122 -85 -195q-89 -104 -93 -138q-2 -20 11 -32t41 -12z" />
    <glyph glyph-name="uogonek" unicode="&#x173;" horiz-adv-x="559" 
d="M67 193v184q0 43 -5.5 60t-19.5 19t-39 -4q-5 -1 -6 3q-1 5 6 6q61 11 122 45q3 2 10.5 -1t7.5 -6v-316q0 -86 33 -124.5t85 -38.5q46 0 80.5 21t71.5 70v266q0 43 -5.5 60t-19.5 19t-39 -4q-5 -1 -6 3q-1 5 6 6q60 11 121 45q2 2 10 -1t8 -6v-380q0 -76 8 -93t45 -17
q4 0 4.5 -3.5t-2.5 -5.5q-49 -61 -52 -89q-2 -20 11 -32t41 -12q33 0 75 21q2 1 -5 -15.5t-17 -34.5t-15 -22q-31 -13 -68 -13q-33 0 -50 19.5t-13 53.5q5 36 81 124q-33 0 -120 -10h-4.5t-2.5 2t-1 3v4q0 1 2.5 14.5t5 37t2.5 48.5q-82 -109 -185 -109q-161 0 -161 203z
" />
    <glyph glyph-name="Wcircumflex" unicode="&#x174;" horiz-adv-x="982" 
d="M371 96l115 254l-78 183q-35 79 -51 107t-28.5 36t-40.5 8h-8q-7 0 -7 4q0 5 6 5q16 0 54.5 -1.5t44.5 -1.5t50.5 1.5t60.5 1.5q6 0 6 -4.5t-6 -4.5h-8q-34 0 -34 -25q0 -36 41 -137l43 -100l41 100q30 70 30 115q0 48 -35 48q-5 0 -14 -1.5t-10 -1.5q-6 0 -6 5q0 6 11 6
q9 0 47 -1t46 -1q5 0 47 1t55 1q5 0 6 -4q-2 -4 -6 -5h-26q-37 0 -67 -38t-66 -128l-47 -111l136 -316q2 -5 5 -5q2 0 4 5l152 396q35 92 35 148q0 50 -51 50q-5 0 -16 -2t-12 -2q-7 0 -7 6t12 6q9 0 56.5 -1t55.5 -1q5 0 38 1t47 1q5 0 6 -4q-2 -4 -6 -5h-3
q-36 0 -68.5 -47.5t-73.5 -154.5l-187 -483q-2 -3 -7 -3h-10q-5 0 -7 3l-144 335l-150 -334q-2 -3 -6 -3h-8q-6 0 -8 3l-184 485q-39 100 -59 139t-35 49.5t-44 10.5h-2q-6 0 -6 4q0 5 5 5q16 0 51.5 -1.5t41.5 -1.5t65 1.5t75 1.5q7 0 7 -5q-1 -4 -6 -4h-26q-42 0 -44 -28
q0 -34 74 -222l129 -338q2 -5 5 -5q2 0 4 5zM516 912q-4 4 -7 0l-82 -122q-14 -19 -34 -19q-9 0 -14.5 4.5t-5.5 9.5q0 10 18 29q57 59 117 107q2 1 5 1t4 -1q72 -55 121 -97q20 -18 20 -29q0 -7 -6.5 -14t-16.5 -7q-20 0 -35 21q-10 15 -42 58.5t-42 58.5z" />
    <glyph glyph-name="wcircumflex" unicode="&#x175;" horiz-adv-x="829" 
d="M561 -2l-153 388l-163 -388q-1 -2 -3 -2h-11q-3 0 -4 2l-134 365q-30 84 -49.5 106t-59.5 22q-4 0 -4 4.5t4 4.5q2 0 42.5 -1t47.5 -1q5 0 54.5 1t62.5 1q3 0 4.5 -2t0 -4.5t-4.5 -2.5q-31 0 -41 -5t-8.5 -25t18.5 -68l111 -302l125 291q3 10 1 33q-2 20 -10 36
q-20 40 -64 40q-6 0 -6 5q0 4 5 4q14 0 52 -1t42 -1q5 0 42 1t49 1q7 0 7 -5q-1 -4 -6 -4q-42 0 -47 -13.5t22 -84.5l121 -308l107 266q22 51 16.5 82t-24.5 44.5t-50 13.5q-6 0 -6 5q0 4 5 4q13 0 55.5 -1t47.5 -1q7 0 47.5 1t43.5 1t4.5 -2t0.5 -4.5t-4 -2.5
q-42 0 -67 -30.5t-60 -116.5l-139 -346q-1 -2 -6 -2h-10q-3 0 -4 2zM419 718q-4 4 -7 0l-82 -122q-14 -19 -34 -19q-9 0 -14.5 4.5t-5.5 9.5q0 10 18 29q57 59 117 107q1 1 4 1t5 -1q72 -55 121 -97q20 -18 20 -29q0 -7 -6.5 -14t-16.5 -7q-20 0 -35 21q-10 15 -42 58.5
t-42 58.5z" />
    <glyph glyph-name="Ycircumflex" unicode="&#x176;" horiz-adv-x="615" 
d="M459 509l-110 -192v-58q0 -99 1 -144t8 -72t15.5 -30.5t29.5 -3.5h18q6 0 6 -4.5t-6 -4.5q-16 0 -59.5 1.5t-49.5 1.5q-5 0 -49.5 -1.5t-60.5 -1.5q-6 0 -6 4.5t6 4.5h18q21 0 29.5 3.5t15.5 30.5t8 72t1 144v55l-108 195q-60 108 -88.5 141.5t-65.5 33.5h-8q-7 0 -7 4
q0 5 6 5q16 0 54.5 -1.5t44.5 -1.5t55.5 1.5t65.5 1.5q7 0 8 -5q-2 -3 -5 -4h-21q-19 0 -25.5 -8t0 -31t21.5 -54t46 -87l95 -175l106 183q11 19 21.5 44t17.5 56t-5 52t-46 21q-5 0 -16 -2t-12 -2q-7 0 -7 6t12 6q9 0 53 -1t52 -1q5 0 50 1t59 1q7 0 4 -5q-1 -4 -6 -4h-2
q-26 0 -63.5 -38.5t-60.5 -73t-40 -63.5zM325 905q-4 4 -7 0l-82 -122q-14 -19 -34 -19q-9 0 -14.5 4.5t-5.5 9.5q0 10 18 29q57 59 117 107q5 4 9 0q72 -55 121 -97q20 -17 20 -29q0 -7 -6.5 -14t-16.5 -7q-20 0 -35 21q-10 15 -41.5 58.5t-42.5 58.5z" />
    <glyph glyph-name="ycircumflex" unicode="&#x177;" horiz-adv-x="537" 
d="M117 -136q42 0 72.5 23.5t62.5 95.5l11 25l-159 352q-41 89 -60.5 110.5t-56.5 20.5q-3 0 -4.5 2.5t0 4.5t4.5 2t47 -1t52 -1q5 0 48.5 1t58.5 1q6 0 6 -4.5t-6 -4.5q-45 0 -50 -17t25 -84l133 -295l112 252q30 72 17 108t-63 36q-6 0 -6 4.5t6 4.5q16 0 52.5 -1t41.5 -1
q8 0 47.5 1t42.5 1t4.5 -2t0 -4.5t-4.5 -2.5q-34 1 -65 -37t-64 -113l-160 -360q-39 -89 -88.5 -131t-120.5 -42q-38 0 -60.5 12t-22.5 27q0 14 16.5 30t38.5 16q18 0 45.5 -14.5t46.5 -14.5zM289 718q-4 4 -7 0l-82 -122q-14 -19 -34 -19q-9 0 -14.5 4.5t-5.5 9.5
q0 10 18 29q57 59 117 107q1 1 4 1t5 -1q72 -55 121 -97q20 -18 20 -29q0 -7 -6.5 -14t-16.5 -7q-20 0 -35 21q-10 15 -42 58.5t-42 58.5z" />
    <glyph glyph-name="Ydieresis" unicode="&#x178;" horiz-adv-x="615" 
d="M459 509l-110 -192v-58q0 -99 1 -144t8 -72t15.5 -30.5t29.5 -3.5h18q6 0 6 -4.5t-6 -4.5q-16 0 -59.5 1.5t-49.5 1.5q-5 0 -49.5 -1.5t-60.5 -1.5q-6 0 -6 4.5t6 4.5h18q21 0 29.5 3.5t15.5 30.5t8 72t1 144v55l-108 195q-60 108 -88.5 141.5t-65.5 33.5h-8q-7 0 -7 4
q0 5 6 5q16 0 54.5 -1.5t44.5 -1.5t55.5 1.5t65.5 1.5q7 0 8 -5q-2 -3 -5 -4h-21q-19 0 -25.5 -8t0 -31t21.5 -54t46 -87l95 -175l106 183q11 19 21.5 44t17.5 56t-5 52t-46 21q-5 0 -16 -2t-12 -2q-7 0 -7 6t12 6q9 0 53 -1t52 -1q5 0 50 1t59 1q7 0 4 -5q-1 -4 -6 -4h-2
q-26 0 -63.5 -38.5t-60.5 -73t-40 -63.5zM177 815q0 20 14.5 35t34.5 15t35 -15t15 -35t-15 -34.5t-35 -14.5t-34.5 14.5t-14.5 34.5zM375 815q0 20 14.5 35t34.5 15t35 -15t15 -35t-15 -34.5t-35 -14.5t-34.5 14.5t-14.5 34.5z" />
    <glyph glyph-name="Zacute" unicode="&#x179;" horiz-adv-x="625" 
d="M83 505l-10 -106q0 -3 -3 -4.5t-6 0.5t-3 5l11 105q15 180 22 184q9 4 48 4q21 0 172.5 -1.5t155.5 -1.5q6 0 40.5 1.5t50.5 1.5q5 0 7.5 -0.5t5 -2.5t-1.5 -7l-443 -669q17 0 113.5 -1.5t111.5 -1.5q83 0 139.5 60.5t64.5 141.5l7 99q0 3 3 4.5t5 -0.5t2 -5l-6 -100
q-16 -199 -24 -207q-4 -4 -133 -4l-276 3l-98 -6q-10 0 0 16l441 668h-185q-88 -1 -144.5 -47t-66.5 -129zM283 753q-2 -2 -4 -2q-4 0 -4 4q0 1 3 4q23 22 50.5 56.5t47 62t22.5 30.5q6 6 24 6q15 0 18 -3t3 -19q0 -7 -12 -17q-3 -3 -31 -23.5t-61.5 -48t-55.5 -50.5z" />
    <glyph glyph-name="zacute" unicode="&#x17a;" horiz-adv-x="505" 
d="M54 307l-3 -62q0 -3 -2.5 -4.5t-4.5 0t-2 4.5l3 62q8 188 11 189q8 4 47 4q21 0 147 -1t131 -1q8 0 38 1.5t37 1.5t6.5 -6.5t-6.5 -14.5l-348 -468q88 -2 146 -2q94 0 143.5 50.5t56.5 142.5l5 69q0 3 2.5 4t4.5 -0.5t2 -4.5l-5 -69q-18 -196 -20 -198q-4 -4 -87 -4
l-239 2l-84 -2q-7 0 -12 2.5t-3 6.5l358 480h-130q-98 -1 -142.5 -45t-49.5 -137zM217 559q-2 -2 -4 -2q-4 0 -4 4q0 1 3 4q23 22 50.5 56.5t47 62t22.5 30.5q6 6 24 6q15 0 18 -3t3 -19q0 -7 -12 -17q-3 -3 -31 -23.5t-61.5 -48t-55.5 -50.5z" />
    <glyph glyph-name="Zdotaccent" unicode="&#x17b;" horiz-adv-x="625" 
d="M83 505l-10 -106q0 -3 -3 -4.5t-6 0.5t-3 5l11 105q15 180 22 184q9 4 48 4q21 0 172.5 -1.5t155.5 -1.5q6 0 40.5 1.5t50.5 1.5q5 0 7.5 -0.5t5 -2.5t-1.5 -7l-443 -669q17 0 113.5 -1.5t111.5 -1.5q83 0 139.5 60.5t64.5 141.5l7 99q0 3 3 4.5t5 -0.5t2 -5l-6 -100
q-16 -199 -24 -207q-4 -4 -133 -4l-276 3l-98 -6q-10 0 0 16l441 668h-185q-88 -1 -144.5 -47t-66.5 -129zM273 833q0 22 15 37.5t37 15.5t37.5 -15.5t15.5 -37.5t-15.5 -37t-37.5 -15t-37 15t-15 37z" />
    <glyph glyph-name="zdotaccent" unicode="&#x17c;" horiz-adv-x="505" 
d="M54 307l-3 -62q0 -3 -2.5 -4.5t-4.5 0t-2 4.5l3 62q8 188 11 189q8 4 47 4q21 0 147 -1t131 -1q8 0 38 1.5t37 1.5t6.5 -6.5t-6.5 -14.5l-348 -468q88 -2 146 -2q94 0 143.5 50.5t56.5 142.5l5 69q0 3 2.5 4t4.5 -0.5t2 -4.5l-5 -69q-18 -196 -20 -198q-4 -4 -87 -4
l-239 2l-84 -2q-7 0 -12 2.5t-3 6.5l358 480h-130q-98 -1 -142.5 -45t-49.5 -137zM205 639q0 22 15 37.5t37 15.5t37.5 -15.5t15.5 -37.5t-15.5 -37t-37.5 -15t-37 15t-15 37z" />
    <glyph glyph-name="Zcaron" unicode="&#x17d;" horiz-adv-x="625" 
d="M83 505l-10 -106q0 -3 -3 -4.5t-6 0.5t-3 5l11 105q15 180 22 184q9 4 48 4q21 0 172.5 -1.5t155.5 -1.5q6 0 40.5 1.5t50.5 1.5q5 0 7.5 -0.5t5 -2.5t-1.5 -7l-443 -669q17 0 113.5 -1.5t111.5 -1.5q83 0 139.5 60.5t64.5 141.5l7 99q0 3 3 4.5t5 -0.5t2 -5l-6 -100
q-16 -199 -24 -207q-4 -4 -133 -4l-276 3l-98 -6q-10 0 0 16l441 668h-185q-88 -1 -144.5 -47t-66.5 -129zM321 782q4 -4 7 0l82 122q14 19 34 19q9 0 14.5 -4.5t5.5 -9.5q0 -10 -18 -29q-57 -59 -117 -107q-1 -1 -4 -1t-5 1q-72 55 -121 97q-20 18 -20 29q0 7 6.5 14
t16.5 7q20 0 35 -21q10 -15 42 -58.5t42 -58.5z" />
    <glyph glyph-name="zcaron" unicode="&#x17e;" horiz-adv-x="505" 
d="M54 307l-3 -62q0 -3 -2.5 -4.5t-4.5 0t-2 4.5l3 62q8 188 11 189q8 4 47 4q21 0 147 -1t131 -1q8 0 38 1.5t37 1.5t6.5 -6.5t-6.5 -14.5l-348 -468q88 -2 146 -2q94 0 143.5 50.5t56.5 142.5l5 69q0 3 2.5 4t4.5 -0.5t2 -4.5l-5 -69q-18 -196 -20 -198q-4 -4 -87 -4
l-239 2l-84 -2q-7 0 -12 2.5t-3 6.5l358 480h-130q-98 -1 -142.5 -45t-49.5 -137zM257 587q4 -4 7 0l82 122q14 19 34 19q9 0 14.5 -4.5t5.5 -9.5q0 -10 -18 -29q-57 -59 -117 -107q-5 -4 -9 0q-72 55 -121 97q-20 17 -20 29q0 7 6.5 14t16.5 7q20 0 35 -21q10 -15 42 -58.5
t42 -58.5z" />
    <glyph glyph-name="florin" unicode="&#x192;" horiz-adv-x="559" 
d="M229 239v-1q-88 -431 -210 -504q-50 -29 -101 -29q-36 0 -62.5 19t-25.5 45q1 23 14.5 36t32.5 13q36 0 40 -48q6 -45 50 -45q24 0 49 17q34 26 61 123t79 378v3q-84 -1 -168 -7q-5 3 -5 9.5t5 10.5q65 -3 170 -3q43 206 94.5 304.5t117.5 138.5q50 30 100 30
q36 0 63.5 -19.5t26.5 -45.5q-1 -23 -14.5 -36t-32.5 -13q-36 0 -40 48q-6 45 -50 45q-25 0 -50 -17q-26 -20 -42.5 -49t-41.5 -121t-57 -265q129 2 205 7q5 -4 5 -12.5t-5 -11.5q-84 5 -207 7q0 -2 -0.5 -4t-0.5 -3z" />
    <glyph glyph-name="Scommaaccent" unicode="&#x218;" horiz-adv-x="561" 
d="M277 703q104 0 218 -26q10 -3 11 -11q1 -7 -0.5 -33.5t-3.5 -84.5t-2 -126q0 -6 -2.5 -8.5t-5 0t-2.5 8.5q1 64 -6.5 108.5t-29 84t-65.5 59t-112 19.5q-87 0 -129 -36t-42 -97q0 -20 7 -38.5t15 -31.5t28 -28t31 -23t40.5 -22t40 -18.5t44.5 -19.5q40 -16 63 -27
t54.5 -29.5t48.5 -37t30 -45.5t13 -58q0 -85 -63 -138.5t-155 -53.5q-121 0 -233 30q-10 2 -10 10q0 23 -0.5 127t-0.5 129q0 7 2.5 9.5t5.5 0t3 -9.5q0 -143 55.5 -214.5t177.5 -71.5q79 0 118.5 36.5t39.5 98.5q0 24 -7 44t-24 37.5t-30.5 29t-44 26.5t-45 22t-51.5 22
q-41 17 -64.5 27.5t-56.5 30t-50.5 37.5t-31 44.5t-13.5 57.5q0 87 67.5 138.5t166.5 51.5zM286 -261q-4 -2 -5.5 -0.5t2.5 4.5q50 28 50 90q0 14 -5 27q-12 -20 -35 -20q-18 0 -30.5 12.5t-12.5 30.5q0 20 13.5 33.5t35.5 13.5q27 0 42.5 -22.5t15.5 -60.5q0 -34 -24 -64
t-47 -44z" />
    <glyph glyph-name="scommaaccent" unicode="&#x219;" horiz-adv-x="444" 
d="M39 361q0 71 57 110t128 39q29 0 54.5 -1.5t36.5 -3t39 -6.5t37 -6q7 -1 7 -8q0 -16 -2.5 -86.5t-2.5 -88.5q0 -6 -4 -6t-4 6q0 95 -37.5 143.5t-122.5 48.5q-62 0 -100 -24t-38 -63q0 -20 10 -36.5t21.5 -27.5t37.5 -23t40.5 -17.5t48.5 -17.5q41 -14 63.5 -23.5
t51.5 -27.5t42.5 -42t13.5 -56q0 -66 -51.5 -110t-127.5 -44q-36 0 -69 4.5t-50.5 9t-42 12.5t-31.5 10q-7 1 -7 14q0 3 1.5 19t3 56.5t1.5 102.5q0 4 2 6t4 0t2 -6q0 -112 41.5 -165.5t144.5 -53.5q130 0 130 100q0 20 -9.5 37t-22 28t-37.5 22.5t-41.5 17.5t-48.5 17
q-39 13 -63 23t-51.5 27t-41 39t-13.5 51zM217 -261q-4 -2 -5.5 -0.5t2.5 4.5q50 28 50 90q0 14 -5 27q-12 -20 -35 -20q-18 0 -30.5 12.5t-12.5 30.5q0 20 13.5 33.5t35.5 13.5q27 0 42.5 -22.5t15.5 -60.5q0 -34 -24 -64t-47 -44z" />
    <glyph glyph-name="dotlessj" unicode="&#x237;" horiz-adv-x="223" 
d="M148 503l1 -454q-2 -60 -28 -111t-78 -115q-68 -84 -107 -84q-8 0 -18 2q-22 5 -22 18q0 14 12.5 31t28.5 21q6 2 16 2q12 0 29 -0.5t19 -0.5q22 0 32 12q12 14 17 21t14.5 55t9.5 122v355q0 54 -13 65.5t-53 2.5q-6 -1 -7.5 3t4.5 5q63 14 125 57q3 2 10.5 -1t7.5 -6z
" />
    <glyph glyph-name="circumflex" unicode="&#x2c6;" horiz-adv-x="809" 
d="M420 680q-4 4 -7 0l-82 -122q-14 -19 -34 -19q-9 0 -14.5 4.5t-5.5 9.5q0 10 18 29q57 59 117 107q2 1 5 1t4 -1q72 -55 121 -97q20 -17 20 -29q0 -7 -6.5 -14t-16.5 -7q-20 0 -35 21q-10 15 -42 58.5t-42 58.5z" />
    <glyph glyph-name="caron" unicode="&#x2c7;" horiz-adv-x="809" 
d="M420 542q4 -4 7 0l82 122q14 19 34 19q9 0 14.5 -4.5t5.5 -9.5q0 -10 -18 -29q-57 -59 -117 -107q-2 -1 -5 -1t-4 1q-72 55 -121 97q-20 18 -20 29q0 7 6.5 14t16.5 7q20 0 35 -21q10 -15 42 -58.5t42 -58.5z" />
    <glyph glyph-name="breve" unicode="&#x2d8;" horiz-adv-x="809" 
d="M424 563q-64 0 -119 72q-6 7 -6 12q0 7 23 14q15 5 21 4.5t11 -7.5q30 -39 52.5 -56.5t49.5 -17.5q43 0 75 75q3 7 11 7q5 0 8 -3.5t0 -7.5q-22 -37 -57 -64t-69 -28z" />
    <glyph glyph-name="dotaccent" unicode="&#x2d9;" horiz-adv-x="809" 
d="M348 648q0 22 15 37.5t37 15.5t37.5 -15.5t15.5 -37.5t-15.5 -37t-37.5 -15t-37 15t-15 37z" />
    <glyph glyph-name="ring" unicode="&#x2da;" horiz-adv-x="809" 
d="M325 633q0 31 21.5 52.5t52.5 21.5t52.5 -21.5t21.5 -52.5t-21.5 -52.5t-52.5 -21.5t-52.5 21.5t-21.5 52.5zM337 633q0 -25 18.5 -43.5t43.5 -18.5t43.5 18.5t18.5 43.5t-18.5 43.5t-43.5 18.5t-43.5 -18.5t-18.5 -43.5z" />
    <glyph glyph-name="ogonek" unicode="&#x2db;" horiz-adv-x="809" 
d="M388 -184q33 0 75 21q2 1 -5 -15.5t-17 -34.5t-15 -22q-31 -13 -68 -13q-33 0 -50 19.5t-13 53.5q3 26 29 60t97 115q6 6 9 2q2 -1 -1 -4q-89 -104 -93 -138q-2 -20 11 -32t41 -12z" />
    <glyph glyph-name="tilde" unicode="&#x2dc;" horiz-adv-x="809" 
d="M264 597q44 57 61.5 75t34.5 18q22 0 77.5 -29.5t72.5 -29.5q14 0 22.5 8t36.5 47q5 5 8 3.5t-1 -8.5q-36 -53 -59 -76.5t-45 -23.5q-21 0 -75 31.5t-73 31.5q-8 0 -15.5 -7.5t-37.5 -44.5q-6 -7 -8.5 -4.5t1.5 9.5z" />
    <glyph glyph-name="hungarumlaut" unicode="&#x2dd;" horiz-adv-x="809" 
d="M275 548q0 -2 -3 -2q-4 0 -6 4q0 2 2 4q24 28 53.5 85.5t30.5 58.5q4 6 21 6q13 0 19 -3q3 -3 3 -18q0 -8 -9 -17q-1 -1 -23 -22t-47 -47t-41 -49zM387 548q-2 -2 -4 -2q-3 0 -5 4q0 1 3 4q22 21 46.5 54.5t41.5 60t20 29.5q5 6 23 6q14 0 18 -3q3 -3 3 -18q0 -8 -11 -17
q-2 -2 -28 -22.5t-56.5 -46.5t-50.5 -49z" />
    <glyph glyph-name="Wgrave" unicode="&#x1e80;" horiz-adv-x="982" 
d="M371 96l115 254l-78 183q-35 79 -51 107t-28.5 36t-40.5 8h-8q-7 0 -7 4q0 5 6 5q16 0 54.5 -1.5t44.5 -1.5t50.5 1.5t60.5 1.5q6 0 6 -4.5t-6 -4.5h-8q-34 0 -34 -25q0 -36 41 -137l43 -100l41 100q30 70 30 115q0 48 -35 48q-5 0 -14 -1.5t-10 -1.5q-6 0 -6 5q0 6 11 6
q9 0 47 -1t46 -1q5 0 47 1t55 1q5 0 6 -4q-2 -4 -6 -5h-26q-37 0 -67 -38t-66 -128l-47 -111l136 -316q2 -5 5 -5q2 0 4 5l152 396q35 92 35 148q0 50 -51 50q-5 0 -16 -2t-12 -2q-7 0 -7 6t12 6q9 0 56.5 -1t55.5 -1q5 0 38 1t47 1q5 0 6 -4q-2 -4 -6 -5h-3
q-36 0 -68.5 -47.5t-73.5 -154.5l-187 -483q-2 -3 -7 -3h-10q-5 0 -7 3l-144 335l-150 -334q-2 -3 -6 -3h-8q-6 0 -8 3l-184 485q-39 100 -59 139t-35 49.5t-44 10.5h-2q-6 0 -6 4q0 5 5 5q16 0 51.5 -1.5t41.5 -1.5t65 1.5t75 1.5q7 0 7 -5q-1 -4 -6 -4h-26q-42 0 -44 -28
q0 -34 74 -222l129 -338q2 -5 5 -5q2 0 4 5zM571 753q-22 23 -55.5 50.5t-61.5 48t-31 23.5q-12 10 -12 17q0 16 3 19t18 3q18 0 24 -6q3 -3 22.5 -30.5t47 -62t50.5 -56.5q3 -3 3 -4q0 -4 -4 -4q-2 0 -4 2z" />
    <glyph glyph-name="wgrave" unicode="&#x1e81;" horiz-adv-x="829" 
d="M561 -2l-153 388l-163 -388q-1 -2 -3 -2h-11q-3 0 -4 2l-134 365q-30 84 -49.5 106t-59.5 22q-4 0 -4 4.5t4 4.5q2 0 42.5 -1t47.5 -1q5 0 54.5 1t62.5 1q3 0 4.5 -2t0 -4.5t-4.5 -2.5q-31 0 -41 -5t-8.5 -25t18.5 -68l111 -302l125 291q3 10 1 33q-2 20 -10 36
q-20 40 -64 40q-6 0 -6 5q0 4 5 4q14 0 52 -1t42 -1q5 0 42 1t49 1q7 0 7 -5q-1 -4 -6 -4q-42 0 -47 -13.5t22 -84.5l121 -308l107 266q22 51 16.5 82t-24.5 44.5t-50 13.5q-6 0 -6 5q0 4 5 4q13 0 55.5 -1t47.5 -1q7 0 47.5 1t43.5 1t4.5 -2t0.5 -4.5t-4 -2.5
q-42 0 -67 -30.5t-60 -116.5l-139 -346q-1 -2 -6 -2h-10q-3 0 -4 2zM450 559q-22 23 -55.5 50.5t-61.5 48t-31 23.5q-12 10 -12 17q0 16 3 19t18 3q18 0 24 -6q3 -3 22.5 -30.5t47 -62t50.5 -56.5q3 -3 3 -4q0 -4 -4 -4q-2 0 -4 2z" />
    <glyph glyph-name="Wacute" unicode="&#x1e82;" horiz-adv-x="982" 
d="M371 96l115 254l-78 183q-35 79 -51 107t-28.5 36t-40.5 8h-8q-7 0 -7 4q0 5 6 5q16 0 54.5 -1.5t44.5 -1.5t50.5 1.5t60.5 1.5q6 0 6 -4.5t-6 -4.5h-8q-34 0 -34 -25q0 -36 41 -137l43 -100l41 100q30 70 30 115q0 48 -35 48q-5 0 -14 -1.5t-10 -1.5q-6 0 -6 5q0 6 11 6
q9 0 47 -1t46 -1q5 0 47 1t55 1q5 0 6 -4q-2 -4 -6 -5h-26q-37 0 -67 -38t-66 -128l-47 -111l136 -316q2 -5 5 -5q2 0 4 5l152 396q35 92 35 148q0 50 -51 50q-5 0 -16 -2t-12 -2q-7 0 -7 6t12 6q9 0 56.5 -1t55.5 -1q5 0 38 1t47 1q5 0 6 -4q-2 -4 -6 -5h-3
q-36 0 -68.5 -47.5t-73.5 -154.5l-187 -483q-2 -3 -7 -3h-10q-5 0 -7 3l-144 335l-150 -334q-2 -3 -6 -3h-8q-6 0 -8 3l-184 485q-39 100 -59 139t-35 49.5t-44 10.5h-2q-6 0 -6 4q0 5 5 5q16 0 51.5 -1.5t41.5 -1.5t65 1.5t75 1.5q7 0 7 -5q-1 -4 -6 -4h-26q-42 0 -44 -28
q0 -34 74 -222l129 -338q2 -5 5 -5q2 0 4 5zM465 753q-2 -2 -4 -2q-4 0 -4 4q0 1 3 4q23 22 50.5 56.5t47 62t22.5 30.5q6 6 24 6q15 0 18 -3t3 -19q0 -7 -12 -17q-3 -3 -31 -23.5t-61.5 -48t-55.5 -50.5z" />
    <glyph glyph-name="wacute" unicode="&#x1e83;" horiz-adv-x="829" 
d="M561 -2l-153 388l-163 -388q-1 -2 -3 -2h-11q-3 0 -4 2l-134 365q-30 84 -49.5 106t-59.5 22q-4 0 -4 4.5t4 4.5q2 0 42.5 -1t47.5 -1q5 0 54.5 1t62.5 1q3 0 4.5 -2t0 -4.5t-4.5 -2.5q-31 0 -41 -5t-8.5 -25t18.5 -68l111 -302l125 291q3 10 1 33q-2 20 -10 36
q-20 40 -64 40q-6 0 -6 5q0 4 5 4q14 0 52 -1t42 -1q5 0 42 1t49 1q7 0 7 -5q-1 -4 -6 -4q-42 0 -47 -13.5t22 -84.5l121 -308l107 266q22 51 16.5 82t-24.5 44.5t-50 13.5q-6 0 -6 5q0 4 5 4q13 0 55.5 -1t47.5 -1q7 0 47.5 1t43.5 1t4.5 -2t0.5 -4.5t-4 -2.5
q-42 0 -67 -30.5t-60 -116.5l-139 -346q-1 -2 -6 -2h-10q-3 0 -4 2zM369 559q-2 -2 -4 -2q-4 0 -4 4q0 1 3 4q23 22 50.5 56.5t47 62t22.5 30.5q6 6 24 6q15 0 18 -3t3 -19q0 -7 -12 -17q-3 -3 -31 -23.5t-61.5 -48t-55.5 -50.5z" />
    <glyph glyph-name="Wdieresis" unicode="&#x1e84;" horiz-adv-x="982" 
d="M371 96l115 254l-78 183q-35 79 -51 107t-28.5 36t-40.5 8h-8q-7 0 -7 4q0 5 6 5q16 0 54.5 -1.5t44.5 -1.5t50.5 1.5t60.5 1.5q6 0 6 -4.5t-6 -4.5h-8q-34 0 -34 -25q0 -36 41 -137l43 -100l41 100q30 70 30 115q0 48 -35 48q-5 0 -14 -1.5t-10 -1.5q-6 0 -6 5q0 6 11 6
q9 0 47 -1t46 -1q5 0 47 1t55 1q5 0 6 -4q-2 -4 -6 -5h-26q-37 0 -67 -38t-66 -128l-47 -111l136 -316q2 -5 5 -5q2 0 4 5l152 396q35 92 35 148q0 50 -51 50q-5 0 -16 -2t-12 -2q-7 0 -7 6t12 6q9 0 56.5 -1t55.5 -1q5 0 38 1t47 1q5 0 6 -4q-2 -4 -6 -5h-3
q-36 0 -68.5 -47.5t-73.5 -154.5l-187 -483q-2 -3 -7 -3h-10q-5 0 -7 3l-144 335l-150 -334q-2 -3 -6 -3h-8q-6 0 -8 3l-184 485q-39 100 -59 139t-35 49.5t-44 10.5h-2q-6 0 -6 4q0 5 5 5q16 0 51.5 -1.5t41.5 -1.5t65 1.5t75 1.5q7 0 7 -5q-1 -4 -6 -4h-26q-42 0 -44 -28
q0 -34 74 -222l129 -338q2 -5 5 -5q2 0 4 5zM364 830q0 20 14.5 35t34.5 15t35 -15t15 -35t-15 -34.5t-35 -14.5t-34.5 14.5t-14.5 34.5zM562 830q0 20 14.5 35t34.5 15t35 -15t15 -35t-15 -34.5t-35 -14.5t-34.5 14.5t-14.5 34.5z" />
    <glyph glyph-name="wdieresis" unicode="&#x1e85;" horiz-adv-x="829" 
d="M561 -2l-153 388l-163 -388q-1 -2 -3 -2h-11q-3 0 -4 2l-134 365q-30 84 -49.5 106t-59.5 22q-4 0 -4 4.5t4 4.5q2 0 42.5 -1t47.5 -1q5 0 54.5 1t62.5 1q3 0 4.5 -2t0 -4.5t-4.5 -2.5q-31 0 -41 -5t-8.5 -25t18.5 -68l111 -302l125 291q3 10 1 33q-2 20 -10 36
q-20 40 -64 40q-6 0 -6 5q0 4 5 4q14 0 52 -1t42 -1q5 0 42 1t49 1q7 0 7 -5q-1 -4 -6 -4q-42 0 -47 -13.5t22 -84.5l121 -308l107 266q22 51 16.5 82t-24.5 44.5t-50 13.5q-6 0 -6 5q0 4 5 4q13 0 55.5 -1t47.5 -1q7 0 47.5 1t43.5 1t4.5 -2t0.5 -4.5t-4 -2.5
q-42 0 -67 -30.5t-60 -116.5l-139 -346q-1 -2 -6 -2h-10q-3 0 -4 2zM464 641q0 20 14.5 35t34.5 15t35 -15t15 -35t-15 -34.5t-35 -14.5t-34.5 14.5t-14.5 34.5zM266 641q0 20 14.5 35t34.5 15t35 -15t15 -35t-15 -34.5t-35 -14.5t-34.5 14.5t-14.5 34.5z" />
    <glyph glyph-name="figuredash" unicode="&#x2012;" horiz-adv-x="616" 
d="M311 251q143 0 239 6q6 -4 6 -12.5t-5 -11.5q-96 7 -242 7q-145 0 -238 -7q-6 3 -6 11.5t5 12.5q100 -6 241 -6z" />
    <glyph glyph-name="endash" unicode="&#x2013;" horiz-adv-x="500" 
d="M246 251q80 0 176 6q6 -4 6 -12.5t-5 -11.5q-96 7 -179 7q-80 0 -173 -7q-6 3 -5.5 11.5t4.5 12.5q100 -6 176 -6z" />
    <glyph glyph-name="emdash" unicode="&#x2014;" horiz-adv-x="1000" 
d="M507 251q325 0 421 6q6 -4 6 -12.5t-5 -11.5q-96 7 -424 7q-341 0 -434 -7q-6 3 -6 11.5t5 12.5q100 -6 437 -6z" />
    <glyph glyph-name="uni2015" unicode="&#x2015;" horiz-adv-x="1420" 
d="M717 251q531 0 627 6q6 -4 6 -12.5t-5 -11.5q-96 7 -630 7q-551 0 -644 -7q-6 3 -6 11.5t5 12.5q100 -6 647 -6z" />
    <glyph glyph-name="doublebar" unicode="&#x2016;" horiz-adv-x="421" 
d="M142 247q0 -270 6 -513q-17 -13 -29 -10q10 239 10 522q0 120 -6 528q12 9 31 6q-12 -195 -12 -533zM292 247q0 -270 6 -513q-17 -13 -29 -10q10 239 10 522q0 120 -6 528q12 9 31 6q-12 -195 -12 -533z" />
    <glyph glyph-name="quoteleft" unicode="&#x2018;" horiz-adv-x="269" 
d="M168 698q4 1 5 -1.5t-2 -4.5q-28 -9 -49 -25.5t-21 -35.5q0 -15 12.5 -21.5t40.5 -11.5q56 -12 56 -52q0 -23 -16.5 -39.5t-44.5 -16.5q-35 0 -57 24t-22 63q0 48 28.5 78t69.5 43z" />
    <glyph glyph-name="quoteright" unicode="&#x2019;" horiz-adv-x="269" 
d="M114 491q-4 -1 -5 1.5t2 4.5q70 23 70 62q0 17 -12 24.5t-39 12.5q-29 6 -43.5 17.5t-14.5 32.5q0 23 16.5 38t44.5 15q34 0 56 -26t22 -65q0 -85 -97 -117z" />
    <glyph glyph-name="quotesinglbase" unicode="&#x201a;" horiz-adv-x="269" 
d="M114 -99q-4 -1 -5 1.5t2 4.5q70 23 70 62q0 17 -12 24.5t-39 12.5q-29 6 -43.5 17.5t-14.5 32.5q0 23 16.5 38t44.5 15q34 0 56 -26t22 -65q0 -85 -97 -117z" />
    <glyph glyph-name="reversequoteleft" unicode="&#x201b;" horiz-adv-x="269" 
d="M167 491q-97 32 -97 117q0 39 22 65t56 26q28 0 44.5 -15t16.5 -38q0 -21 -14.5 -32.5t-43.5 -17.5q-27 -5 -39 -12.5t-12 -24.5q0 -39 70 -62q5 -2 1 -5q-2 -1 -4 -1z" />
    <glyph glyph-name="quotedblleft" unicode="&#x201c;" horiz-adv-x="458" 
d="M168 698q4 1 5 -1.5t-2 -4.5q-28 -9 -49 -25.5t-21 -35.5q0 -15 12.5 -21.5t40.5 -11.5q56 -12 56 -52q0 -23 -16.5 -39.5t-44.5 -16.5q-35 0 -57 24t-22 63q0 48 28.5 78t69.5 43zM357 698q4 1 5 -1.5t-2 -4.5q-28 -9 -49 -25.5t-21 -35.5q0 -15 12.5 -21.5t40.5 -11.5
q56 -12 56 -52q0 -23 -16.5 -39.5t-44.5 -16.5q-34 0 -56.5 25.5t-22.5 64.5q0 86 98 118z" />
    <glyph glyph-name="quotedblright" unicode="&#x201d;" horiz-adv-x="458" 
d="M112 491q-4 -1 -5 1.5t2 4.5q70 23 70 62q0 17 -12 24.5t-39 12.5q-29 6 -43.5 17.5t-14.5 32.5q0 23 16.5 38t44.5 15q34 0 56 -26t22 -65q0 -85 -97 -117zM301 491q-4 -1 -5 1.5t2 4.5q70 23 70 62q0 17 -12 24.5t-39 12.5q-29 6 -43.5 17.5t-14.5 32.5q0 23 16.5 38
t44.5 15q34 0 56 -26t22 -65q0 -85 -97 -117z" />
    <glyph glyph-name="quotedblbase" unicode="&#x201e;" horiz-adv-x="458" 
d="M113 -99q-4 -1 -5 1.5t2 4.5q70 23 70 62q0 17 -12 24.5t-39 12.5q-29 6 -43.5 17.5t-14.5 32.5q0 23 16.5 38t44.5 15q34 0 56 -26t22 -65q0 -85 -97 -117zM302 -99q-4 -1 -5 1.5t2 4.5q70 23 70 62q0 17 -12 24.5t-39 12.5q-29 6 -43.5 17.5t-14.5 32.5q0 23 16.5 38
t44.5 15q34 0 56 -26t22 -65q0 -85 -97 -117z" />
    <glyph glyph-name="reversequotedblleft" unicode="&#x201f;" horiz-adv-x="458" 
d="M358 491q-97 32 -97 117q0 39 22 65t56 26q28 0 44.5 -15t16.5 -38q0 -21 -14.5 -32.5t-43.5 -17.5q-27 -5 -39 -12.5t-12 -24.5q0 -39 70 -62q5 -2 1 -5q-2 -1 -4 -1zM169 491q-97 32 -97 117q0 39 22 65t56 26q28 0 44.5 -15t16.5 -38q0 -21 -14.5 -32.5t-43.5 -17.5
q-27 -5 -39 -12.5t-12 -24.5q0 -39 70 -62q5 -2 1 -5q-2 -1 -4 -1z" />
    <glyph glyph-name="dagger" unicode="&#x2020;" horiz-adv-x="617" 
d="M200 459h80q0 59 -1 93.5t-4 62t-6 39.5t-12 20t-16.5 9t-24.5 1h-21q-6 0 -6 4.5t6 4.5q16 0 62.5 -1.5t51.5 -1.5q6 0 51.5 1.5t61.5 1.5q6 0 6 -4.5t-6 -4.5h-21q-17 0 -24.5 -1t-16.5 -8.5t-12 -20t-6.5 -40t-4 -62.5t-0.5 -93h78q63 0 89 5.5t33.5 18t7.5 44.5v4
q0 6 4.5 6t4.5 -6q0 -16 -1.5 -53t-1.5 -43q0 -5 1.5 -42.5t1.5 -53.5q0 -6 -4.5 -6t-4.5 6v3q0 46 -20.5 57t-109.5 11h-78v-301q0 -99 1.5 -144t9.5 -72t18 -30.5t35 -3.5h21q6 0 6 -4.5t-6 -4.5q-16 0 -61.5 1.5t-51.5 1.5q-5 0 -51.5 -1.5t-62.5 -1.5q-6 0 -6 4.5t6 4.5
h21q25 0 35 3.5t18 30.5t9.5 72t1.5 144v301h-80q-63 0 -88.5 -5.5t-33 -18t-7.5 -44.5v-3q0 -6 -4.5 -6t-4.5 6q0 16 1.5 53.5t1.5 42.5q0 6 -1.5 43t-1.5 53q0 6 4.5 6t4.5 -6v-4q0 -32 7.5 -44.5t33 -18t88.5 -5.5z" />
    <glyph glyph-name="daggerdbl" unicode="&#x2021;" horiz-adv-x="617" 
d="M200 178h80v232h-80q-63 0 -88.5 -5.5t-33 -18t-7.5 -44.5v-3q0 -6 -4.5 -6t-4.5 6q0 16 1.5 53.5t1.5 42.5q0 6 -1.5 43t-1.5 53q0 6 4.5 6t4.5 -6v-4q0 -32 7.5 -44.5t33 -18t88.5 -5.5h80q0 59 -1 93.5t-4 62t-6 39.5t-12 20t-16.5 9t-24.5 1h-21q-6 0 -6 4.5t6 4.5
q16 0 62.5 -1.5t51.5 -1.5q6 0 51.5 1.5t61.5 1.5q6 0 6 -4.5t-6 -4.5h-21q-17 0 -24.5 -1t-16.5 -8.5t-12 -20t-6.5 -40t-4 -62.5t-0.5 -93h78q63 0 89 5.5t33.5 18t7.5 44.5v4q0 6 4.5 6t4.5 -6q0 -16 -1.5 -53t-1.5 -43q0 -5 1.5 -42.5t1.5 -53.5q0 -6 -4.5 -6t-4.5 6v3
q0 46 -20.5 57t-109.5 11h-78v-232h78q63 0 89 5.5t33.5 18t7.5 44.5v4q0 6 4.5 6t4.5 -6q0 -16 -1.5 -53t-1.5 -43q0 -5 1.5 -42.5t1.5 -53.5q0 -6 -4.5 -6t-4.5 6v3q0 46 -20.5 57t-109.5 11h-78v-20q0 -99 1.5 -144t9.5 -72t18 -30.5t35 -3.5h21q6 0 6 -4.5t-6 -4.5
q-16 0 -61.5 1.5t-51.5 1.5q-5 0 -51.5 -1.5t-62.5 -1.5q-6 0 -6 4.5t6 4.5h21q25 0 35 3.5t18 30.5t9.5 72t1.5 144v20h-80q-63 0 -88.5 -5.5t-33 -18t-7.5 -44.5v-3q0 -6 -4.5 -6t-4.5 6q0 16 1.5 53.5t1.5 42.5q0 6 -1.5 43t-1.5 53q0 6 4.5 6t4.5 -6v-4q0 -32 7.5 -44.5
t33 -18t88.5 -5.5z" />
    <glyph glyph-name="bullet" unicode="&#x2022;" horiz-adv-x="362" 
d="M95 255q0 35 25 61t62 26q34 0 60.5 -26t26.5 -61q0 -37 -26 -62t-61 -25q-38 0 -62.5 25t-24.5 62z" />
    <glyph glyph-name="ellipsis" unicode="&#x2026;" horiz-adv-x="684" 
d="M48 54q0 24 17 41t41 17q23 0 40.5 -17.5t17.5 -40.5q0 -24 -17 -41t-41 -17q-25 0 -41.5 16.5t-16.5 41.5zM284 54q0 24 17 41t41 17q23 0 40.5 -17.5t17.5 -40.5q0 -24 -17 -41t-41 -17q-25 0 -41.5 16.5t-16.5 41.5zM520 54q0 24 17 41t41 17q23 0 40.5 -17.5
t17.5 -40.5q0 -24 -17 -41t-41 -17q-25 0 -41.5 16.5t-16.5 41.5z" />
    </font>
</defs>
</svg>
