<svg width="0" height="0" class="hidden">
  <symbol xmlns="http://www.w3.org/2000/svg" viewBox="0 0 64 64" id="camera-shutter-1">
    <title>Camera Shutter</title>
    <desc>A solid styled icon from Orion Icon Library.</desc>
    <path data-name="layer2"
    d="M18 27.9L33.2 2H32A29.9 29.9 0 0 0 9.1 12.6l.4.7z" fill="#202020" style="fill:var(--layer1, #202020)"></path>
    <path data-name="layer1" d="M58.5 18a30 30 0 0 0-21-15.5l-.4.7L28.4 18z"
    fill="#202020" style="fill:var(--layer1, #202020)"></path>
    <path data-name="layer2" d="M60.3 22H42.5l15 25.9A30 30 0 0 0 60.3 22z"
    fill="#202020" style="fill:var(--layer1, #202020)"></path>
    <path data-name="layer1" d="M46 36.1L30.6 62H32a29.9 29.9 0 0 0 22.8-10.6l-.4-.7z"
    fill="#202020" style="fill:var(--layer1, #202020)"></path>
    <path data-name="layer2" d="M5.5 46a30 30 0 0 0 20.8 15.4l.4-.7L35.4 46z"
    fill="#202020" style="fill:var(--layer1, #202020)"></path>
    <path data-name="layer1" d="M21.5 42l-15-25.8A30 30 0 0 0 3.7 42h17.8z"
    fill="#202020" style="fill:var(--layer1, #202020)"></path>
  </symbol>
</svg>